%TF.GenerationSoftware,KiCad,Pcbnew,8.0.5*%
%TF.CreationDate,2024-12-21T13:32:31-05:00*%
%TF.ProjectId,coil_tune_switch,636f696c-5f74-4756-9e65-5f7377697463,rev?*%
%TF.SameCoordinates,Original*%
%TF.FileFunction,Legend,Bot*%
%TF.FilePolarity,Positive*%
%FSLAX46Y46*%
G04 Gerber Fmt 4.6, Leading zero omitted, Abs format (unit mm)*
G04 Created by KiCad (PCBNEW 8.0.5) date 2024-12-21 13:32:31*
%MOMM*%
%LPD*%
G01*
G04 APERTURE LIST*
%ADD10C,0.150000*%
%ADD11C,0.120000*%
G04 APERTURE END LIST*
D10*
X111340124Y-73547619D02*
X111340124Y-74119047D01*
X111340124Y-73833333D02*
X112340124Y-73833333D01*
X112340124Y-73833333D02*
X112197267Y-73928571D01*
X112197267Y-73928571D02*
X112102029Y-74023809D01*
X112102029Y-74023809D02*
X112054410Y-74119047D01*
X112244886Y-73166666D02*
X112292505Y-73119047D01*
X112292505Y-73119047D02*
X112340124Y-73023809D01*
X112340124Y-73023809D02*
X112340124Y-72785714D01*
X112340124Y-72785714D02*
X112292505Y-72690476D01*
X112292505Y-72690476D02*
X112244886Y-72642857D01*
X112244886Y-72642857D02*
X112149648Y-72595238D01*
X112149648Y-72595238D02*
X112054410Y-72595238D01*
X112054410Y-72595238D02*
X111911553Y-72642857D01*
X111911553Y-72642857D02*
X111340124Y-73214285D01*
X111340124Y-73214285D02*
X111340124Y-72595238D01*
X112340124Y-72309523D02*
X111340124Y-71976190D01*
X111340124Y-71976190D02*
X112340124Y-71642857D01*
X111625839Y-71357142D02*
X111625839Y-70880952D01*
X111340124Y-71452380D02*
X112340124Y-71119047D01*
X112340124Y-71119047D02*
X111340124Y-70785714D01*
X111435363Y-69880952D02*
X111387744Y-69928571D01*
X111387744Y-69928571D02*
X111340124Y-70071428D01*
X111340124Y-70071428D02*
X111340124Y-70166666D01*
X111340124Y-70166666D02*
X111387744Y-70309523D01*
X111387744Y-70309523D02*
X111482982Y-70404761D01*
X111482982Y-70404761D02*
X111578220Y-70452380D01*
X111578220Y-70452380D02*
X111768696Y-70499999D01*
X111768696Y-70499999D02*
X111911553Y-70499999D01*
X111911553Y-70499999D02*
X112102029Y-70452380D01*
X112102029Y-70452380D02*
X112197267Y-70404761D01*
X112197267Y-70404761D02*
X112292505Y-70309523D01*
X112292505Y-70309523D02*
X112340124Y-70166666D01*
X112340124Y-70166666D02*
X112340124Y-70071428D01*
X112340124Y-70071428D02*
X112292505Y-69928571D01*
X112292505Y-69928571D02*
X112244886Y-69880952D01*
X109825419Y-72785714D02*
X109777800Y-72833333D01*
X109777800Y-72833333D02*
X109730180Y-72976190D01*
X109730180Y-72976190D02*
X109730180Y-73071428D01*
X109730180Y-73071428D02*
X109777800Y-73214285D01*
X109777800Y-73214285D02*
X109873038Y-73309523D01*
X109873038Y-73309523D02*
X109968276Y-73357142D01*
X109968276Y-73357142D02*
X110158752Y-73404761D01*
X110158752Y-73404761D02*
X110301609Y-73404761D01*
X110301609Y-73404761D02*
X110492085Y-73357142D01*
X110492085Y-73357142D02*
X110587323Y-73309523D01*
X110587323Y-73309523D02*
X110682561Y-73214285D01*
X110682561Y-73214285D02*
X110730180Y-73071428D01*
X110730180Y-73071428D02*
X110730180Y-72976190D01*
X110730180Y-72976190D02*
X110682561Y-72833333D01*
X110682561Y-72833333D02*
X110634942Y-72785714D01*
X110730180Y-72166666D02*
X110730180Y-71976190D01*
X110730180Y-71976190D02*
X110682561Y-71880952D01*
X110682561Y-71880952D02*
X110587323Y-71785714D01*
X110587323Y-71785714D02*
X110396847Y-71738095D01*
X110396847Y-71738095D02*
X110063514Y-71738095D01*
X110063514Y-71738095D02*
X109873038Y-71785714D01*
X109873038Y-71785714D02*
X109777800Y-71880952D01*
X109777800Y-71880952D02*
X109730180Y-71976190D01*
X109730180Y-71976190D02*
X109730180Y-72166666D01*
X109730180Y-72166666D02*
X109777800Y-72261904D01*
X109777800Y-72261904D02*
X109873038Y-72357142D01*
X109873038Y-72357142D02*
X110063514Y-72404761D01*
X110063514Y-72404761D02*
X110396847Y-72404761D01*
X110396847Y-72404761D02*
X110587323Y-72357142D01*
X110587323Y-72357142D02*
X110682561Y-72261904D01*
X110682561Y-72261904D02*
X110730180Y-72166666D01*
X109730180Y-71309523D02*
X110730180Y-71309523D01*
X110730180Y-71309523D02*
X110015895Y-70976190D01*
X110015895Y-70976190D02*
X110730180Y-70642857D01*
X110730180Y-70642857D02*
X109730180Y-70642857D01*
X111411133Y-86061904D02*
X111411133Y-85300000D01*
X111030180Y-84300000D02*
X111030180Y-84871428D01*
X111030180Y-84585714D02*
X112030180Y-84585714D01*
X112030180Y-84585714D02*
X111887323Y-84680952D01*
X111887323Y-84680952D02*
X111792085Y-84776190D01*
X111792085Y-84776190D02*
X111744466Y-84871428D01*
X112030180Y-83966666D02*
X112030180Y-83300000D01*
X112030180Y-83300000D02*
X111030180Y-83728571D01*
X112030180Y-83061904D02*
X111030180Y-82728571D01*
X111030180Y-82728571D02*
X112030180Y-82395238D01*
X111030180Y-82061904D02*
X112030180Y-82061904D01*
X112030180Y-82061904D02*
X112030180Y-81823809D01*
X112030180Y-81823809D02*
X111982561Y-81680952D01*
X111982561Y-81680952D02*
X111887323Y-81585714D01*
X111887323Y-81585714D02*
X111792085Y-81538095D01*
X111792085Y-81538095D02*
X111601609Y-81490476D01*
X111601609Y-81490476D02*
X111458752Y-81490476D01*
X111458752Y-81490476D02*
X111268276Y-81538095D01*
X111268276Y-81538095D02*
X111173038Y-81585714D01*
X111173038Y-81585714D02*
X111077800Y-81680952D01*
X111077800Y-81680952D02*
X111030180Y-81823809D01*
X111030180Y-81823809D02*
X111030180Y-82061904D01*
X111125419Y-80490476D02*
X111077800Y-80538095D01*
X111077800Y-80538095D02*
X111030180Y-80680952D01*
X111030180Y-80680952D02*
X111030180Y-80776190D01*
X111030180Y-80776190D02*
X111077800Y-80919047D01*
X111077800Y-80919047D02*
X111173038Y-81014285D01*
X111173038Y-81014285D02*
X111268276Y-81061904D01*
X111268276Y-81061904D02*
X111458752Y-81109523D01*
X111458752Y-81109523D02*
X111601609Y-81109523D01*
X111601609Y-81109523D02*
X111792085Y-81061904D01*
X111792085Y-81061904D02*
X111887323Y-81014285D01*
X111887323Y-81014285D02*
X111982561Y-80919047D01*
X111982561Y-80919047D02*
X112030180Y-80776190D01*
X112030180Y-80776190D02*
X112030180Y-80680952D01*
X112030180Y-80680952D02*
X111982561Y-80538095D01*
X111982561Y-80538095D02*
X111934942Y-80490476D01*
D11*
%TO.C,R80*%
X126487258Y-133772500D02*
X126012742Y-133772500D01*
X126487258Y-132727500D02*
X126012742Y-132727500D01*
%TO.C,R79*%
X127977500Y-134237258D02*
X127977500Y-133762742D01*
X129022500Y-134237258D02*
X129022500Y-133762742D01*
%TO.C,R78*%
X123477500Y-134237258D02*
X123477500Y-133762742D01*
X124522500Y-134237258D02*
X124522500Y-133762742D01*
%TD*%
M02*
