M48
; DRILL file {KiCad 8.0.5} date 2024-12-21T13:32:34-0500
; FORMAT={-:-/ absolute / inch / decimal}
; #@! TF.CreationDate,2024-12-21T13:32:34-05:00
; #@! TF.GenerationSoftware,Kicad,Pcbnew,8.0.5
; #@! TF.FileFunction,MixedPlating,1,4
FMAT,2
INCH
; #@! TA.AperFunction,Plated,PTH,ViaDrill
T1C0.0118
; #@! TA.AperFunction,Plated,PTH,ComponentDrill
T2C0.0197
; #@! TA.AperFunction,Plated,PTH,ComponentDrill
T3C0.0276
; #@! TA.AperFunction,Plated,PTH,ComponentDrill
T4C0.0350
; #@! TA.AperFunction,Plated,PTH,ComponentDrill
T5C0.0394
; #@! TA.AperFunction,Plated,PTH,ComponentDrill
T6C0.0472
; #@! TA.AperFunction,Plated,PTH,ComponentDrill
T7C0.0618
; #@! TA.AperFunction,Plated,PTH,ComponentDrill
T8C0.0630
; #@! TA.AperFunction,NonPlated,NPTH,ComponentDrill
T9C0.1280
%
G90
G05
T1
X3.0512Y-2.4606
X3.0512Y-2.6575
X3.0512Y-2.8543
X3.0512Y-3.0512
X3.0512Y-3.248
X3.0512Y-3.4449
X3.1496Y-2.7559
X3.1496Y-2.9528
X3.1496Y-3.1496
X3.1496Y-3.3465
X3.189Y-4.6161
X3.2283Y-5.6496
X3.248Y-2.2638
X3.2677Y-4.4882
X3.2874Y-2.9724
X3.3071Y-2.6969
X3.3268Y-5.5512
X3.3465Y-2.3622
X3.3465Y-2.6969
X3.3465Y-2.9921
X3.3465Y-3.9469
X3.3465Y-4.1043
X3.4252Y-5.6496
X3.4449Y-2.2638
X3.4449Y-2.9134
X3.4941Y-4.5965
X3.5039Y-4.3209
X3.5236Y-5.5512
X3.5433Y-2.3622
X3.5531Y-5.3248
X3.563Y-5.4134
X3.5728Y-3.7402
X3.622Y-5.6496
X3.6417Y-2.2638
X3.7205Y-5.5512
X3.7402Y-2.3622
X3.7598Y-5.4134
X3.8189Y-5.6496
X3.8386Y-1.4665
X3.8386Y-2.2638
X3.8386Y-3.4449
X3.8386Y-4.1831
X3.9173Y-5.5512
X3.937Y-2.3622
X3.937Y-3.248
X3.9567Y-5.4134
X4.0157Y-5.6496
X4.0354Y-2.2638
X4.0754Y-3.928
X4.0929Y-4.4073
X4.1043Y-4.5472
X4.1142Y-5.5512
X4.1246Y-4.1248
X4.1339Y-2.3622
X4.1437Y-5.3937
X4.2033Y-4.7646
X4.2126Y-5.6496
X4.223Y-5.1599
X4.2304Y-4.3624
X4.2323Y-2.2638
X4.2323Y-3.4449
X4.252Y-5.0394
X4.2526Y-5.2764
X4.2618Y-4.5669
X4.2725Y-5.1795
X4.2815Y-5.2362
X4.2913Y-5.4134
X4.3045Y-5.2777
X4.311Y-5.5512
X4.3134Y-5.2454
X4.3256Y-5.2143
X4.3307Y-2.3622
X4.3335Y-4.617
X4.3399Y-5.3051
X4.3406Y-5.1844
X4.3504Y-4.2815
X4.3504Y-5.3839
X4.3599Y-5.1571
X4.3701Y-3.878
X4.3714Y-5.3118
X4.3872Y-4.8049
X4.3898Y-5.0197
X4.3912Y-5.1428
X4.4094Y-4.1142
X4.4094Y-5.6496
X4.4291Y-2.2638
X4.4291Y-3.1496
X4.482Y-4.5157
X4.4882Y-4.6063
X4.5079Y-5.5512
X4.5236Y-5.0057
X4.5276Y-2.3622
X4.5276Y-3.937
X4.5276Y-5.2154
X4.5374Y-4.6063
X4.5512Y-5.0394
X4.583Y-5.063
X4.5965Y-5.3642
X4.6063Y-5.6496
X4.6247Y-4.7822
X4.626Y-2.2638
X4.6437Y-4.3047
X4.6569Y-5.0085
X4.661Y-4.8185
X4.6654Y-4.2126
X4.6654Y-5.063
X4.6654Y-5.1181
X4.6724Y-5.3417
X4.687Y-4.1445
X4.698Y-4.0972
X4.7047Y-5.5512
X4.7185Y-4.05
X4.7244Y-2.3622
X4.7244Y-5.0984
X4.7244Y-5.187
X4.7268Y-5.2687
X4.7385Y-3.996
X4.7539Y-5.2854
X4.7736Y-4.9606
X4.7755Y-4.4075
X4.7776Y-4.5197
X4.7791Y-4.463
X4.7794Y-4.3348
X4.7815Y-5.0374
X4.7835Y-5.315
X4.7933Y-5.1378
X4.8031Y-5.6496
X4.8228Y-2.2638
X4.8327Y-5.187
X4.8796Y-4.1011
X4.9016Y-5.5512
X4.9112Y-4.183
X4.9114Y-4.065
X4.9213Y-2.3622
X5.0Y-5.6496
X5.0197Y-2.2638
X5.0394Y-4.3406
X5.0496Y-4.2815
X5.0837Y-4.188
X5.0984Y-5.5512
X5.1181Y-2.3622
X5.1673Y-4.2618
X5.1969Y-5.6496
X5.2165Y-2.2638
X5.2165Y-2.6575
X5.2165Y-2.8937
X5.2165Y-4.2323
X5.2165Y-4.4685
X5.2165Y-5.0197
X5.2165Y-5.2559
X5.2187Y-3.6821
X5.2205Y-3.4449
X5.2593Y-3.6021
X5.2756Y-2.815
X5.2756Y-3.0512
X5.2756Y-3.8386
X5.2756Y-4.3898
X5.2756Y-4.626
X5.2756Y-5.1772
X5.2756Y-5.4134
X5.2953Y-2.5787
X5.2953Y-3.3661
X5.2953Y-4.1535
X5.2953Y-4.9409
X5.2953Y-5.5512
X5.315Y-2.3622
X5.315Y-2.7165
X5.315Y-4.2913
X5.315Y-5.0787
X5.3209Y-3.5055
X5.3937Y-5.6496
X5.4134Y-2.2638
X5.4134Y-3.6024
X5.4134Y-4.3898
X5.4262Y-2.9528
X5.4262Y-3.7402
X5.4262Y-4.5276
X5.4262Y-5.315
X5.4331Y-2.4606
X5.4331Y-2.8937
X5.4331Y-3.0906
X5.4331Y-3.248
X5.4331Y-3.6811
X5.4331Y-3.878
X5.4331Y-4.0354
X5.4331Y-4.4685
X5.4331Y-4.6654
X5.4331Y-4.8228
X5.4331Y-5.2559
X5.4331Y-5.4528
X5.4528Y-2.5591
X5.4528Y-3.3465
X5.4528Y-4.1339
X5.4528Y-4.9213
X5.4724Y-2.9921
X5.4724Y-3.7795
X5.4724Y-4.5669
X5.4724Y-5.3543
X5.4921Y-5.5512
X5.5118Y-2.3622
X5.5906Y-2.5197
X5.5906Y-3.0315
X5.5906Y-3.3071
X5.5906Y-3.8189
X5.5906Y-4.0945
X5.5906Y-4.6063
X5.5906Y-4.8819
X5.5906Y-5.3937
X5.5906Y-5.6496
X5.6102Y-2.2638
X5.6693Y-2.4606
X5.6693Y-2.5197
X5.6693Y-3.0906
X5.6693Y-3.2441
X5.6693Y-3.3071
X5.6693Y-3.878
X5.6693Y-4.0354
X5.6693Y-4.0945
X5.6693Y-4.6654
X5.6693Y-4.8228
X5.6693Y-4.8819
X5.6693Y-5.4528
X5.689Y-5.5512
X5.7087Y-2.3622
X5.748Y-2.5197
X5.748Y-3.3071
X5.748Y-4.0945
X5.748Y-4.8819
X5.7677Y-2.8937
X5.7677Y-3.6811
X5.7677Y-4.4685
X5.7677Y-5.2756
X5.7874Y-2.7953
X5.7874Y-2.8346
X5.7874Y-3.5827
X5.7874Y-3.622
X5.7874Y-4.3701
X5.7874Y-4.4094
X5.7874Y-5.1575
X5.7874Y-5.1969
X5.7874Y-5.6496
X5.8071Y-2.2638
X5.8071Y-3.6811
X5.8071Y-5.2657
X5.8169Y-4.4685
X5.8268Y-2.5197
X5.8268Y-2.8937
X5.8268Y-2.9528
X5.8268Y-3.0315
X5.8268Y-3.3071
X5.8268Y-3.7402
X5.8268Y-3.8189
X5.8268Y-4.0945
X5.8268Y-4.5276
X5.8268Y-4.6063
X5.8268Y-4.8819
X5.8268Y-5.315
X5.8268Y-5.3937
X5.8858Y-2.6575
X5.8858Y-2.8937
X5.8858Y-3.4449
X5.8858Y-3.6811
X5.8858Y-4.2323
X5.8858Y-4.4685
X5.8858Y-5.0197
X5.8858Y-5.2559
X5.8858Y-5.5512
X5.9055Y-2.3622
X5.935Y-4.3701
X5.9449Y-5.187
X5.9547Y-4.5177
X5.9843Y-5.6496
X6.0039Y-2.2638
X6.0039Y-2.6575
X6.0039Y-2.8937
X6.0039Y-3.4449
X6.0039Y-3.6811
X6.0039Y-4.2323
X6.0039Y-4.4685
X6.0039Y-5.0197
X6.0039Y-5.2559
X6.063Y-2.815
X6.063Y-3.0512
X6.063Y-3.6024
X6.063Y-3.8386
X6.063Y-4.3898
X6.063Y-4.6063
X6.063Y-5.1772
X6.063Y-5.4134
X6.0827Y-2.5787
X6.0827Y-3.3661
X6.0827Y-4.1535
X6.0827Y-4.9409
X6.0827Y-5.5512
X6.1024Y-2.3622
X6.1024Y-2.7165
X6.1024Y-3.5039
X6.1024Y-4.2913
X6.1024Y-5.0787
X6.1811Y-5.6496
X6.2008Y-2.2638
X6.2008Y-2.815
X6.2008Y-3.6024
X6.2008Y-4.3898
X6.2008Y-5.1772
X6.2136Y-2.9528
X6.2136Y-3.7402
X6.2136Y-4.5276
X6.2136Y-5.315
X6.2205Y-2.4606
X6.2205Y-2.8937
X6.2205Y-3.0906
X6.2205Y-3.248
X6.2205Y-3.6811
X6.2205Y-3.878
X6.2205Y-4.0354
X6.2205Y-4.4685
X6.2205Y-4.6654
X6.2205Y-4.8228
X6.2205Y-5.2559
X6.2205Y-5.4528
X6.2402Y-2.5591
X6.2402Y-3.3465
X6.2402Y-4.1339
X6.2402Y-4.9213
X6.2598Y-2.9921
X6.2598Y-3.7795
X6.2598Y-4.5669
X6.2598Y-5.3543
X6.2795Y-5.5512
X6.2992Y-2.3622
X6.378Y-2.5197
X6.378Y-3.0315
X6.378Y-3.3071
X6.378Y-3.8189
X6.378Y-4.0945
X6.378Y-4.6063
X6.378Y-4.8819
X6.378Y-5.3937
X6.378Y-5.6496
X6.3976Y-2.2638
X6.4567Y-2.4606
X6.4567Y-2.5197
X6.4567Y-3.0906
X6.4567Y-3.248
X6.4567Y-3.3071
X6.4567Y-3.878
X6.4567Y-4.0354
X6.4567Y-4.0945
X6.4567Y-4.6654
X6.4567Y-4.8228
X6.4567Y-4.8819
X6.4567Y-5.4528
X6.4764Y-5.5512
X6.4862Y-5.8366
X6.4961Y-2.3622
X6.5354Y-2.5197
X6.5354Y-3.3071
X6.5354Y-4.0945
X6.5354Y-4.4783
X6.5354Y-4.8819
X6.5354Y-5.2854
X6.5551Y-3.6909
X6.5748Y-2.7953
X6.5748Y-2.8346
X6.5748Y-3.5827
X6.5748Y-3.622
X6.5748Y-4.3701
X6.5748Y-4.4094
X6.5748Y-5.1575
X6.5748Y-5.1969
X6.5748Y-5.6496
X6.5945Y-2.2638
X6.5945Y-3.6811
X6.6043Y-5.2559
X6.6142Y-2.5197
X6.6142Y-2.9528
X6.6142Y-3.0315
X6.6142Y-3.3071
X6.6142Y-3.7402
X6.6142Y-3.8189
X6.6142Y-4.0945
X6.6142Y-4.4783
X6.6142Y-4.5276
X6.6142Y-4.6063
X6.6142Y-4.8819
X6.6142Y-5.315
X6.6142Y-5.3937
X6.6732Y-2.6575
X6.6732Y-2.8937
X6.6732Y-3.4449
X6.6732Y-3.6811
X6.6732Y-4.2323
X6.6732Y-4.4685
X6.6732Y-5.0197
X6.6732Y-5.2559
X6.6732Y-5.5512
X6.6929Y-2.3622
X6.7323Y-4.5866
X6.7421Y-4.4193
X6.7421Y-5.1575
X6.7717Y-5.6496
X6.7913Y-2.2638
X6.7913Y-2.6575
X6.7913Y-2.8937
X6.7913Y-3.4449
X6.7913Y-3.6811
X6.7913Y-4.2323
X6.7913Y-4.4685
X6.7913Y-5.0197
X6.7913Y-5.2559
X6.8504Y-2.815
X6.8504Y-3.0512
X6.8504Y-3.6024
X6.8504Y-3.8386
X6.8504Y-4.3898
X6.8504Y-5.1772
X6.8504Y-5.4134
X6.8701Y-2.5787
X6.8701Y-3.3661
X6.8701Y-4.1535
X6.8701Y-4.9409
X6.8701Y-5.5512
X6.8898Y-2.3622
X6.8898Y-2.7165
X6.8898Y-3.5039
X6.8898Y-4.2913
X6.8898Y-5.0787
X6.9685Y-5.6496
X6.9882Y-2.2638
X6.9882Y-2.815
X6.9882Y-3.6024
X6.9882Y-4.3898
X6.9882Y-5.1772
X7.001Y-2.9528
X7.001Y-3.7402
X7.001Y-4.5276
X7.001Y-5.315
X7.0079Y-2.4606
X7.0079Y-2.8937
X7.0079Y-3.0906
X7.0079Y-3.6811
X7.0079Y-4.0354
X7.0079Y-4.4685
X7.0079Y-4.6654
X7.0079Y-4.8228
X7.0079Y-5.2559
X7.0079Y-5.4528
X7.0276Y-2.5591
X7.0276Y-3.3465
X7.0276Y-4.1339
X7.0276Y-4.9213
X7.0472Y-2.9921
X7.0472Y-3.7795
X7.0472Y-4.5669
X7.0472Y-5.3543
X7.0669Y-5.5512
X7.0866Y-2.3622
X7.1654Y-2.5197
X7.1654Y-3.0315
X7.1654Y-3.3071
X7.1654Y-3.8189
X7.1654Y-4.0945
X7.1654Y-4.6063
X7.1654Y-4.8819
X7.1654Y-5.3937
X7.1654Y-5.6496
X7.185Y-2.2638
X7.2441Y-2.4606
X7.2441Y-2.5197
X7.2441Y-3.0906
X7.2441Y-3.3071
X7.2441Y-3.878
X7.2441Y-4.0354
X7.2441Y-4.0945
X7.2441Y-4.6654
X7.2441Y-4.8228
X7.2441Y-4.8819
X7.2441Y-5.4528
X7.2638Y-5.5512
X7.2835Y-2.3622
X7.3228Y-2.5197
X7.3228Y-3.3071
X7.3228Y-4.0945
X7.3228Y-4.8819
X7.3425Y-2.8937
X7.3425Y-3.6909
X7.3425Y-4.4882
X7.3425Y-5.2854
X7.3622Y-2.7953
X7.3622Y-2.8346
X7.3622Y-3.5827
X7.3622Y-3.622
X7.3622Y-4.3701
X7.3622Y-4.4094
X7.3622Y-5.1575
X7.3622Y-5.1969
X7.3622Y-5.6496
X7.3819Y-2.2638
X7.3819Y-5.2657
X7.3917Y-3.6909
X7.3917Y-4.4783
X7.4016Y-2.5197
X7.4016Y-2.8937
X7.4016Y-2.9528
X7.4016Y-3.0315
X7.4016Y-3.3071
X7.4016Y-3.7402
X7.4016Y-3.8189
X7.4016Y-4.0945
X7.4016Y-4.5276
X7.4016Y-4.6063
X7.4016Y-4.8819
X7.4016Y-5.315
X7.4016Y-5.3937
X7.4606Y-2.6575
X7.4606Y-2.8937
X7.4606Y-3.4449
X7.4606Y-3.6811
X7.4606Y-4.2323
X7.4606Y-4.4685
X7.4606Y-5.0197
X7.4606Y-5.2559
X7.4606Y-5.5512
X7.4803Y-2.3622
X7.5197Y-4.4193
X7.5197Y-4.6457
X7.5197Y-5.1772
X7.5591Y-5.6496
X7.5787Y-2.2638
X7.5787Y-2.6575
X7.5787Y-2.8937
X7.5787Y-3.4449
X7.5787Y-3.6811
X7.5787Y-4.2323
X7.5787Y-4.4685
X7.5787Y-5.0197
X7.5787Y-5.2559
X7.6083Y-5.8858
X7.6378Y-2.815
X7.6378Y-3.0512
X7.6378Y-3.6024
X7.6378Y-3.8386
X7.6378Y-4.3898
X7.6378Y-4.626
X7.6378Y-5.1772
X7.6378Y-5.4134
X7.6575Y-2.5787
X7.6575Y-3.3661
X7.6575Y-4.1535
X7.6575Y-4.9409
X7.6575Y-5.5512
X7.6772Y-2.3622
X7.6772Y-2.7165
X7.6772Y-3.5039
X7.6772Y-4.2913
X7.6772Y-5.0787
X7.7559Y-5.6496
X7.7756Y-2.2638
X7.7756Y-2.815
X7.7756Y-3.6024
X7.7756Y-4.3898
X7.7756Y-5.1772
X7.7884Y-2.9528
X7.7884Y-3.7402
X7.7884Y-4.5276
X7.7884Y-5.315
X7.7953Y-2.4606
X7.7953Y-2.8937
X7.7953Y-3.6811
X7.7953Y-3.878
X7.7953Y-4.0354
X7.7953Y-4.4685
X7.7953Y-4.6654
X7.7953Y-5.2559
X7.7953Y-5.4528
X7.815Y-2.5591
X7.815Y-3.3465
X7.815Y-4.1339
X7.815Y-4.9213
X7.8346Y-2.9921
X7.8346Y-3.7795
X7.8346Y-4.5669
X7.8346Y-5.3543
X7.8543Y-5.5512
X7.874Y-2.3622
X7.9528Y-2.5197
X7.9528Y-3.0315
X7.9528Y-3.3071
X7.9528Y-3.8189
X7.9528Y-4.0945
X7.9528Y-4.6063
X7.9528Y-4.8819
X7.9528Y-5.3937
X7.9528Y-5.6496
X7.9724Y-2.2638
X8.0315Y-2.4606
X8.0315Y-2.5197
X8.0315Y-3.3071
X8.0315Y-3.878
X8.0315Y-4.0945
X8.0315Y-4.6654
X8.0315Y-4.8819
X8.0315Y-5.4528
X8.0512Y-5.5512
X8.0709Y-2.3622
X8.1102Y-2.5197
X8.1102Y-3.3071
X8.1102Y-4.0945
X8.1102Y-4.8819
X8.1299Y-4.4488
X8.1299Y-5.2756
X8.1398Y-2.8937
X8.1496Y-2.7953
X8.1496Y-2.8346
X8.1496Y-3.5827
X8.1496Y-3.622
X8.1496Y-3.6909
X8.1496Y-4.3701
X8.1496Y-4.4094
X8.1496Y-5.1575
X8.1496Y-5.1969
X8.1496Y-5.6496
X8.1693Y-2.2638
X8.1693Y-5.2657
X8.189Y-2.5197
X8.189Y-2.8937
X8.189Y-2.9528
X8.189Y-3.0315
X8.189Y-3.3071
X8.189Y-3.7402
X8.189Y-3.8189
X8.189Y-4.0945
X8.189Y-4.5276
X8.189Y-4.6063
X8.189Y-4.8819
X8.189Y-5.315
X8.189Y-5.3937
X8.248Y-2.6575
X8.248Y-2.8937
X8.248Y-3.4449
X8.248Y-3.6811
X8.248Y-4.2323
X8.248Y-4.4685
X8.248Y-5.0197
X8.248Y-5.2559
X8.248Y-5.5512
X8.2677Y-2.3622
X8.3093Y-5.3055
X8.3465Y-5.6496
X8.4646Y-2.5591
X8.4646Y-5.3642
X8.5117Y-5.3055
X9.1142Y-2.5295
T2
X4.4587Y-4.3996
T3
X3.1496Y-2.5394
X3.1496Y-2.6181
X3.8091Y-3.0315
X3.8091Y-3.1102
X4.1634Y-4.4685
X4.1634Y-4.5472
X4.164Y-4.1839
X4.164Y-4.2626
X4.3307Y-4.4685
X4.3307Y-4.5472
X4.3996Y-2.9724
X4.3996Y-3.0512
X4.4685Y-3.2185
X4.4685Y-3.2972
X4.4685Y-3.5138
X4.4685Y-3.5925
X5.0492Y-2.9035
X5.0492Y-2.9823
T4
X3.1949Y-3.8443
X3.1949Y-3.9243
X3.1949Y-4.0043
X3.1949Y-4.0843
X3.265Y-3.8043
X3.265Y-3.8843
X3.265Y-3.9643
X3.265Y-4.0443
X3.4547Y-3.674
X3.4547Y-3.7642
X3.4547Y-4.124
X3.4547Y-4.2142
T5
X4.1628Y-3.8878
X4.2628Y-3.8878
X8.4843Y-3.1567
X8.4843Y-3.2567
X8.4843Y-3.3567
X8.4843Y-3.4567
X8.4843Y-3.5567
X8.4843Y-3.6567
X8.4843Y-3.7567
X8.4843Y-3.8567
X8.4843Y-3.9567
X8.4843Y-4.0567
X8.4843Y-4.1567
X8.4843Y-4.2567
X8.4843Y-4.3567
X8.4843Y-4.4567
X8.4843Y-4.5567
X8.4843Y-4.6567
X8.4843Y-4.7567
X8.5843Y-3.1567
X8.5843Y-3.2567
X8.5843Y-3.3567
X8.5843Y-3.4567
X8.5843Y-3.5567
X8.5843Y-3.6567
X8.5843Y-3.7567
X8.5843Y-3.8567
X8.5843Y-3.9567
X8.5843Y-4.0567
X8.5843Y-4.1567
X8.5843Y-4.2567
X8.5843Y-4.3567
X8.5843Y-4.4567
X8.5843Y-4.5567
X8.5843Y-4.6567
X8.5843Y-4.7567
T6
X4.0945Y-2.5782
X4.0945Y-2.8735
X4.0945Y-3.2584
X4.0945Y-3.5537
T7
X3.2299Y-3.624
X3.2299Y-4.2642
T8
X4.687Y-2.6457
X4.872Y-2.5276
X4.872Y-2.7638
T9
X3.0949Y-3.6941
X3.0949Y-4.1941
M30
