%TF.GenerationSoftware,KiCad,Pcbnew,8.0.5*%
%TF.CreationDate,2024-12-21T13:32:31-05:00*%
%TF.ProjectId,coil_tune_switch,636f696c-5f74-4756-9e65-5f7377697463,rev?*%
%TF.SameCoordinates,Original*%
%TF.FileFunction,Paste,Top*%
%TF.FilePolarity,Positive*%
%FSLAX46Y46*%
G04 Gerber Fmt 4.6, Leading zero omitted, Abs format (unit mm)*
G04 Created by KiCad (PCBNEW 8.0.5) date 2024-12-21 13:32:31*
%MOMM*%
%LPD*%
G01*
G04 APERTURE LIST*
G04 Aperture macros list*
%AMRoundRect*
0 Rectangle with rounded corners*
0 $1 Rounding radius*
0 $2 $3 $4 $5 $6 $7 $8 $9 X,Y pos of 4 corners*
0 Add a 4 corners polygon primitive as box body*
4,1,4,$2,$3,$4,$5,$6,$7,$8,$9,$2,$3,0*
0 Add four circle primitives for the rounded corners*
1,1,$1+$1,$2,$3*
1,1,$1+$1,$4,$5*
1,1,$1+$1,$6,$7*
1,1,$1+$1,$8,$9*
0 Add four rect primitives between the rounded corners*
20,1,$1+$1,$2,$3,$4,$5,0*
20,1,$1+$1,$4,$5,$6,$7,0*
20,1,$1+$1,$6,$7,$8,$9,0*
20,1,$1+$1,$8,$9,$2,$3,0*%
G04 Aperture macros list end*
%ADD10RoundRect,0.200000X0.200000X0.275000X-0.200000X0.275000X-0.200000X-0.275000X0.200000X-0.275000X0*%
%ADD11RoundRect,0.200000X-0.200000X-0.275000X0.200000X-0.275000X0.200000X0.275000X-0.200000X0.275000X0*%
%ADD12RoundRect,0.225000X-0.250000X0.225000X-0.250000X-0.225000X0.250000X-0.225000X0.250000X0.225000X0*%
%ADD13RoundRect,0.250000X0.650000X-0.325000X0.650000X0.325000X-0.650000X0.325000X-0.650000X-0.325000X0*%
%ADD14R,1.000000X1.000000*%
%ADD15R,1.000000X3.550000*%
%ADD16R,1.000000X3.800000*%
%ADD17R,3.550000X1.000000*%
%ADD18R,3.800000X1.000000*%
%ADD19RoundRect,0.218750X0.256250X-0.218750X0.256250X0.218750X-0.256250X0.218750X-0.256250X-0.218750X0*%
%ADD20R,0.400000X0.400000*%
%ADD21RoundRect,0.200000X0.275000X-0.200000X0.275000X0.200000X-0.275000X0.200000X-0.275000X-0.200000X0*%
%ADD22R,0.550000X1.000000*%
%ADD23R,1.500000X1.000000*%
%ADD24R,1.400000X1.600000*%
%ADD25RoundRect,0.225000X-0.225000X-0.250000X0.225000X-0.250000X0.225000X0.250000X-0.225000X0.250000X0*%
%ADD26RoundRect,0.100000X-0.100000X0.225000X-0.100000X-0.225000X0.100000X-0.225000X0.100000X0.225000X0*%
%ADD27R,1.400000X0.900000*%
%ADD28RoundRect,0.250000X-1.450000X0.400000X-1.450000X-0.400000X1.450000X-0.400000X1.450000X0.400000X0*%
%ADD29RoundRect,0.150000X-0.150000X0.825000X-0.150000X-0.825000X0.150000X-0.825000X0.150000X0.825000X0*%
%ADD30RoundRect,0.200000X-0.275000X0.200000X-0.275000X-0.200000X0.275000X-0.200000X0.275000X0.200000X0*%
%ADD31R,2.000000X1.780000*%
%ADD32R,1.000000X0.550000*%
%ADD33RoundRect,0.218750X-0.256250X0.218750X-0.256250X-0.218750X0.256250X-0.218750X0.256250X0.218750X0*%
%ADD34RoundRect,0.250000X0.412500X0.650000X-0.412500X0.650000X-0.412500X-0.650000X0.412500X-0.650000X0*%
%ADD35RoundRect,0.250000X-2.000000X1.400000X-2.000000X-1.400000X2.000000X-1.400000X2.000000X1.400000X0*%
%ADD36RoundRect,0.150000X-0.825000X-0.150000X0.825000X-0.150000X0.825000X0.150000X-0.825000X0.150000X0*%
%ADD37RoundRect,0.375000X-0.625000X-0.375000X0.625000X-0.375000X0.625000X0.375000X-0.625000X0.375000X0*%
%ADD38RoundRect,0.500000X-0.500000X-1.400000X0.500000X-1.400000X0.500000X1.400000X-0.500000X1.400000X0*%
%ADD39RoundRect,0.225000X0.250000X-0.225000X0.250000X0.225000X-0.250000X0.225000X-0.250000X-0.225000X0*%
%ADD40RoundRect,0.207500X0.207500X0.207500X-0.207500X0.207500X-0.207500X-0.207500X0.207500X-0.207500X0*%
%ADD41RoundRect,0.062500X0.350000X0.062500X-0.350000X0.062500X-0.350000X-0.062500X0.350000X-0.062500X0*%
%ADD42RoundRect,0.062500X0.062500X0.350000X-0.062500X0.350000X-0.062500X-0.350000X0.062500X-0.350000X0*%
%ADD43RoundRect,0.225000X0.225000X0.250000X-0.225000X0.250000X-0.225000X-0.250000X0.225000X-0.250000X0*%
%ADD44RoundRect,0.150000X-0.587500X-0.150000X0.587500X-0.150000X0.587500X0.150000X-0.587500X0.150000X0*%
%ADD45RoundRect,0.250001X0.462499X1.074999X-0.462499X1.074999X-0.462499X-1.074999X0.462499X-1.074999X0*%
%ADD46R,1.500000X1.100000*%
%ADD47RoundRect,0.250000X-0.650000X0.325000X-0.650000X-0.325000X0.650000X-0.325000X0.650000X0.325000X0*%
%ADD48RoundRect,0.150000X0.875000X0.150000X-0.875000X0.150000X-0.875000X-0.150000X0.875000X-0.150000X0*%
%ADD49RoundRect,0.250000X1.000000X0.650000X-1.000000X0.650000X-1.000000X-0.650000X1.000000X-0.650000X0*%
%ADD50RoundRect,0.250000X-1.000000X-0.650000X1.000000X-0.650000X1.000000X0.650000X-1.000000X0.650000X0*%
G04 APERTURE END LIST*
D10*
%TO.C,R82*%
X91825000Y-92500000D03*
X90175000Y-92500000D03*
%TD*%
D11*
%TO.C,R81*%
X87425000Y-111000000D03*
X89075000Y-111000000D03*
%TD*%
D12*
%TO.C,C86*%
X143500000Y-111725000D03*
X143500000Y-113275000D03*
%TD*%
D13*
%TO.C,C155*%
X83250000Y-79925000D03*
X83250000Y-76975000D03*
%TD*%
D12*
%TO.C,C46*%
X143000000Y-95225000D03*
X143000000Y-96775000D03*
%TD*%
D14*
%TO.C,J12*%
X172850000Y-82350000D03*
D15*
X172850000Y-84625000D03*
D16*
X172850000Y-90500000D03*
D15*
X172850000Y-96375000D03*
D14*
X172850000Y-98650000D03*
D17*
X175125000Y-82350000D03*
X175125000Y-98650000D03*
D18*
X181000000Y-82350000D03*
X181000000Y-98650000D03*
D17*
X186875000Y-82350000D03*
X186875000Y-98650000D03*
D14*
X189150000Y-82350000D03*
D15*
X189150000Y-84625000D03*
D16*
X189150000Y-90500000D03*
D15*
X189150000Y-96375000D03*
D14*
X189150000Y-98650000D03*
%TD*%
D19*
%TO.C,D29*%
X166000000Y-96787500D03*
X166000000Y-95212500D03*
%TD*%
D20*
%TO.C,L1*%
X134050000Y-74675000D03*
X134050000Y-75325000D03*
X134950000Y-75325000D03*
X134950000Y-74675000D03*
%TD*%
D21*
%TO.C,R14*%
X103500000Y-103000000D03*
X103500000Y-101350000D03*
%TD*%
%TO.C,R19*%
X124750000Y-127825000D03*
X124750000Y-126175000D03*
%TD*%
D22*
%TO.C,TR15*%
X154650000Y-127500000D03*
X155500000Y-127500000D03*
X156350000Y-127500000D03*
X156350000Y-124500000D03*
X155500000Y-124500000D03*
X154650000Y-124500000D03*
%TD*%
D12*
%TO.C,C95*%
X163500000Y-111725000D03*
X163500000Y-113275000D03*
%TD*%
D11*
%TO.C,R59*%
X136175000Y-137000000D03*
X137825000Y-137000000D03*
%TD*%
D12*
%TO.C,C91*%
X163000000Y-115225000D03*
X163000000Y-116775000D03*
%TD*%
%TO.C,C53*%
X162000000Y-86225000D03*
X162000000Y-87775000D03*
%TD*%
%TO.C,C166*%
X202000000Y-91725000D03*
X202000000Y-93275000D03*
%TD*%
%TO.C,C168*%
X162000000Y-111725000D03*
X162000000Y-113275000D03*
%TD*%
D11*
%TO.C,R47*%
X136175000Y-117000000D03*
X137825000Y-117000000D03*
%TD*%
D23*
%TO.C,D54*%
X194750000Y-110250000D03*
X194750000Y-112750000D03*
X200250000Y-112750000D03*
X200250000Y-110250000D03*
%TD*%
D24*
%TO.C,SW2*%
X86750000Y-132000000D03*
X86750000Y-124000000D03*
X91250000Y-132000000D03*
X91250000Y-124000000D03*
%TD*%
D14*
%TO.C,J19*%
X152850000Y-122350000D03*
D15*
X152850000Y-124625000D03*
D16*
X152850000Y-130500000D03*
D15*
X152850000Y-136375000D03*
D14*
X152850000Y-138650000D03*
D17*
X155125000Y-122350000D03*
X155125000Y-138650000D03*
D18*
X161000000Y-122350000D03*
X161000000Y-138650000D03*
D17*
X166875000Y-122350000D03*
X166875000Y-138650000D03*
D14*
X169150000Y-122350000D03*
D15*
X169150000Y-124625000D03*
D16*
X169150000Y-130500000D03*
D15*
X169150000Y-136375000D03*
D14*
X169150000Y-138650000D03*
%TD*%
D12*
%TO.C,C96*%
X183500000Y-106225000D03*
X183500000Y-107775000D03*
%TD*%
D25*
%TO.C,C142*%
X197725000Y-126500000D03*
X199275000Y-126500000D03*
%TD*%
D19*
%TO.C,D37*%
X206000000Y-96787500D03*
X206000000Y-95212500D03*
%TD*%
D25*
%TO.C,C43*%
X137725000Y-86500000D03*
X139275000Y-86500000D03*
%TD*%
%TO.C,C11*%
X142225000Y-70000000D03*
X143775000Y-70000000D03*
%TD*%
D10*
%TO.C,R45*%
X197825000Y-95000000D03*
X196175000Y-95000000D03*
%TD*%
D20*
%TO.C,L16*%
X194050000Y-134675000D03*
X194050000Y-135325000D03*
X194950000Y-135325000D03*
X194950000Y-134675000D03*
%TD*%
D12*
%TO.C,C73*%
X203000000Y-95225000D03*
X203000000Y-96775000D03*
%TD*%
D13*
%TO.C,C158*%
X80750000Y-71675000D03*
X80750000Y-68725000D03*
%TD*%
D26*
%TO.C,U11*%
X141150000Y-95050000D03*
X140500000Y-95050000D03*
X139850000Y-95050000D03*
X139850000Y-96950000D03*
X141150000Y-96950000D03*
%TD*%
D25*
%TO.C,C97*%
X177725000Y-106500000D03*
X179275000Y-106500000D03*
%TD*%
D27*
%TO.C,C30*%
X186500000Y-66050000D03*
X186500000Y-69950000D03*
%TD*%
D12*
%TO.C,C148*%
X205000000Y-131725000D03*
X205000000Y-133275000D03*
%TD*%
%TO.C,C116*%
X142000000Y-126225000D03*
X142000000Y-127775000D03*
%TD*%
D14*
%TO.C,J21*%
X192850000Y-122350000D03*
D15*
X192850000Y-124625000D03*
D16*
X192850000Y-130500000D03*
D15*
X192850000Y-136375000D03*
D14*
X192850000Y-138650000D03*
D17*
X195125000Y-122350000D03*
X195125000Y-138650000D03*
D18*
X201000000Y-122350000D03*
X201000000Y-138650000D03*
D17*
X206875000Y-122350000D03*
X206875000Y-138650000D03*
D14*
X209150000Y-122350000D03*
D15*
X209150000Y-124625000D03*
D16*
X209150000Y-130500000D03*
D15*
X209150000Y-136375000D03*
D14*
X209150000Y-138650000D03*
%TD*%
D10*
%TO.C,R70*%
X116575000Y-79500000D03*
X114925000Y-79500000D03*
%TD*%
D25*
%TO.C,C34*%
X197725000Y-66500000D03*
X199275000Y-66500000D03*
%TD*%
D14*
%TO.C,J16*%
X172850000Y-102350000D03*
D15*
X172850000Y-104625000D03*
D16*
X172850000Y-110500000D03*
D15*
X172850000Y-116375000D03*
D14*
X172850000Y-118650000D03*
D17*
X175125000Y-102350000D03*
X175125000Y-118650000D03*
D18*
X181000000Y-102350000D03*
X181000000Y-118650000D03*
D17*
X186875000Y-102350000D03*
X186875000Y-118650000D03*
D14*
X189150000Y-102350000D03*
D15*
X189150000Y-104625000D03*
D16*
X189150000Y-110500000D03*
D15*
X189150000Y-116375000D03*
D14*
X189150000Y-118650000D03*
%TD*%
%TO.C,J9*%
X192850000Y-62350000D03*
D15*
X192850000Y-64625000D03*
D16*
X192850000Y-70500000D03*
D15*
X192850000Y-76375000D03*
D14*
X192850000Y-78650000D03*
D17*
X195125000Y-62350000D03*
X195125000Y-78650000D03*
D18*
X201000000Y-62350000D03*
X201000000Y-78650000D03*
D17*
X206875000Y-62350000D03*
X206875000Y-78650000D03*
D14*
X209150000Y-62350000D03*
D15*
X209150000Y-64625000D03*
D16*
X209150000Y-70500000D03*
D15*
X209150000Y-76375000D03*
D14*
X209150000Y-78650000D03*
%TD*%
D12*
%TO.C,C37*%
X203000000Y-75225000D03*
X203000000Y-76775000D03*
%TD*%
D11*
%TO.C,R35*%
X136175000Y-97000000D03*
X137825000Y-97000000D03*
%TD*%
D22*
%TO.C,TR12*%
X174650000Y-107500000D03*
X175500000Y-107500000D03*
X176350000Y-107500000D03*
X176350000Y-104500000D03*
X175500000Y-104500000D03*
X174650000Y-104500000D03*
%TD*%
D12*
%TO.C,C17*%
X162000000Y-66225000D03*
X162000000Y-67775000D03*
%TD*%
D21*
%TO.C,R22*%
X144500000Y-76825000D03*
X144500000Y-75175000D03*
%TD*%
D28*
%TO.C,L18*%
X115250000Y-73275000D03*
X115250000Y-77725000D03*
%TD*%
D29*
%TO.C,U4*%
X119040000Y-118750000D03*
X117770000Y-118750000D03*
X116500000Y-118750000D03*
X115230000Y-118750000D03*
X113960000Y-118750000D03*
X112690000Y-118750000D03*
X111420000Y-118750000D03*
X110150000Y-118750000D03*
X110150000Y-123700000D03*
X111420000Y-123700000D03*
X112690000Y-123700000D03*
X113960000Y-123700000D03*
X115230000Y-123700000D03*
X116500000Y-123700000D03*
X117770000Y-123700000D03*
X119040000Y-123700000D03*
%TD*%
D25*
%TO.C,C70*%
X197725000Y-86500000D03*
X199275000Y-86500000D03*
%TD*%
D30*
%TO.C,R74*%
X85250000Y-72625000D03*
X85250000Y-74275000D03*
%TD*%
D11*
%TO.C,R32*%
X196175000Y-77000000D03*
X197825000Y-77000000D03*
%TD*%
D12*
%TO.C,C31*%
X185000000Y-71725000D03*
X185000000Y-73275000D03*
%TD*%
%TO.C,C164*%
X162000000Y-91725000D03*
X162000000Y-93275000D03*
%TD*%
%TO.C,C14*%
X143500000Y-71725000D03*
X143500000Y-73275000D03*
%TD*%
D21*
%TO.C,R43*%
X204500000Y-96825000D03*
X204500000Y-95175000D03*
%TD*%
D12*
%TO.C,C85*%
X145000000Y-111725000D03*
X145000000Y-113275000D03*
%TD*%
D27*
%TO.C,C39*%
X206500000Y-66050000D03*
X206500000Y-69950000D03*
%TD*%
D25*
%TO.C,C101*%
X182225000Y-110000000D03*
X183775000Y-110000000D03*
%TD*%
D12*
%TO.C,C76*%
X205000000Y-91725000D03*
X205000000Y-93275000D03*
%TD*%
D31*
%TO.C,U3*%
X91235000Y-112190000D03*
X91235000Y-114730000D03*
X91235000Y-117270000D03*
X91235000Y-119810000D03*
X100765000Y-119810000D03*
X100765000Y-117270000D03*
X100765000Y-114730000D03*
X100765000Y-112190000D03*
%TD*%
D21*
%TO.C,R15*%
X103000000Y-113825000D03*
X103000000Y-112175000D03*
%TD*%
D22*
%TO.C,TR3*%
X154650000Y-67500000D03*
X155500000Y-67500000D03*
X156350000Y-67500000D03*
X156350000Y-64500000D03*
X155500000Y-64500000D03*
X154650000Y-64500000D03*
%TD*%
D14*
%TO.C,J11*%
X152850000Y-82350000D03*
D15*
X152850000Y-84625000D03*
D16*
X152850000Y-90500000D03*
D15*
X152850000Y-96375000D03*
D14*
X152850000Y-98650000D03*
D17*
X155125000Y-82350000D03*
X155125000Y-98650000D03*
D18*
X161000000Y-82350000D03*
X161000000Y-98650000D03*
D17*
X166875000Y-82350000D03*
X166875000Y-98650000D03*
D14*
X169150000Y-82350000D03*
D15*
X169150000Y-84625000D03*
D16*
X169150000Y-90500000D03*
D15*
X169150000Y-96375000D03*
D14*
X169150000Y-98650000D03*
%TD*%
D22*
%TO.C,TR9*%
X194650000Y-87500000D03*
X195500000Y-87500000D03*
X196350000Y-87500000D03*
X196350000Y-84500000D03*
X195500000Y-84500000D03*
X194650000Y-84500000D03*
%TD*%
D25*
%TO.C,C63*%
X177725000Y-88010000D03*
X179275000Y-88010000D03*
%TD*%
D14*
%TO.C,J10*%
X132850000Y-82350000D03*
D15*
X132850000Y-84625000D03*
D16*
X132850000Y-90500000D03*
D15*
X132850000Y-96375000D03*
D14*
X132850000Y-98650000D03*
D17*
X135125000Y-82350000D03*
X135125000Y-98650000D03*
D18*
X141000000Y-82350000D03*
X141000000Y-98650000D03*
D17*
X146875000Y-82350000D03*
X146875000Y-98650000D03*
D14*
X149150000Y-82350000D03*
D15*
X149150000Y-84625000D03*
D16*
X149150000Y-90500000D03*
D15*
X149150000Y-96375000D03*
D14*
X149150000Y-98650000D03*
%TD*%
D22*
%TO.C,TR17*%
X194650000Y-127500000D03*
X195500000Y-127500000D03*
X196350000Y-127500000D03*
X196350000Y-124500000D03*
X195500000Y-124500000D03*
X194650000Y-124500000D03*
%TD*%
D25*
%TO.C,C146*%
X202225000Y-130000000D03*
X203775000Y-130000000D03*
%TD*%
D21*
%TO.C,R75*%
X104250000Y-139825000D03*
X104250000Y-138175000D03*
%TD*%
D12*
%TO.C,C62*%
X182000000Y-86225000D03*
X182000000Y-87775000D03*
%TD*%
D10*
%TO.C,R60*%
X137825000Y-135000000D03*
X136175000Y-135000000D03*
%TD*%
%TO.C,R36*%
X137825000Y-95000000D03*
X136175000Y-95000000D03*
%TD*%
D12*
%TO.C,C130*%
X165000000Y-131725000D03*
X165000000Y-133275000D03*
%TD*%
%TO.C,C169*%
X182000000Y-111725000D03*
X182000000Y-113275000D03*
%TD*%
D21*
%TO.C,R31*%
X204500000Y-76825000D03*
X204500000Y-75175000D03*
%TD*%
D26*
%TO.C,U9*%
X181150000Y-75050000D03*
X180500000Y-75050000D03*
X179850000Y-75050000D03*
X179850000Y-76950000D03*
X181150000Y-76950000D03*
%TD*%
D12*
%TO.C,C131*%
X163500000Y-131725000D03*
X163500000Y-133275000D03*
%TD*%
D25*
%TO.C,C135*%
X177725000Y-128010000D03*
X179275000Y-128010000D03*
%TD*%
D12*
%TO.C,C165*%
X182000000Y-91725000D03*
X182000000Y-93275000D03*
%TD*%
D21*
%TO.C,R71*%
X85500000Y-78525000D03*
X85500000Y-76875000D03*
%TD*%
D25*
%TO.C,C90*%
X157725000Y-108010000D03*
X159275000Y-108010000D03*
%TD*%
D12*
%TO.C,C161*%
X182000000Y-71725000D03*
X182000000Y-73275000D03*
%TD*%
%TO.C,C118*%
X143000000Y-135225000D03*
X143000000Y-136775000D03*
%TD*%
D10*
%TO.C,R48*%
X137825000Y-115000000D03*
X136175000Y-115000000D03*
%TD*%
D32*
%TO.C,TR1*%
X215000000Y-135200000D03*
X215000000Y-134350000D03*
X215000000Y-133500000D03*
X212000000Y-133500000D03*
X212000000Y-134350000D03*
X212000000Y-135200000D03*
%TD*%
D12*
%TO.C,C35*%
X202000000Y-66225000D03*
X202000000Y-67775000D03*
%TD*%
D25*
%TO.C,C29*%
X182225000Y-70000000D03*
X183775000Y-70000000D03*
%TD*%
%TO.C,C65*%
X182225000Y-90000000D03*
X183775000Y-90000000D03*
%TD*%
D33*
%TO.C,D6*%
X124750000Y-123212500D03*
X124750000Y-124787500D03*
%TD*%
D26*
%TO.C,U12*%
X161150000Y-95050000D03*
X160500000Y-95050000D03*
X159850000Y-95050000D03*
X159850000Y-96950000D03*
X161150000Y-96950000D03*
%TD*%
D25*
%TO.C,C144*%
X197725000Y-128010000D03*
X199275000Y-128010000D03*
%TD*%
D21*
%TO.C,R17*%
X103000000Y-117075000D03*
X103000000Y-115425000D03*
%TD*%
D22*
%TO.C,TR13*%
X194650000Y-107500000D03*
X195500000Y-107500000D03*
X196350000Y-107500000D03*
X196350000Y-104500000D03*
X195500000Y-104500000D03*
X194650000Y-104500000D03*
%TD*%
D12*
%TO.C,C33*%
X203500000Y-66225000D03*
X203500000Y-67775000D03*
%TD*%
D28*
%TO.C,L17*%
X124750000Y-73275000D03*
X124750000Y-77725000D03*
%TD*%
D26*
%TO.C,U22*%
X201150000Y-135050000D03*
X200500000Y-135050000D03*
X199850000Y-135050000D03*
X199850000Y-136950000D03*
X201150000Y-136950000D03*
%TD*%
D21*
%TO.C,R37*%
X164500000Y-96825000D03*
X164500000Y-95175000D03*
%TD*%
D11*
%TO.C,R26*%
X156175000Y-77000000D03*
X157825000Y-77000000D03*
%TD*%
D12*
%TO.C,C98*%
X182000000Y-106225000D03*
X182000000Y-107775000D03*
%TD*%
%TO.C,C82*%
X143000000Y-115225000D03*
X143000000Y-116775000D03*
%TD*%
D22*
%TO.C,TR10*%
X134650000Y-107500000D03*
X135500000Y-107500000D03*
X136350000Y-107500000D03*
X136350000Y-104500000D03*
X135500000Y-104500000D03*
X134650000Y-104500000D03*
%TD*%
D20*
%TO.C,L2*%
X154050000Y-74675000D03*
X154050000Y-75325000D03*
X154950000Y-75325000D03*
X154950000Y-74675000D03*
%TD*%
D21*
%TO.C,R28*%
X184500000Y-76825000D03*
X184500000Y-75175000D03*
%TD*%
D34*
%TO.C,C150*%
X121562500Y-73500000D03*
X118437500Y-73500000D03*
%TD*%
D21*
%TO.C,R20*%
X126500000Y-127825000D03*
X126500000Y-126175000D03*
%TD*%
%TO.C,R55*%
X204500000Y-116825000D03*
X204500000Y-115175000D03*
%TD*%
D25*
%TO.C,C56*%
X162225000Y-90000000D03*
X163775000Y-90000000D03*
%TD*%
D10*
%TO.C,R30*%
X177825000Y-75000000D03*
X176175000Y-75000000D03*
%TD*%
D20*
%TO.C,L7*%
X174050000Y-94675000D03*
X174050000Y-95325000D03*
X174950000Y-95325000D03*
X174950000Y-94675000D03*
%TD*%
D12*
%TO.C,C10*%
X143000000Y-75225000D03*
X143000000Y-76775000D03*
%TD*%
D21*
%TO.C,R10*%
X106750000Y-134075000D03*
X106750000Y-132425000D03*
%TD*%
D25*
%TO.C,C83*%
X142225000Y-110000000D03*
X143775000Y-110000000D03*
%TD*%
%TO.C,C27*%
X177725000Y-68010000D03*
X179275000Y-68010000D03*
%TD*%
D22*
%TO.C,TR11*%
X154650000Y-107500000D03*
X155500000Y-107500000D03*
X156350000Y-107500000D03*
X156350000Y-104500000D03*
X155500000Y-104500000D03*
X154650000Y-104500000D03*
%TD*%
D11*
%TO.C,R44*%
X196175000Y-97000000D03*
X197825000Y-97000000D03*
%TD*%
D22*
%TO.C,TR5*%
X194650000Y-67500000D03*
X195500000Y-67500000D03*
X196350000Y-67500000D03*
X196350000Y-64500000D03*
X195500000Y-64500000D03*
X194650000Y-64500000D03*
%TD*%
D10*
%TO.C,R39*%
X157825000Y-95000000D03*
X156175000Y-95000000D03*
%TD*%
D12*
%TO.C,C134*%
X182000000Y-126225000D03*
X182000000Y-127775000D03*
%TD*%
D21*
%TO.C,R12*%
X106765000Y-128095000D03*
X106765000Y-126445000D03*
%TD*%
D12*
%TO.C,C59*%
X163500000Y-91725000D03*
X163500000Y-93275000D03*
%TD*%
D25*
%TO.C,C61*%
X177725000Y-86500000D03*
X179275000Y-86500000D03*
%TD*%
%TO.C,C108*%
X197725000Y-108010000D03*
X199275000Y-108010000D03*
%TD*%
D26*
%TO.C,U19*%
X141150000Y-135050000D03*
X140500000Y-135050000D03*
X139850000Y-135050000D03*
X139850000Y-136950000D03*
X141150000Y-136950000D03*
%TD*%
D22*
%TO.C,TR7*%
X154650000Y-87500000D03*
X155500000Y-87500000D03*
X156350000Y-87500000D03*
X156350000Y-84500000D03*
X155500000Y-84500000D03*
X154650000Y-84500000D03*
%TD*%
D10*
%TO.C,R42*%
X177825000Y-95000000D03*
X176175000Y-95000000D03*
%TD*%
D25*
%TO.C,C92*%
X162225000Y-110000000D03*
X163775000Y-110000000D03*
%TD*%
D21*
%TO.C,R16*%
X103500000Y-106325000D03*
X103500000Y-104675000D03*
%TD*%
D25*
%TO.C,C72*%
X197725000Y-88010000D03*
X199275000Y-88010000D03*
%TD*%
D26*
%TO.C,U7*%
X141150000Y-75050000D03*
X140500000Y-75050000D03*
X139850000Y-75050000D03*
X139850000Y-76950000D03*
X141150000Y-76950000D03*
%TD*%
D12*
%TO.C,C140*%
X183500000Y-131725000D03*
X183500000Y-133275000D03*
%TD*%
D27*
%TO.C,C57*%
X166500000Y-86050000D03*
X166500000Y-89950000D03*
%TD*%
D21*
%TO.C,R49*%
X164500000Y-116825000D03*
X164500000Y-115175000D03*
%TD*%
D12*
%TO.C,C55*%
X163000000Y-95225000D03*
X163000000Y-96775000D03*
%TD*%
D25*
%TO.C,C99*%
X177725000Y-108010000D03*
X179275000Y-108010000D03*
%TD*%
D21*
%TO.C,R34*%
X144500000Y-96825000D03*
X144500000Y-95175000D03*
%TD*%
D25*
%TO.C,C47*%
X142225000Y-90000000D03*
X143775000Y-90000000D03*
%TD*%
D12*
%TO.C,C107*%
X202000000Y-106225000D03*
X202000000Y-107775000D03*
%TD*%
%TO.C,C125*%
X162000000Y-126225000D03*
X162000000Y-127775000D03*
%TD*%
%TO.C,C162*%
X202000000Y-71725000D03*
X202000000Y-73275000D03*
%TD*%
D25*
%TO.C,C106*%
X197725000Y-106500000D03*
X199275000Y-106500000D03*
%TD*%
D11*
%TO.C,R65*%
X176175000Y-137000000D03*
X177825000Y-137000000D03*
%TD*%
D12*
%TO.C,C149*%
X203500000Y-131725000D03*
X203500000Y-133275000D03*
%TD*%
D25*
%TO.C,C110*%
X202225000Y-110000000D03*
X203775000Y-110000000D03*
%TD*%
D10*
%TO.C,R51*%
X157825000Y-115000000D03*
X156175000Y-115000000D03*
%TD*%
D26*
%TO.C,U13*%
X181150000Y-95050000D03*
X180500000Y-95050000D03*
X179850000Y-95050000D03*
X179850000Y-96950000D03*
X181150000Y-96950000D03*
%TD*%
D19*
%TO.C,D65*%
X186000000Y-136787500D03*
X186000000Y-135212500D03*
%TD*%
D12*
%TO.C,C141*%
X203500000Y-126225000D03*
X203500000Y-127775000D03*
%TD*%
%TO.C,C87*%
X163500000Y-106225000D03*
X163500000Y-107775000D03*
%TD*%
D35*
%TO.C,D75*%
X92650000Y-86500000D03*
X83850000Y-86500000D03*
%TD*%
D12*
%TO.C,C139*%
X185000000Y-131725000D03*
X185000000Y-133275000D03*
%TD*%
D36*
%TO.C,U1*%
X109000000Y-101900000D03*
X109000000Y-103170000D03*
X109000000Y-104440000D03*
X109000000Y-105710000D03*
X109000000Y-106980000D03*
X109000000Y-108250000D03*
X109000000Y-109520000D03*
X113950000Y-109520000D03*
X113950000Y-108250000D03*
X113950000Y-106980000D03*
X113950000Y-105710000D03*
X113950000Y-104440000D03*
X113950000Y-103170000D03*
X113950000Y-101900000D03*
%TD*%
D25*
%TO.C,C137*%
X182225000Y-130000000D03*
X183775000Y-130000000D03*
%TD*%
D12*
%TO.C,C60*%
X183500000Y-86225000D03*
X183500000Y-87775000D03*
%TD*%
%TO.C,C44*%
X142000000Y-86225000D03*
X142000000Y-87775000D03*
%TD*%
%TO.C,C71*%
X202000000Y-86225000D03*
X202000000Y-87775000D03*
%TD*%
D11*
%TO.C,R5*%
X85925000Y-112750000D03*
X87575000Y-112750000D03*
%TD*%
D33*
%TO.C,D8*%
X128235000Y-123212500D03*
X128235000Y-124787500D03*
%TD*%
D25*
%TO.C,C88*%
X157725000Y-106500000D03*
X159275000Y-106500000D03*
%TD*%
D23*
%TO.C,D10*%
X134750000Y-70250000D03*
X134750000Y-72750000D03*
X140250000Y-72750000D03*
X140250000Y-70250000D03*
%TD*%
D27*
%TO.C,C84*%
X146500000Y-106050000D03*
X146500000Y-109950000D03*
%TD*%
D12*
%TO.C,C100*%
X183000000Y-115225000D03*
X183000000Y-116775000D03*
%TD*%
D25*
%TO.C,C52*%
X157725000Y-86500000D03*
X159275000Y-86500000D03*
%TD*%
D20*
%TO.C,L6*%
X154050000Y-94675000D03*
X154050000Y-95325000D03*
X154950000Y-95325000D03*
X154950000Y-94675000D03*
%TD*%
D12*
%TO.C,C28*%
X183000000Y-75225000D03*
X183000000Y-76775000D03*
%TD*%
D19*
%TO.C,D61*%
X166000000Y-136787500D03*
X166000000Y-135212500D03*
%TD*%
D12*
%TO.C,C145*%
X203000000Y-135225000D03*
X203000000Y-136775000D03*
%TD*%
%TO.C,C127*%
X163000000Y-135225000D03*
X163000000Y-136775000D03*
%TD*%
D37*
%TO.C,U23*%
X87600000Y-77150000D03*
X87600000Y-79450000D03*
D38*
X93900000Y-79450000D03*
D37*
X87600000Y-81750000D03*
%TD*%
D39*
%TO.C,C2*%
X120750000Y-123525000D03*
X120750000Y-121975000D03*
%TD*%
D21*
%TO.C,R25*%
X164500000Y-76825000D03*
X164500000Y-75175000D03*
%TD*%
D12*
%TO.C,C8*%
X142000000Y-66225000D03*
X142000000Y-67775000D03*
%TD*%
D10*
%TO.C,R33*%
X197825000Y-75000000D03*
X196175000Y-75000000D03*
%TD*%
D40*
%TO.C,U6*%
X116030000Y-133500000D03*
X116030000Y-132470000D03*
X116030000Y-131440000D03*
X115000000Y-133500000D03*
X115000000Y-132470000D03*
X115000000Y-131440000D03*
X113970000Y-133500000D03*
X113970000Y-132470000D03*
X113970000Y-131440000D03*
D41*
X117437500Y-134220000D03*
X117437500Y-133720000D03*
X117437500Y-133220000D03*
X117437500Y-132720000D03*
X117437500Y-132220000D03*
X117437500Y-131720000D03*
X117437500Y-131220000D03*
X117437500Y-130720000D03*
D42*
X116750000Y-130032500D03*
X116250000Y-130032500D03*
X115750000Y-130032500D03*
X115250000Y-130032500D03*
X114750000Y-130032500D03*
X114250000Y-130032500D03*
X113750000Y-130032500D03*
X113250000Y-130032500D03*
D41*
X112562500Y-130720000D03*
X112562500Y-131220000D03*
X112562500Y-131720000D03*
X112562500Y-132220000D03*
X112562500Y-132720000D03*
X112562500Y-133220000D03*
X112562500Y-133720000D03*
X112562500Y-134220000D03*
D42*
X113250000Y-134907500D03*
X113750000Y-134907500D03*
X114250000Y-134907500D03*
X114750000Y-134907500D03*
X115250000Y-134907500D03*
X115750000Y-134907500D03*
X116250000Y-134907500D03*
X116750000Y-134907500D03*
%TD*%
D20*
%TO.C,L5*%
X134050000Y-94675000D03*
X134050000Y-95325000D03*
X134950000Y-95325000D03*
X134950000Y-94675000D03*
%TD*%
%TO.C,L11*%
X174050000Y-114675000D03*
X174050000Y-115325000D03*
X174950000Y-115325000D03*
X174950000Y-114675000D03*
%TD*%
D10*
%TO.C,R69*%
X197825000Y-135000000D03*
X196175000Y-135000000D03*
%TD*%
D12*
%TO.C,C170*%
X202000000Y-111725000D03*
X202000000Y-113275000D03*
%TD*%
%TO.C,C123*%
X163500000Y-126225000D03*
X163500000Y-127775000D03*
%TD*%
D22*
%TO.C,TR6*%
X134650000Y-87500000D03*
X135500000Y-87500000D03*
X136350000Y-87500000D03*
X136350000Y-84500000D03*
X135500000Y-84500000D03*
X134650000Y-84500000D03*
%TD*%
D12*
%TO.C,C26*%
X182000000Y-66225000D03*
X182000000Y-67775000D03*
%TD*%
D20*
%TO.C,L9*%
X134050000Y-114675000D03*
X134050000Y-115325000D03*
X134950000Y-115325000D03*
X134950000Y-114675000D03*
%TD*%
D14*
%TO.C,J7*%
X152850000Y-62350000D03*
D15*
X152850000Y-64625000D03*
D16*
X152850000Y-70500000D03*
D15*
X152850000Y-76375000D03*
D14*
X152850000Y-78650000D03*
D17*
X155125000Y-62350000D03*
X155125000Y-78650000D03*
D18*
X161000000Y-62350000D03*
X161000000Y-78650000D03*
D17*
X166875000Y-62350000D03*
X166875000Y-78650000D03*
D14*
X169150000Y-62350000D03*
D15*
X169150000Y-64625000D03*
D16*
X169150000Y-70500000D03*
D15*
X169150000Y-76375000D03*
D14*
X169150000Y-78650000D03*
%TD*%
D25*
%TO.C,C45*%
X137725000Y-88010000D03*
X139275000Y-88010000D03*
%TD*%
D12*
%TO.C,C68*%
X183500000Y-91725000D03*
X183500000Y-93275000D03*
%TD*%
%TO.C,C58*%
X165000000Y-91725000D03*
X165000000Y-93275000D03*
%TD*%
%TO.C,C136*%
X183000000Y-135225000D03*
X183000000Y-136775000D03*
%TD*%
%TO.C,C114*%
X143500000Y-126225000D03*
X143500000Y-127775000D03*
%TD*%
D21*
%TO.C,R73*%
X85500000Y-81525000D03*
X85500000Y-79875000D03*
%TD*%
D33*
%TO.C,D5*%
X123015000Y-123197500D03*
X123015000Y-124772500D03*
%TD*%
D14*
%TO.C,J17*%
X192850000Y-102350000D03*
D15*
X192850000Y-104625000D03*
D16*
X192850000Y-110500000D03*
D15*
X192850000Y-116375000D03*
D14*
X192850000Y-118650000D03*
D17*
X195125000Y-102350000D03*
X195125000Y-118650000D03*
D18*
X201000000Y-102350000D03*
X201000000Y-118650000D03*
D17*
X206875000Y-102350000D03*
X206875000Y-118650000D03*
D14*
X209150000Y-102350000D03*
D15*
X209150000Y-104625000D03*
D16*
X209150000Y-110500000D03*
D15*
X209150000Y-116375000D03*
D14*
X209150000Y-118650000D03*
%TD*%
D20*
%TO.C,L4*%
X194050000Y-74675000D03*
X194050000Y-75325000D03*
X194950000Y-75325000D03*
X194950000Y-74675000D03*
%TD*%
D21*
%TO.C,R40*%
X184500000Y-96825000D03*
X184500000Y-95175000D03*
%TD*%
D43*
%TO.C,C4*%
X113025000Y-136500000D03*
X111475000Y-136500000D03*
%TD*%
D10*
%TO.C,R54*%
X177825000Y-115000000D03*
X176175000Y-115000000D03*
%TD*%
D12*
%TO.C,C163*%
X142000000Y-91725000D03*
X142000000Y-93275000D03*
%TD*%
%TO.C,C112*%
X205000000Y-111725000D03*
X205000000Y-113275000D03*
%TD*%
D25*
%TO.C,C74*%
X202225000Y-90000000D03*
X203775000Y-90000000D03*
%TD*%
D23*
%TO.C,D70*%
X194750000Y-130250000D03*
X194750000Y-132750000D03*
X200250000Y-132750000D03*
X200250000Y-130250000D03*
%TD*%
D12*
%TO.C,C19*%
X163000000Y-75225000D03*
X163000000Y-76775000D03*
%TD*%
D10*
%TO.C,R66*%
X177825000Y-135000000D03*
X176175000Y-135000000D03*
%TD*%
D26*
%TO.C,U15*%
X141150000Y-115050000D03*
X140500000Y-115050000D03*
X139850000Y-115050000D03*
X139850000Y-116950000D03*
X141150000Y-116950000D03*
%TD*%
D25*
%TO.C,C9*%
X137725000Y-68010000D03*
X139275000Y-68010000D03*
%TD*%
D27*
%TO.C,C93*%
X166500000Y-106050000D03*
X166500000Y-109950000D03*
%TD*%
D12*
%TO.C,C94*%
X165000000Y-111725000D03*
X165000000Y-113275000D03*
%TD*%
%TO.C,C167*%
X142000000Y-111725000D03*
X142000000Y-113275000D03*
%TD*%
D21*
%TO.C,R64*%
X184500000Y-136825000D03*
X184500000Y-135175000D03*
%TD*%
D30*
%TO.C,R72*%
X85250000Y-69375000D03*
X85250000Y-71025000D03*
%TD*%
D10*
%TO.C,R27*%
X157825000Y-75000000D03*
X156175000Y-75000000D03*
%TD*%
D12*
%TO.C,C143*%
X202000000Y-126225000D03*
X202000000Y-127775000D03*
%TD*%
D25*
%TO.C,C36*%
X197725000Y-68010000D03*
X199275000Y-68010000D03*
%TD*%
D27*
%TO.C,C129*%
X166500000Y-126050000D03*
X166500000Y-129950000D03*
%TD*%
D23*
%TO.C,D34*%
X174750000Y-90250000D03*
X174750000Y-92750000D03*
X180250000Y-92750000D03*
X180250000Y-90250000D03*
%TD*%
D14*
%TO.C,J20*%
X172850000Y-122350000D03*
D15*
X172850000Y-124625000D03*
D16*
X172850000Y-130500000D03*
D15*
X172850000Y-136375000D03*
D14*
X172850000Y-138650000D03*
D17*
X175125000Y-122350000D03*
X175125000Y-138650000D03*
D18*
X181000000Y-122350000D03*
X181000000Y-138650000D03*
D17*
X186875000Y-122350000D03*
X186875000Y-138650000D03*
D14*
X189150000Y-122350000D03*
D15*
X189150000Y-124625000D03*
D16*
X189150000Y-130500000D03*
D15*
X189150000Y-136375000D03*
D14*
X189150000Y-138650000D03*
%TD*%
D21*
%TO.C,R58*%
X144500000Y-136825000D03*
X144500000Y-135175000D03*
%TD*%
D26*
%TO.C,U10*%
X201150000Y-75050000D03*
X200500000Y-75050000D03*
X199850000Y-75050000D03*
X199850000Y-76950000D03*
X201150000Y-76950000D03*
%TD*%
D12*
%TO.C,C15*%
X163500000Y-66225000D03*
X163500000Y-67775000D03*
%TD*%
D25*
%TO.C,C79*%
X137725000Y-106500000D03*
X139275000Y-106500000D03*
%TD*%
D12*
%TO.C,C173*%
X182000000Y-131725000D03*
X182000000Y-133275000D03*
%TD*%
D21*
%TO.C,R77*%
X109250000Y-139825000D03*
X109250000Y-138175000D03*
%TD*%
D19*
%TO.C,D17*%
X186000000Y-76787500D03*
X186000000Y-75212500D03*
%TD*%
D12*
%TO.C,C103*%
X185000000Y-111725000D03*
X185000000Y-113275000D03*
%TD*%
D27*
%TO.C,C66*%
X186500000Y-86050000D03*
X186500000Y-89950000D03*
%TD*%
D25*
%TO.C,C117*%
X137725000Y-128010000D03*
X139275000Y-128010000D03*
%TD*%
D11*
%TO.C,R76*%
X105925000Y-138250000D03*
X107575000Y-138250000D03*
%TD*%
D35*
%TO.C,D76*%
X92650000Y-64450000D03*
X83850000Y-64450000D03*
%TD*%
D11*
%TO.C,R38*%
X156175000Y-97000000D03*
X157825000Y-97000000D03*
%TD*%
D12*
%TO.C,C42*%
X143500000Y-86225000D03*
X143500000Y-87775000D03*
%TD*%
%TO.C,C159*%
X142000000Y-71725000D03*
X142000000Y-73275000D03*
%TD*%
%TO.C,C80*%
X142000000Y-106225000D03*
X142000000Y-107775000D03*
%TD*%
D44*
%TO.C,Q1*%
X112125000Y-138050000D03*
X112125000Y-139950000D03*
X114000000Y-139000000D03*
%TD*%
D11*
%TO.C,R53*%
X176175000Y-117000000D03*
X177825000Y-117000000D03*
%TD*%
D12*
%TO.C,C23*%
X163500000Y-71725000D03*
X163500000Y-73275000D03*
%TD*%
D27*
%TO.C,C12*%
X146500000Y-66050000D03*
X146500000Y-69950000D03*
%TD*%
D25*
%TO.C,C20*%
X162225000Y-70000000D03*
X163775000Y-70000000D03*
%TD*%
D12*
%TO.C,C67*%
X185000000Y-91725000D03*
X185000000Y-93275000D03*
%TD*%
D23*
%TO.C,D22*%
X194750000Y-70250000D03*
X194750000Y-72750000D03*
X200250000Y-72750000D03*
X200250000Y-70250000D03*
%TD*%
D45*
%TO.C,F1*%
X126737500Y-80500000D03*
X123762500Y-80500000D03*
%TD*%
D10*
%TO.C,R57*%
X197825000Y-115000000D03*
X196175000Y-115000000D03*
%TD*%
D12*
%TO.C,C24*%
X183500000Y-66225000D03*
X183500000Y-67775000D03*
%TD*%
D34*
%TO.C,C152*%
X121562500Y-79000000D03*
X118437500Y-79000000D03*
%TD*%
D26*
%TO.C,U18*%
X201150000Y-115050000D03*
X200500000Y-115050000D03*
X199850000Y-115050000D03*
X199850000Y-116950000D03*
X201150000Y-116950000D03*
%TD*%
D21*
%TO.C,R61*%
X164500000Y-136825000D03*
X164500000Y-135175000D03*
%TD*%
D23*
%TO.C,D42*%
X134750000Y-110250000D03*
X134750000Y-112750000D03*
X140250000Y-112750000D03*
X140250000Y-110250000D03*
%TD*%
D12*
%TO.C,C174*%
X202000000Y-131725000D03*
X202000000Y-133275000D03*
%TD*%
D19*
%TO.C,D9*%
X146000000Y-76787500D03*
X146000000Y-75212500D03*
%TD*%
D14*
%TO.C,J8*%
X172850000Y-62350000D03*
D15*
X172850000Y-64625000D03*
D16*
X172850000Y-70500000D03*
D15*
X172850000Y-76375000D03*
D14*
X172850000Y-78650000D03*
D17*
X175125000Y-62350000D03*
X175125000Y-78650000D03*
D18*
X181000000Y-62350000D03*
X181000000Y-78650000D03*
D17*
X186875000Y-62350000D03*
X186875000Y-78650000D03*
D14*
X189150000Y-62350000D03*
D15*
X189150000Y-64625000D03*
D16*
X189150000Y-70500000D03*
D15*
X189150000Y-76375000D03*
D14*
X189150000Y-78650000D03*
%TD*%
D20*
%TO.C,L3*%
X174050000Y-74675000D03*
X174050000Y-75325000D03*
X174950000Y-75325000D03*
X174950000Y-74675000D03*
%TD*%
D13*
%TO.C,C157*%
X80750000Y-81925000D03*
X80750000Y-78975000D03*
%TD*%
D12*
%TO.C,C105*%
X203500000Y-106225000D03*
X203500000Y-107775000D03*
%TD*%
D23*
%TO.C,D30*%
X154750000Y-90250000D03*
X154750000Y-92750000D03*
X160250000Y-92750000D03*
X160250000Y-90250000D03*
%TD*%
D19*
%TO.C,D25*%
X146000000Y-96787500D03*
X146000000Y-95212500D03*
%TD*%
D12*
%TO.C,C113*%
X203500000Y-111725000D03*
X203500000Y-113275000D03*
%TD*%
D10*
%TO.C,R63*%
X157825000Y-135000000D03*
X156175000Y-135000000D03*
%TD*%
D27*
%TO.C,C147*%
X206500000Y-126050000D03*
X206500000Y-129950000D03*
%TD*%
D23*
%TO.C,D50*%
X174750000Y-110250000D03*
X174750000Y-112750000D03*
X180250000Y-112750000D03*
X180250000Y-110250000D03*
%TD*%
D19*
%TO.C,D45*%
X166000000Y-116787500D03*
X166000000Y-115212500D03*
%TD*%
%TO.C,D33*%
X186000000Y-96787500D03*
X186000000Y-95212500D03*
%TD*%
D12*
%TO.C,C132*%
X183500000Y-126225000D03*
X183500000Y-127775000D03*
%TD*%
%TO.C,C89*%
X162000000Y-106225000D03*
X162000000Y-107775000D03*
%TD*%
D22*
%TO.C,TR16*%
X174650000Y-127500000D03*
X175500000Y-127500000D03*
X176350000Y-127500000D03*
X176350000Y-124500000D03*
X175500000Y-124500000D03*
X174650000Y-124500000D03*
%TD*%
D14*
%TO.C,J15*%
X152850000Y-102350000D03*
D15*
X152850000Y-104625000D03*
D16*
X152850000Y-110500000D03*
D15*
X152850000Y-116375000D03*
D14*
X152850000Y-118650000D03*
D17*
X155125000Y-102350000D03*
X155125000Y-118650000D03*
D18*
X161000000Y-102350000D03*
X161000000Y-118650000D03*
D17*
X166875000Y-102350000D03*
X166875000Y-118650000D03*
D14*
X169150000Y-102350000D03*
D15*
X169150000Y-104625000D03*
D16*
X169150000Y-110500000D03*
D15*
X169150000Y-116375000D03*
D14*
X169150000Y-118650000D03*
%TD*%
D27*
%TO.C,C21*%
X166500000Y-66050000D03*
X166500000Y-69950000D03*
%TD*%
D20*
%TO.C,L15*%
X174050000Y-134675000D03*
X174050000Y-135325000D03*
X174950000Y-135325000D03*
X174950000Y-134675000D03*
%TD*%
D12*
%TO.C,C122*%
X143500000Y-131725000D03*
X143500000Y-133275000D03*
%TD*%
%TO.C,C49*%
X145000000Y-91725000D03*
X145000000Y-93275000D03*
%TD*%
D20*
%TO.C,L10*%
X154050000Y-114675000D03*
X154050000Y-115325000D03*
X154950000Y-115325000D03*
X154950000Y-114675000D03*
%TD*%
D26*
%TO.C,U14*%
X201150000Y-95050000D03*
X200500000Y-95050000D03*
X199850000Y-95050000D03*
X199850000Y-96950000D03*
X201150000Y-96950000D03*
%TD*%
D12*
%TO.C,C40*%
X205000000Y-71725000D03*
X205000000Y-73275000D03*
%TD*%
D20*
%TO.C,L14*%
X154050000Y-134675000D03*
X154050000Y-135325000D03*
X154950000Y-135325000D03*
X154950000Y-134675000D03*
%TD*%
D12*
%TO.C,C109*%
X203000000Y-115225000D03*
X203000000Y-116775000D03*
%TD*%
%TO.C,C172*%
X162000000Y-131725000D03*
X162000000Y-133275000D03*
%TD*%
D19*
%TO.C,D69*%
X206000000Y-136787500D03*
X206000000Y-135212500D03*
%TD*%
D39*
%TO.C,C5*%
X114750000Y-115525000D03*
X114750000Y-113975000D03*
%TD*%
D46*
%TO.C,SW1*%
X95815000Y-124460000D03*
X95815000Y-127000000D03*
X95815000Y-129540000D03*
X95815000Y-132080000D03*
X104715000Y-132080000D03*
X104715000Y-129540000D03*
X104715000Y-127000000D03*
X104715000Y-124460000D03*
%TD*%
D11*
%TO.C,R68*%
X196175000Y-137000000D03*
X197825000Y-137000000D03*
%TD*%
D12*
%TO.C,C64*%
X183000000Y-95225000D03*
X183000000Y-96775000D03*
%TD*%
D20*
%TO.C,L12*%
X194050000Y-114675000D03*
X194050000Y-115325000D03*
X194950000Y-115325000D03*
X194950000Y-114675000D03*
%TD*%
D27*
%TO.C,C75*%
X206500000Y-86050000D03*
X206500000Y-89950000D03*
%TD*%
D26*
%TO.C,U20*%
X161150000Y-135050000D03*
X160500000Y-135050000D03*
X159850000Y-135050000D03*
X159850000Y-136950000D03*
X161150000Y-136950000D03*
%TD*%
D10*
%TO.C,R24*%
X137825000Y-75000000D03*
X136175000Y-75000000D03*
%TD*%
D19*
%TO.C,D53*%
X206000000Y-116787500D03*
X206000000Y-115212500D03*
%TD*%
D25*
%TO.C,C1*%
X112475000Y-100250000D03*
X114025000Y-100250000D03*
%TD*%
D21*
%TO.C,R46*%
X144500000Y-116825000D03*
X144500000Y-115175000D03*
%TD*%
D12*
%TO.C,C32*%
X183500000Y-71725000D03*
X183500000Y-73275000D03*
%TD*%
D25*
%TO.C,C128*%
X162225000Y-130000000D03*
X163775000Y-130000000D03*
%TD*%
%TO.C,C54*%
X157725000Y-88010000D03*
X159275000Y-88010000D03*
%TD*%
D19*
%TO.C,D21*%
X206000000Y-76787500D03*
X206000000Y-75212500D03*
%TD*%
D25*
%TO.C,C16*%
X157725000Y-66500000D03*
X159275000Y-66500000D03*
%TD*%
D14*
%TO.C,J13*%
X192850000Y-82350000D03*
D15*
X192850000Y-84625000D03*
D16*
X192850000Y-90500000D03*
D15*
X192850000Y-96375000D03*
D14*
X192850000Y-98650000D03*
D17*
X195125000Y-82350000D03*
X195125000Y-98650000D03*
D18*
X201000000Y-82350000D03*
X201000000Y-98650000D03*
D17*
X206875000Y-82350000D03*
X206875000Y-98650000D03*
D14*
X209150000Y-82350000D03*
D15*
X209150000Y-84625000D03*
D16*
X209150000Y-90500000D03*
D15*
X209150000Y-96375000D03*
D14*
X209150000Y-98650000D03*
%TD*%
D21*
%TO.C,R11*%
X106765000Y-131095000D03*
X106765000Y-129445000D03*
%TD*%
D25*
%TO.C,C133*%
X177725000Y-126500000D03*
X179275000Y-126500000D03*
%TD*%
D11*
%TO.C,R62*%
X156175000Y-137000000D03*
X157825000Y-137000000D03*
%TD*%
%TO.C,R56*%
X196175000Y-117000000D03*
X197825000Y-117000000D03*
%TD*%
D30*
%TO.C,R13*%
X106750000Y-123175000D03*
X106750000Y-124825000D03*
%TD*%
D12*
%TO.C,C50*%
X143500000Y-91725000D03*
X143500000Y-93275000D03*
%TD*%
D11*
%TO.C,R50*%
X156175000Y-117000000D03*
X157825000Y-117000000D03*
%TD*%
D12*
%TO.C,C104*%
X183500000Y-111725000D03*
X183500000Y-113275000D03*
%TD*%
D27*
%TO.C,C120*%
X146500000Y-126050000D03*
X146500000Y-129950000D03*
%TD*%
D11*
%TO.C,R9*%
X89675000Y-134000000D03*
X91325000Y-134000000D03*
%TD*%
D10*
%TO.C,R8*%
X87575000Y-120250000D03*
X85925000Y-120250000D03*
%TD*%
D12*
%TO.C,C160*%
X162000000Y-71725000D03*
X162000000Y-73275000D03*
%TD*%
%TO.C,C77*%
X203500000Y-91725000D03*
X203500000Y-93275000D03*
%TD*%
D22*
%TO.C,TR2*%
X134650000Y-67500000D03*
X135500000Y-67500000D03*
X136350000Y-67500000D03*
X136350000Y-64500000D03*
X135500000Y-64500000D03*
X134650000Y-64500000D03*
%TD*%
D12*
%TO.C,C171*%
X142000000Y-131725000D03*
X142000000Y-133275000D03*
%TD*%
D22*
%TO.C,TR4*%
X174650000Y-67500000D03*
X175500000Y-67500000D03*
X176350000Y-67500000D03*
X176350000Y-64500000D03*
X175500000Y-64500000D03*
X174650000Y-64500000D03*
%TD*%
D27*
%TO.C,C138*%
X186500000Y-126050000D03*
X186500000Y-129950000D03*
%TD*%
D47*
%TO.C,C156*%
X83250000Y-69725000D03*
X83250000Y-72675000D03*
%TD*%
D26*
%TO.C,U21*%
X181150000Y-135050000D03*
X180500000Y-135050000D03*
X179850000Y-135050000D03*
X179850000Y-136950000D03*
X181150000Y-136950000D03*
%TD*%
D22*
%TO.C,TR14*%
X134650000Y-127500000D03*
X135500000Y-127500000D03*
X136350000Y-127500000D03*
X136350000Y-124500000D03*
X135500000Y-124500000D03*
X134650000Y-124500000D03*
%TD*%
D25*
%TO.C,C119*%
X142225000Y-130000000D03*
X143775000Y-130000000D03*
%TD*%
D12*
%TO.C,C78*%
X143500000Y-106225000D03*
X143500000Y-107775000D03*
%TD*%
D14*
%TO.C,J6*%
X132850000Y-62350000D03*
D15*
X132850000Y-64625000D03*
D16*
X132850000Y-70500000D03*
D15*
X132850000Y-76375000D03*
D14*
X132850000Y-78650000D03*
D17*
X135125000Y-62350000D03*
X135125000Y-78650000D03*
D18*
X141000000Y-62350000D03*
X141000000Y-78650000D03*
D17*
X146875000Y-62350000D03*
X146875000Y-78650000D03*
D14*
X149150000Y-62350000D03*
D15*
X149150000Y-64625000D03*
D16*
X149150000Y-70500000D03*
D15*
X149150000Y-76375000D03*
D14*
X149150000Y-78650000D03*
%TD*%
D19*
%TO.C,D41*%
X146000000Y-116787500D03*
X146000000Y-115212500D03*
%TD*%
D25*
%TO.C,C115*%
X137725000Y-126500000D03*
X139275000Y-126500000D03*
%TD*%
D23*
%TO.C,D14*%
X154750000Y-70250000D03*
X154750000Y-72750000D03*
X160250000Y-72750000D03*
X160250000Y-70250000D03*
%TD*%
D26*
%TO.C,U16*%
X161150000Y-115050000D03*
X160500000Y-115050000D03*
X159850000Y-115050000D03*
X159850000Y-116950000D03*
X161150000Y-116950000D03*
%TD*%
D21*
%TO.C,R18*%
X123000000Y-127825000D03*
X123000000Y-126175000D03*
%TD*%
D37*
%TO.C,U24*%
X87500000Y-69400000D03*
X87500000Y-71700000D03*
D38*
X93800000Y-71700000D03*
D37*
X87500000Y-74000000D03*
%TD*%
D34*
%TO.C,C151*%
X121562500Y-76000000D03*
X118437500Y-76000000D03*
%TD*%
D23*
%TO.C,D18*%
X174750000Y-70250000D03*
X174750000Y-72750000D03*
X180250000Y-72750000D03*
X180250000Y-70250000D03*
%TD*%
D12*
%TO.C,C51*%
X163500000Y-86225000D03*
X163500000Y-87775000D03*
%TD*%
%TO.C,C13*%
X145000000Y-71725000D03*
X145000000Y-73275000D03*
%TD*%
D22*
%TO.C,TR8*%
X174650000Y-87500000D03*
X175500000Y-87500000D03*
X176350000Y-87500000D03*
X176350000Y-84500000D03*
X175500000Y-84500000D03*
X174650000Y-84500000D03*
%TD*%
D48*
%TO.C,U5*%
X126250000Y-115450000D03*
X126250000Y-114180000D03*
X126250000Y-112910000D03*
X126250000Y-111640000D03*
X126250000Y-110370000D03*
X126250000Y-109100000D03*
X126250000Y-107830000D03*
X126250000Y-106560000D03*
X126250000Y-105290000D03*
X126250000Y-104020000D03*
X126250000Y-102750000D03*
X126250000Y-101480000D03*
X116950000Y-101480000D03*
X116950000Y-102750000D03*
X116950000Y-104020000D03*
X116950000Y-105290000D03*
X116950000Y-106560000D03*
X116950000Y-107830000D03*
X116950000Y-109100000D03*
X116950000Y-110370000D03*
X116950000Y-111640000D03*
X116950000Y-112910000D03*
X116950000Y-114180000D03*
X116950000Y-115450000D03*
%TD*%
D23*
%TO.C,D58*%
X134750000Y-130250000D03*
X134750000Y-132750000D03*
X140250000Y-132750000D03*
X140250000Y-130250000D03*
%TD*%
D25*
%TO.C,C38*%
X202225000Y-70000000D03*
X203775000Y-70000000D03*
%TD*%
D33*
%TO.C,D7*%
X126495000Y-123212500D03*
X126495000Y-124787500D03*
%TD*%
D27*
%TO.C,C48*%
X146500000Y-86050000D03*
X146500000Y-89950000D03*
%TD*%
D20*
%TO.C,L8*%
X194050000Y-94675000D03*
X194050000Y-95325000D03*
X194950000Y-95325000D03*
X194950000Y-94675000D03*
%TD*%
D23*
%TO.C,D62*%
X154750000Y-130250000D03*
X154750000Y-132750000D03*
X160250000Y-132750000D03*
X160250000Y-130250000D03*
%TD*%
D12*
%TO.C,C41*%
X203500000Y-71725000D03*
X203500000Y-73275000D03*
%TD*%
D25*
%TO.C,C7*%
X137725000Y-66500000D03*
X139275000Y-66500000D03*
%TD*%
D21*
%TO.C,R52*%
X184500000Y-116825000D03*
X184500000Y-115175000D03*
%TD*%
D25*
%TO.C,C25*%
X177725000Y-66500000D03*
X179275000Y-66500000D03*
%TD*%
D26*
%TO.C,U8*%
X161150000Y-75050000D03*
X160500000Y-75050000D03*
X159850000Y-75050000D03*
X159850000Y-76950000D03*
X161150000Y-76950000D03*
%TD*%
D11*
%TO.C,R29*%
X176175000Y-77000000D03*
X177825000Y-77000000D03*
%TD*%
D25*
%TO.C,C126*%
X157725000Y-128010000D03*
X159275000Y-128010000D03*
%TD*%
D23*
%TO.C,D66*%
X174750000Y-130250000D03*
X174750000Y-132750000D03*
X180250000Y-132750000D03*
X180250000Y-130250000D03*
%TD*%
D11*
%TO.C,R41*%
X176175000Y-97000000D03*
X177825000Y-97000000D03*
%TD*%
D25*
%TO.C,C124*%
X157725000Y-126500000D03*
X159275000Y-126500000D03*
%TD*%
%TO.C,C18*%
X157725000Y-68010000D03*
X159275000Y-68010000D03*
%TD*%
D19*
%TO.C,D13*%
X166000000Y-76787500D03*
X166000000Y-75212500D03*
%TD*%
D12*
%TO.C,C69*%
X203500000Y-86225000D03*
X203500000Y-87775000D03*
%TD*%
D14*
%TO.C,J14*%
X132850000Y-102350000D03*
D15*
X132850000Y-104625000D03*
D16*
X132850000Y-110500000D03*
D15*
X132850000Y-116375000D03*
D14*
X132850000Y-118650000D03*
D17*
X135125000Y-102350000D03*
X135125000Y-118650000D03*
D18*
X141000000Y-102350000D03*
X141000000Y-118650000D03*
D17*
X146875000Y-102350000D03*
X146875000Y-118650000D03*
D14*
X149150000Y-102350000D03*
D15*
X149150000Y-104625000D03*
D16*
X149150000Y-110500000D03*
D15*
X149150000Y-116375000D03*
D14*
X149150000Y-118650000D03*
%TD*%
D26*
%TO.C,U17*%
X181150000Y-115050000D03*
X180500000Y-115050000D03*
X179850000Y-115050000D03*
X179850000Y-116950000D03*
X181150000Y-116950000D03*
%TD*%
D11*
%TO.C,R23*%
X136175000Y-77000000D03*
X137825000Y-77000000D03*
%TD*%
D14*
%TO.C,J18*%
X132850000Y-122350000D03*
D15*
X132850000Y-124625000D03*
D16*
X132850000Y-130500000D03*
D15*
X132850000Y-136375000D03*
D14*
X132850000Y-138650000D03*
D17*
X135125000Y-122350000D03*
X135125000Y-138650000D03*
D18*
X141000000Y-122350000D03*
X141000000Y-138650000D03*
D17*
X146875000Y-122350000D03*
X146875000Y-138650000D03*
D14*
X149150000Y-122350000D03*
D15*
X149150000Y-124625000D03*
D16*
X149150000Y-130500000D03*
D15*
X149150000Y-136375000D03*
D14*
X149150000Y-138650000D03*
%TD*%
D23*
%TO.C,D46*%
X154750000Y-110250000D03*
X154750000Y-112750000D03*
X160250000Y-112750000D03*
X160250000Y-110250000D03*
%TD*%
D21*
%TO.C,R67*%
X204500000Y-136825000D03*
X204500000Y-135175000D03*
%TD*%
%TO.C,R21*%
X128250000Y-127825000D03*
X128250000Y-126175000D03*
%TD*%
D12*
%TO.C,C22*%
X165000000Y-71725000D03*
X165000000Y-73275000D03*
%TD*%
D25*
%TO.C,C3*%
X116700000Y-137250000D03*
X118250000Y-137250000D03*
%TD*%
D27*
%TO.C,C111*%
X206500000Y-106050000D03*
X206500000Y-109950000D03*
%TD*%
D31*
%TO.C,U2*%
X91235000Y-100690000D03*
X91235000Y-103230000D03*
X91235000Y-105770000D03*
X91235000Y-108310000D03*
X100765000Y-108310000D03*
X100765000Y-105770000D03*
X100765000Y-103230000D03*
X100765000Y-100690000D03*
%TD*%
D49*
%TO.C,D74*%
X120500000Y-82250000D03*
X116500000Y-82250000D03*
%TD*%
D11*
%TO.C,R1*%
X90925000Y-98250000D03*
X92575000Y-98250000D03*
%TD*%
D19*
%TO.C,D49*%
X186000000Y-116787500D03*
X186000000Y-115212500D03*
%TD*%
D23*
%TO.C,D38*%
X194750000Y-90250000D03*
X194750000Y-92750000D03*
X200250000Y-92750000D03*
X200250000Y-90250000D03*
%TD*%
D27*
%TO.C,C102*%
X186500000Y-106050000D03*
X186500000Y-109950000D03*
%TD*%
D20*
%TO.C,L13*%
X134050000Y-134675000D03*
X134050000Y-135325000D03*
X134950000Y-135325000D03*
X134950000Y-134675000D03*
%TD*%
D12*
%TO.C,C121*%
X145000000Y-131725000D03*
X145000000Y-133275000D03*
%TD*%
D25*
%TO.C,C81*%
X137725000Y-108010000D03*
X139275000Y-108010000D03*
%TD*%
D19*
%TO.C,D57*%
X146000000Y-136787500D03*
X146000000Y-135212500D03*
%TD*%
D11*
%TO.C,R4*%
X90925000Y-96500000D03*
X92575000Y-96500000D03*
%TD*%
D12*
%TO.C,C6*%
X143500000Y-66225000D03*
X143500000Y-67775000D03*
%TD*%
D23*
%TO.C,D26*%
X134750000Y-90250000D03*
X134750000Y-92750000D03*
X140250000Y-92750000D03*
X140250000Y-90250000D03*
%TD*%
D50*
%TO.C,D73*%
X116500000Y-86000000D03*
X120500000Y-86000000D03*
%TD*%
M02*
