%TF.GenerationSoftware,KiCad,Pcbnew,8.0.5*%
%TF.CreationDate,2024-12-21T13:32:31-05:00*%
%TF.ProjectId,coil_tune_switch,636f696c-5f74-4756-9e65-5f7377697463,rev?*%
%TF.SameCoordinates,Original*%
%TF.FileFunction,Soldermask,Bot*%
%TF.FilePolarity,Negative*%
%FSLAX46Y46*%
G04 Gerber Fmt 4.6, Leading zero omitted, Abs format (unit mm)*
G04 Created by KiCad (PCBNEW 8.0.5) date 2024-12-21 13:32:31*
%MOMM*%
%LPD*%
G01*
G04 APERTURE LIST*
G04 Aperture macros list*
%AMRoundRect*
0 Rectangle with rounded corners*
0 $1 Rounding radius*
0 $2 $3 $4 $5 $6 $7 $8 $9 X,Y pos of 4 corners*
0 Add a 4 corners polygon primitive as box body*
4,1,4,$2,$3,$4,$5,$6,$7,$8,$9,$2,$3,0*
0 Add four circle primitives for the rounded corners*
1,1,$1+$1,$2,$3*
1,1,$1+$1,$4,$5*
1,1,$1+$1,$6,$7*
1,1,$1+$1,$8,$9*
0 Add four rect primitives between the rounded corners*
20,1,$1+$1,$2,$3,$4,$5,0*
20,1,$1+$1,$4,$5,$6,$7,0*
20,1,$1+$1,$6,$7,$8,$9,0*
20,1,$1+$1,$8,$9,$2,$3,0*%
G04 Aperture macros list end*
%ADD10C,3.000000*%
%ADD11C,3.250000*%
%ADD12R,1.500000X1.500000*%
%ADD13C,1.500000*%
%ADD14C,2.300000*%
%ADD15C,1.400000*%
%ADD16R,2.400000X2.400000*%
%ADD17C,2.400000*%
%ADD18C,1.000000*%
%ADD19RoundRect,0.250000X-1.600000X0.425000X-1.600000X-0.425000X1.600000X-0.425000X1.600000X0.425000X0*%
%ADD20RoundRect,0.250000X-0.600000X-0.600000X0.600000X-0.600000X0.600000X0.600000X-0.600000X0.600000X0*%
%ADD21C,1.700000*%
%ADD22R,1.700000X1.700000*%
%ADD23O,1.700000X1.700000*%
%ADD24R,2.600000X2.600000*%
%ADD25C,2.600000*%
%ADD26RoundRect,0.200000X-0.200000X-0.275000X0.200000X-0.275000X0.200000X0.275000X-0.200000X0.275000X0*%
%ADD27RoundRect,0.200000X-0.275000X0.200000X-0.275000X-0.200000X0.275000X-0.200000X0.275000X0.200000X0*%
G04 APERTURE END LIST*
D10*
X80500000Y-60000000D02*
G75*
G02*
X77500000Y-60000000I-1500000J0D01*
G01*
X77500000Y-60000000D02*
G75*
G02*
X80500000Y-60000000I1500000J0D01*
G01*
X217500000Y-60000000D02*
G75*
G02*
X214500000Y-60000000I-1500000J0D01*
G01*
X214500000Y-60000000D02*
G75*
G02*
X217500000Y-60000000I1500000J0D01*
G01*
X217500000Y-141000000D02*
G75*
G02*
X214500000Y-141000000I-1500000J0D01*
G01*
X214500000Y-141000000D02*
G75*
G02*
X217500000Y-141000000I1500000J0D01*
G01*
X80500000Y-141000000D02*
G75*
G02*
X77500000Y-141000000I-1500000J0D01*
G01*
X77500000Y-141000000D02*
G75*
G02*
X80500000Y-141000000I1500000J0D01*
G01*
D11*
%TO.C,J23*%
X78610000Y-106530000D03*
X78610000Y-93830000D03*
D12*
X81150000Y-103740000D03*
D13*
X82930000Y-102724000D03*
X81150000Y-101708000D03*
X82930000Y-100692000D03*
X81150000Y-99676000D03*
X82930000Y-98660000D03*
X81150000Y-97644000D03*
X82930000Y-96628000D03*
X87750000Y-107040000D03*
X87750000Y-104750000D03*
X87750000Y-95610000D03*
X87750000Y-93320000D03*
D14*
X82040000Y-108310000D03*
X82040000Y-92050000D03*
%TD*%
D15*
%TO.C,TP7*%
X128250000Y-75750000D03*
X128250000Y-73750000D03*
%TD*%
%TO.C,TP4*%
X105765000Y-108270000D03*
X105765000Y-106270000D03*
%TD*%
D16*
%TO.C,C154*%
X104000000Y-65487246D03*
D17*
X104000000Y-72987246D03*
%TD*%
D18*
%TO.C,TP6*%
X113250000Y-111750000D03*
%TD*%
D15*
%TO.C,TP3*%
X110000000Y-113500000D03*
X110000000Y-115500000D03*
%TD*%
D16*
%TO.C,C153*%
X104000000Y-90262755D03*
D17*
X104000000Y-82762755D03*
%TD*%
D19*
%TO.C,J4*%
X77412500Y-119825000D03*
X77412500Y-114175000D03*
%TD*%
D20*
%TO.C,J5*%
X215500000Y-80180000D03*
D21*
X218040000Y-80180000D03*
X215500000Y-82720000D03*
X218040000Y-82720000D03*
X215500000Y-85260000D03*
X218040000Y-85260000D03*
X215500000Y-87800000D03*
X218040000Y-87800000D03*
X215500000Y-90340000D03*
X218040000Y-90340000D03*
X215500000Y-92880000D03*
X218040000Y-92880000D03*
X215500000Y-95420000D03*
X218040000Y-95420000D03*
X215500000Y-97960000D03*
X218040000Y-97960000D03*
X215500000Y-100500000D03*
X218040000Y-100500000D03*
X215500000Y-103040000D03*
X218040000Y-103040000D03*
X215500000Y-105580000D03*
X218040000Y-105580000D03*
X215500000Y-108120000D03*
X218040000Y-108120000D03*
X215500000Y-110660000D03*
X218040000Y-110660000D03*
X215500000Y-113200000D03*
X218040000Y-113200000D03*
X215500000Y-115740000D03*
X218040000Y-115740000D03*
X215500000Y-118280000D03*
X218040000Y-118280000D03*
X215500000Y-120820000D03*
X218040000Y-120820000D03*
%TD*%
D15*
%TO.C,TP8*%
X111750000Y-77500000D03*
X111750000Y-75500000D03*
%TD*%
%TO.C,TP12*%
X80000000Y-64500000D03*
X80000000Y-66500000D03*
%TD*%
%TO.C,TP9*%
X113500000Y-89250000D03*
X113500000Y-91250000D03*
%TD*%
%TO.C,TP5*%
X105750000Y-115500000D03*
X105750000Y-113500000D03*
%TD*%
D19*
%TO.C,J3*%
X77412500Y-135825000D03*
X77412500Y-130175000D03*
%TD*%
D15*
%TO.C,TP11*%
X96750000Y-79000000D03*
X96750000Y-77000000D03*
%TD*%
D22*
%TO.C,J2*%
X108275000Y-98750000D03*
D23*
X105735000Y-98750000D03*
%TD*%
D15*
%TO.C,TP10*%
X113500000Y-81750000D03*
X113500000Y-83750000D03*
%TD*%
D24*
%TO.C,J22*%
X123750000Y-70200000D03*
D25*
X123750000Y-64200000D03*
X119050000Y-67200000D03*
%TD*%
D26*
%TO.C,R80*%
X125425000Y-133250000D03*
X127075000Y-133250000D03*
%TD*%
D27*
%TO.C,R79*%
X128500000Y-133175000D03*
X128500000Y-134825000D03*
%TD*%
%TO.C,R78*%
X124000000Y-133175000D03*
X124000000Y-134825000D03*
%TD*%
M02*
