M48
; DRILL file {KiCad 8.0.5} date 2024-10-25T13:16:14-0400
; FORMAT={-:-/ absolute / inch / decimal}
; #@! TF.CreationDate,2024-10-25T13:16:14-04:00
; #@! TF.GenerationSoftware,Kicad,Pcbnew,8.0.5
; #@! TF.FileFunction,MixedPlating,1,4
FMAT,2
INCH
; #@! TA.AperFunction,Plated,PTH,ViaDrill
T1C0.0118
; #@! TA.AperFunction,Plated,PTH,ComponentDrill
T2C0.0394
%
G90
G05
T1
X5.248Y-3.7677
X5.248Y-4.122
X5.3228Y-3.7244
X5.3228Y-4.0787
X5.3268Y-3.6614
X5.3268Y-4.0157
X5.3445Y-3.815
X5.3445Y-4.1693
X5.4193Y-3.815
X5.4193Y-4.1693
X5.4449Y-3.689
X5.4449Y-4.0433
X5.4567Y-3.8071
X5.4567Y-4.1614
X5.4646Y-3.7165
X5.4646Y-4.0709
X5.6024Y-4.4764
X5.6102Y-3.7795
X5.6361Y-3.8732
X5.6693Y-3.75
X5.6693Y-3.9469
X5.6772Y-4.4331
X5.6807Y-3.7944
X5.6811Y-4.3701
X5.6978Y-3.7324
X5.6988Y-4.5236
X5.7399Y-3.7383
X5.7677Y-3.9469
X5.7749Y-4.5187
X5.7874Y-3.7992
X5.7972Y-3.878
X5.7992Y-4.3976
X5.811Y-4.5157
X5.8189Y-4.4252
X5.9567Y-3.7677
X5.9567Y-4.122
X6.0315Y-3.7244
X6.0315Y-4.0787
X6.0354Y-3.6614
X6.0354Y-4.0157
X6.0531Y-3.815
X6.0531Y-4.1693
X6.128Y-3.815
X6.128Y-4.1693
X6.1535Y-3.689
X6.1535Y-4.0433
X6.1654Y-3.8071
X6.1654Y-4.1614
X6.1732Y-3.7165
X6.1732Y-4.0709
T2
X4.8455Y-5.5707
X4.8455Y-5.6707
X4.8455Y-5.7707
X4.8455Y-5.8707
M30
