%TF.GenerationSoftware,KiCad,Pcbnew,8.0.5*%
%TF.CreationDate,2024-10-25T13:17:06-04:00*%
%TF.ProjectId,96wp_coils,39367770-5f63-46f6-996c-732e6b696361,rev?*%
%TF.SameCoordinates,Original*%
%TF.FileFunction,Legend,Bot*%
%TF.FilePolarity,Positive*%
%FSLAX46Y46*%
G04 Gerber Fmt 4.6, Leading zero omitted, Abs format (unit mm)*
G04 Created by KiCad (PCBNEW 8.0.5) date 2024-10-25 13:17:06*
%MOMM*%
%LPD*%
G01*
G04 APERTURE LIST*
%ADD10C,0.150000*%
%ADD11C,0.100000*%
%ADD12C,0.120000*%
G04 APERTURE END LIST*
D10*
X137789580Y-102882142D02*
X137837200Y-102834523D01*
X137837200Y-102834523D02*
X137884819Y-102691666D01*
X137884819Y-102691666D02*
X137884819Y-102596428D01*
X137884819Y-102596428D02*
X137837200Y-102453571D01*
X137837200Y-102453571D02*
X137741961Y-102358333D01*
X137741961Y-102358333D02*
X137646723Y-102310714D01*
X137646723Y-102310714D02*
X137456247Y-102263095D01*
X137456247Y-102263095D02*
X137313390Y-102263095D01*
X137313390Y-102263095D02*
X137122914Y-102310714D01*
X137122914Y-102310714D02*
X137027676Y-102358333D01*
X137027676Y-102358333D02*
X136932438Y-102453571D01*
X136932438Y-102453571D02*
X136884819Y-102596428D01*
X136884819Y-102596428D02*
X136884819Y-102691666D01*
X136884819Y-102691666D02*
X136932438Y-102834523D01*
X136932438Y-102834523D02*
X136980057Y-102882142D01*
X137884819Y-103834523D02*
X137884819Y-103263095D01*
X137884819Y-103548809D02*
X136884819Y-103548809D01*
X136884819Y-103548809D02*
X137027676Y-103453571D01*
X137027676Y-103453571D02*
X137122914Y-103358333D01*
X137122914Y-103358333D02*
X137170533Y-103263095D01*
X136884819Y-104167857D02*
X136884819Y-104834523D01*
X136884819Y-104834523D02*
X137884819Y-104405952D01*
X157289580Y-91333333D02*
X157337200Y-91285714D01*
X157337200Y-91285714D02*
X157384819Y-91142857D01*
X157384819Y-91142857D02*
X157384819Y-91047619D01*
X157384819Y-91047619D02*
X157337200Y-90904762D01*
X157337200Y-90904762D02*
X157241961Y-90809524D01*
X157241961Y-90809524D02*
X157146723Y-90761905D01*
X157146723Y-90761905D02*
X156956247Y-90714286D01*
X156956247Y-90714286D02*
X156813390Y-90714286D01*
X156813390Y-90714286D02*
X156622914Y-90761905D01*
X156622914Y-90761905D02*
X156527676Y-90809524D01*
X156527676Y-90809524D02*
X156432438Y-90904762D01*
X156432438Y-90904762D02*
X156384819Y-91047619D01*
X156384819Y-91047619D02*
X156384819Y-91142857D01*
X156384819Y-91142857D02*
X156432438Y-91285714D01*
X156432438Y-91285714D02*
X156480057Y-91333333D01*
X156813390Y-91904762D02*
X156765771Y-91809524D01*
X156765771Y-91809524D02*
X156718152Y-91761905D01*
X156718152Y-91761905D02*
X156622914Y-91714286D01*
X156622914Y-91714286D02*
X156575295Y-91714286D01*
X156575295Y-91714286D02*
X156480057Y-91761905D01*
X156480057Y-91761905D02*
X156432438Y-91809524D01*
X156432438Y-91809524D02*
X156384819Y-91904762D01*
X156384819Y-91904762D02*
X156384819Y-92095238D01*
X156384819Y-92095238D02*
X156432438Y-92190476D01*
X156432438Y-92190476D02*
X156480057Y-92238095D01*
X156480057Y-92238095D02*
X156575295Y-92285714D01*
X156575295Y-92285714D02*
X156622914Y-92285714D01*
X156622914Y-92285714D02*
X156718152Y-92238095D01*
X156718152Y-92238095D02*
X156765771Y-92190476D01*
X156765771Y-92190476D02*
X156813390Y-92095238D01*
X156813390Y-92095238D02*
X156813390Y-91904762D01*
X156813390Y-91904762D02*
X156861009Y-91809524D01*
X156861009Y-91809524D02*
X156908628Y-91761905D01*
X156908628Y-91761905D02*
X157003866Y-91714286D01*
X157003866Y-91714286D02*
X157194342Y-91714286D01*
X157194342Y-91714286D02*
X157289580Y-91761905D01*
X157289580Y-91761905D02*
X157337200Y-91809524D01*
X157337200Y-91809524D02*
X157384819Y-91904762D01*
X157384819Y-91904762D02*
X157384819Y-92095238D01*
X157384819Y-92095238D02*
X157337200Y-92190476D01*
X157337200Y-92190476D02*
X157289580Y-92238095D01*
X157289580Y-92238095D02*
X157194342Y-92285714D01*
X157194342Y-92285714D02*
X157003866Y-92285714D01*
X157003866Y-92285714D02*
X156908628Y-92238095D01*
X156908628Y-92238095D02*
X156861009Y-92190476D01*
X156861009Y-92190476D02*
X156813390Y-92095238D01*
X139289580Y-91333333D02*
X139337200Y-91285714D01*
X139337200Y-91285714D02*
X139384819Y-91142857D01*
X139384819Y-91142857D02*
X139384819Y-91047619D01*
X139384819Y-91047619D02*
X139337200Y-90904762D01*
X139337200Y-90904762D02*
X139241961Y-90809524D01*
X139241961Y-90809524D02*
X139146723Y-90761905D01*
X139146723Y-90761905D02*
X138956247Y-90714286D01*
X138956247Y-90714286D02*
X138813390Y-90714286D01*
X138813390Y-90714286D02*
X138622914Y-90761905D01*
X138622914Y-90761905D02*
X138527676Y-90809524D01*
X138527676Y-90809524D02*
X138432438Y-90904762D01*
X138432438Y-90904762D02*
X138384819Y-91047619D01*
X138384819Y-91047619D02*
X138384819Y-91142857D01*
X138384819Y-91142857D02*
X138432438Y-91285714D01*
X138432438Y-91285714D02*
X138480057Y-91333333D01*
X138384819Y-92238095D02*
X138384819Y-91761905D01*
X138384819Y-91761905D02*
X138861009Y-91714286D01*
X138861009Y-91714286D02*
X138813390Y-91761905D01*
X138813390Y-91761905D02*
X138765771Y-91857143D01*
X138765771Y-91857143D02*
X138765771Y-92095238D01*
X138765771Y-92095238D02*
X138813390Y-92190476D01*
X138813390Y-92190476D02*
X138861009Y-92238095D01*
X138861009Y-92238095D02*
X138956247Y-92285714D01*
X138956247Y-92285714D02*
X139194342Y-92285714D01*
X139194342Y-92285714D02*
X139289580Y-92238095D01*
X139289580Y-92238095D02*
X139337200Y-92190476D01*
X139337200Y-92190476D02*
X139384819Y-92095238D01*
X139384819Y-92095238D02*
X139384819Y-91857143D01*
X139384819Y-91857143D02*
X139337200Y-91761905D01*
X139337200Y-91761905D02*
X139289580Y-91714286D01*
X134929580Y-94333333D02*
X134977200Y-94285714D01*
X134977200Y-94285714D02*
X135024819Y-94142857D01*
X135024819Y-94142857D02*
X135024819Y-94047619D01*
X135024819Y-94047619D02*
X134977200Y-93904762D01*
X134977200Y-93904762D02*
X134881961Y-93809524D01*
X134881961Y-93809524D02*
X134786723Y-93761905D01*
X134786723Y-93761905D02*
X134596247Y-93714286D01*
X134596247Y-93714286D02*
X134453390Y-93714286D01*
X134453390Y-93714286D02*
X134262914Y-93761905D01*
X134262914Y-93761905D02*
X134167676Y-93809524D01*
X134167676Y-93809524D02*
X134072438Y-93904762D01*
X134072438Y-93904762D02*
X134024819Y-94047619D01*
X134024819Y-94047619D02*
X134024819Y-94142857D01*
X134024819Y-94142857D02*
X134072438Y-94285714D01*
X134072438Y-94285714D02*
X134120057Y-94333333D01*
X135024819Y-95285714D02*
X135024819Y-94714286D01*
X135024819Y-95000000D02*
X134024819Y-95000000D01*
X134024819Y-95000000D02*
X134167676Y-94904762D01*
X134167676Y-94904762D02*
X134262914Y-94809524D01*
X134262914Y-94809524D02*
X134310533Y-94714286D01*
X139289580Y-102882142D02*
X139337200Y-102834523D01*
X139337200Y-102834523D02*
X139384819Y-102691666D01*
X139384819Y-102691666D02*
X139384819Y-102596428D01*
X139384819Y-102596428D02*
X139337200Y-102453571D01*
X139337200Y-102453571D02*
X139241961Y-102358333D01*
X139241961Y-102358333D02*
X139146723Y-102310714D01*
X139146723Y-102310714D02*
X138956247Y-102263095D01*
X138956247Y-102263095D02*
X138813390Y-102263095D01*
X138813390Y-102263095D02*
X138622914Y-102310714D01*
X138622914Y-102310714D02*
X138527676Y-102358333D01*
X138527676Y-102358333D02*
X138432438Y-102453571D01*
X138432438Y-102453571D02*
X138384819Y-102596428D01*
X138384819Y-102596428D02*
X138384819Y-102691666D01*
X138384819Y-102691666D02*
X138432438Y-102834523D01*
X138432438Y-102834523D02*
X138480057Y-102882142D01*
X139384819Y-103834523D02*
X139384819Y-103263095D01*
X139384819Y-103548809D02*
X138384819Y-103548809D01*
X138384819Y-103548809D02*
X138527676Y-103453571D01*
X138527676Y-103453571D02*
X138622914Y-103358333D01*
X138622914Y-103358333D02*
X138670533Y-103263095D01*
X138813390Y-104405952D02*
X138765771Y-104310714D01*
X138765771Y-104310714D02*
X138718152Y-104263095D01*
X138718152Y-104263095D02*
X138622914Y-104215476D01*
X138622914Y-104215476D02*
X138575295Y-104215476D01*
X138575295Y-104215476D02*
X138480057Y-104263095D01*
X138480057Y-104263095D02*
X138432438Y-104310714D01*
X138432438Y-104310714D02*
X138384819Y-104405952D01*
X138384819Y-104405952D02*
X138384819Y-104596428D01*
X138384819Y-104596428D02*
X138432438Y-104691666D01*
X138432438Y-104691666D02*
X138480057Y-104739285D01*
X138480057Y-104739285D02*
X138575295Y-104786904D01*
X138575295Y-104786904D02*
X138622914Y-104786904D01*
X138622914Y-104786904D02*
X138718152Y-104739285D01*
X138718152Y-104739285D02*
X138765771Y-104691666D01*
X138765771Y-104691666D02*
X138813390Y-104596428D01*
X138813390Y-104596428D02*
X138813390Y-104405952D01*
X138813390Y-104405952D02*
X138861009Y-104310714D01*
X138861009Y-104310714D02*
X138908628Y-104263095D01*
X138908628Y-104263095D02*
X139003866Y-104215476D01*
X139003866Y-104215476D02*
X139194342Y-104215476D01*
X139194342Y-104215476D02*
X139289580Y-104263095D01*
X139289580Y-104263095D02*
X139337200Y-104310714D01*
X139337200Y-104310714D02*
X139384819Y-104405952D01*
X139384819Y-104405952D02*
X139384819Y-104596428D01*
X139384819Y-104596428D02*
X139337200Y-104691666D01*
X139337200Y-104691666D02*
X139289580Y-104739285D01*
X139289580Y-104739285D02*
X139194342Y-104786904D01*
X139194342Y-104786904D02*
X139003866Y-104786904D01*
X139003866Y-104786904D02*
X138908628Y-104739285D01*
X138908628Y-104739285D02*
X138861009Y-104691666D01*
X138861009Y-104691666D02*
X138813390Y-104596428D01*
X157289580Y-93882142D02*
X157337200Y-93834523D01*
X157337200Y-93834523D02*
X157384819Y-93691666D01*
X157384819Y-93691666D02*
X157384819Y-93596428D01*
X157384819Y-93596428D02*
X157337200Y-93453571D01*
X157337200Y-93453571D02*
X157241961Y-93358333D01*
X157241961Y-93358333D02*
X157146723Y-93310714D01*
X157146723Y-93310714D02*
X156956247Y-93263095D01*
X156956247Y-93263095D02*
X156813390Y-93263095D01*
X156813390Y-93263095D02*
X156622914Y-93310714D01*
X156622914Y-93310714D02*
X156527676Y-93358333D01*
X156527676Y-93358333D02*
X156432438Y-93453571D01*
X156432438Y-93453571D02*
X156384819Y-93596428D01*
X156384819Y-93596428D02*
X156384819Y-93691666D01*
X156384819Y-93691666D02*
X156432438Y-93834523D01*
X156432438Y-93834523D02*
X156480057Y-93882142D01*
X157384819Y-94834523D02*
X157384819Y-94263095D01*
X157384819Y-94548809D02*
X156384819Y-94548809D01*
X156384819Y-94548809D02*
X156527676Y-94453571D01*
X156527676Y-94453571D02*
X156622914Y-94358333D01*
X156622914Y-94358333D02*
X156670533Y-94263095D01*
X156480057Y-95215476D02*
X156432438Y-95263095D01*
X156432438Y-95263095D02*
X156384819Y-95358333D01*
X156384819Y-95358333D02*
X156384819Y-95596428D01*
X156384819Y-95596428D02*
X156432438Y-95691666D01*
X156432438Y-95691666D02*
X156480057Y-95739285D01*
X156480057Y-95739285D02*
X156575295Y-95786904D01*
X156575295Y-95786904D02*
X156670533Y-95786904D01*
X156670533Y-95786904D02*
X156813390Y-95739285D01*
X156813390Y-95739285D02*
X157384819Y-95167857D01*
X157384819Y-95167857D02*
X157384819Y-95786904D01*
X151429580Y-93882142D02*
X151477200Y-93834523D01*
X151477200Y-93834523D02*
X151524819Y-93691666D01*
X151524819Y-93691666D02*
X151524819Y-93596428D01*
X151524819Y-93596428D02*
X151477200Y-93453571D01*
X151477200Y-93453571D02*
X151381961Y-93358333D01*
X151381961Y-93358333D02*
X151286723Y-93310714D01*
X151286723Y-93310714D02*
X151096247Y-93263095D01*
X151096247Y-93263095D02*
X150953390Y-93263095D01*
X150953390Y-93263095D02*
X150762914Y-93310714D01*
X150762914Y-93310714D02*
X150667676Y-93358333D01*
X150667676Y-93358333D02*
X150572438Y-93453571D01*
X150572438Y-93453571D02*
X150524819Y-93596428D01*
X150524819Y-93596428D02*
X150524819Y-93691666D01*
X150524819Y-93691666D02*
X150572438Y-93834523D01*
X150572438Y-93834523D02*
X150620057Y-93882142D01*
X151524819Y-94834523D02*
X151524819Y-94263095D01*
X151524819Y-94548809D02*
X150524819Y-94548809D01*
X150524819Y-94548809D02*
X150667676Y-94453571D01*
X150667676Y-94453571D02*
X150762914Y-94358333D01*
X150762914Y-94358333D02*
X150810533Y-94263095D01*
X150524819Y-95453571D02*
X150524819Y-95548809D01*
X150524819Y-95548809D02*
X150572438Y-95644047D01*
X150572438Y-95644047D02*
X150620057Y-95691666D01*
X150620057Y-95691666D02*
X150715295Y-95739285D01*
X150715295Y-95739285D02*
X150905771Y-95786904D01*
X150905771Y-95786904D02*
X151143866Y-95786904D01*
X151143866Y-95786904D02*
X151334342Y-95739285D01*
X151334342Y-95739285D02*
X151429580Y-95691666D01*
X151429580Y-95691666D02*
X151477200Y-95644047D01*
X151477200Y-95644047D02*
X151524819Y-95548809D01*
X151524819Y-95548809D02*
X151524819Y-95453571D01*
X151524819Y-95453571D02*
X151477200Y-95358333D01*
X151477200Y-95358333D02*
X151429580Y-95310714D01*
X151429580Y-95310714D02*
X151334342Y-95263095D01*
X151334342Y-95263095D02*
X151143866Y-95215476D01*
X151143866Y-95215476D02*
X150905771Y-95215476D01*
X150905771Y-95215476D02*
X150715295Y-95263095D01*
X150715295Y-95263095D02*
X150620057Y-95310714D01*
X150620057Y-95310714D02*
X150572438Y-95358333D01*
X150572438Y-95358333D02*
X150524819Y-95453571D01*
X134358333Y-153834819D02*
X134358333Y-154549104D01*
X134358333Y-154549104D02*
X134405952Y-154691961D01*
X134405952Y-154691961D02*
X134501190Y-154787200D01*
X134501190Y-154787200D02*
X134644047Y-154834819D01*
X134644047Y-154834819D02*
X134739285Y-154834819D01*
X133358333Y-154834819D02*
X133929761Y-154834819D01*
X133644047Y-154834819D02*
X133644047Y-153834819D01*
X133644047Y-153834819D02*
X133739285Y-153977676D01*
X133739285Y-153977676D02*
X133834523Y-154072914D01*
X133834523Y-154072914D02*
X133929761Y-154120533D01*
X155789580Y-102857142D02*
X155837200Y-102809523D01*
X155837200Y-102809523D02*
X155884819Y-102666666D01*
X155884819Y-102666666D02*
X155884819Y-102571428D01*
X155884819Y-102571428D02*
X155837200Y-102428571D01*
X155837200Y-102428571D02*
X155741961Y-102333333D01*
X155741961Y-102333333D02*
X155646723Y-102285714D01*
X155646723Y-102285714D02*
X155456247Y-102238095D01*
X155456247Y-102238095D02*
X155313390Y-102238095D01*
X155313390Y-102238095D02*
X155122914Y-102285714D01*
X155122914Y-102285714D02*
X155027676Y-102333333D01*
X155027676Y-102333333D02*
X154932438Y-102428571D01*
X154932438Y-102428571D02*
X154884819Y-102571428D01*
X154884819Y-102571428D02*
X154884819Y-102666666D01*
X154884819Y-102666666D02*
X154932438Y-102809523D01*
X154932438Y-102809523D02*
X154980057Y-102857142D01*
X154980057Y-103238095D02*
X154932438Y-103285714D01*
X154932438Y-103285714D02*
X154884819Y-103380952D01*
X154884819Y-103380952D02*
X154884819Y-103619047D01*
X154884819Y-103619047D02*
X154932438Y-103714285D01*
X154932438Y-103714285D02*
X154980057Y-103761904D01*
X154980057Y-103761904D02*
X155075295Y-103809523D01*
X155075295Y-103809523D02*
X155170533Y-103809523D01*
X155170533Y-103809523D02*
X155313390Y-103761904D01*
X155313390Y-103761904D02*
X155884819Y-103190476D01*
X155884819Y-103190476D02*
X155884819Y-103809523D01*
X154884819Y-104142857D02*
X154884819Y-104761904D01*
X154884819Y-104761904D02*
X155265771Y-104428571D01*
X155265771Y-104428571D02*
X155265771Y-104571428D01*
X155265771Y-104571428D02*
X155313390Y-104666666D01*
X155313390Y-104666666D02*
X155361009Y-104714285D01*
X155361009Y-104714285D02*
X155456247Y-104761904D01*
X155456247Y-104761904D02*
X155694342Y-104761904D01*
X155694342Y-104761904D02*
X155789580Y-104714285D01*
X155789580Y-104714285D02*
X155837200Y-104666666D01*
X155837200Y-104666666D02*
X155884819Y-104571428D01*
X155884819Y-104571428D02*
X155884819Y-104285714D01*
X155884819Y-104285714D02*
X155837200Y-104190476D01*
X155837200Y-104190476D02*
X155789580Y-104142857D01*
X134929580Y-91333333D02*
X134977200Y-91285714D01*
X134977200Y-91285714D02*
X135024819Y-91142857D01*
X135024819Y-91142857D02*
X135024819Y-91047619D01*
X135024819Y-91047619D02*
X134977200Y-90904762D01*
X134977200Y-90904762D02*
X134881961Y-90809524D01*
X134881961Y-90809524D02*
X134786723Y-90761905D01*
X134786723Y-90761905D02*
X134596247Y-90714286D01*
X134596247Y-90714286D02*
X134453390Y-90714286D01*
X134453390Y-90714286D02*
X134262914Y-90761905D01*
X134262914Y-90761905D02*
X134167676Y-90809524D01*
X134167676Y-90809524D02*
X134072438Y-90904762D01*
X134072438Y-90904762D02*
X134024819Y-91047619D01*
X134024819Y-91047619D02*
X134024819Y-91142857D01*
X134024819Y-91142857D02*
X134072438Y-91285714D01*
X134072438Y-91285714D02*
X134120057Y-91333333D01*
X134358152Y-92190476D02*
X135024819Y-92190476D01*
X133977200Y-91952381D02*
X134691485Y-91714286D01*
X134691485Y-91714286D02*
X134691485Y-92333333D01*
X136289580Y-91333333D02*
X136337200Y-91285714D01*
X136337200Y-91285714D02*
X136384819Y-91142857D01*
X136384819Y-91142857D02*
X136384819Y-91047619D01*
X136384819Y-91047619D02*
X136337200Y-90904762D01*
X136337200Y-90904762D02*
X136241961Y-90809524D01*
X136241961Y-90809524D02*
X136146723Y-90761905D01*
X136146723Y-90761905D02*
X135956247Y-90714286D01*
X135956247Y-90714286D02*
X135813390Y-90714286D01*
X135813390Y-90714286D02*
X135622914Y-90761905D01*
X135622914Y-90761905D02*
X135527676Y-90809524D01*
X135527676Y-90809524D02*
X135432438Y-90904762D01*
X135432438Y-90904762D02*
X135384819Y-91047619D01*
X135384819Y-91047619D02*
X135384819Y-91142857D01*
X135384819Y-91142857D02*
X135432438Y-91285714D01*
X135432438Y-91285714D02*
X135480057Y-91333333D01*
X135384819Y-92190476D02*
X135384819Y-92000000D01*
X135384819Y-92000000D02*
X135432438Y-91904762D01*
X135432438Y-91904762D02*
X135480057Y-91857143D01*
X135480057Y-91857143D02*
X135622914Y-91761905D01*
X135622914Y-91761905D02*
X135813390Y-91714286D01*
X135813390Y-91714286D02*
X136194342Y-91714286D01*
X136194342Y-91714286D02*
X136289580Y-91761905D01*
X136289580Y-91761905D02*
X136337200Y-91809524D01*
X136337200Y-91809524D02*
X136384819Y-91904762D01*
X136384819Y-91904762D02*
X136384819Y-92095238D01*
X136384819Y-92095238D02*
X136337200Y-92190476D01*
X136337200Y-92190476D02*
X136289580Y-92238095D01*
X136289580Y-92238095D02*
X136194342Y-92285714D01*
X136194342Y-92285714D02*
X135956247Y-92285714D01*
X135956247Y-92285714D02*
X135861009Y-92238095D01*
X135861009Y-92238095D02*
X135813390Y-92190476D01*
X135813390Y-92190476D02*
X135765771Y-92095238D01*
X135765771Y-92095238D02*
X135765771Y-91904762D01*
X135765771Y-91904762D02*
X135813390Y-91809524D01*
X135813390Y-91809524D02*
X135861009Y-91761905D01*
X135861009Y-91761905D02*
X135956247Y-91714286D01*
X157289580Y-102857142D02*
X157337200Y-102809523D01*
X157337200Y-102809523D02*
X157384819Y-102666666D01*
X157384819Y-102666666D02*
X157384819Y-102571428D01*
X157384819Y-102571428D02*
X157337200Y-102428571D01*
X157337200Y-102428571D02*
X157241961Y-102333333D01*
X157241961Y-102333333D02*
X157146723Y-102285714D01*
X157146723Y-102285714D02*
X156956247Y-102238095D01*
X156956247Y-102238095D02*
X156813390Y-102238095D01*
X156813390Y-102238095D02*
X156622914Y-102285714D01*
X156622914Y-102285714D02*
X156527676Y-102333333D01*
X156527676Y-102333333D02*
X156432438Y-102428571D01*
X156432438Y-102428571D02*
X156384819Y-102571428D01*
X156384819Y-102571428D02*
X156384819Y-102666666D01*
X156384819Y-102666666D02*
X156432438Y-102809523D01*
X156432438Y-102809523D02*
X156480057Y-102857142D01*
X156480057Y-103238095D02*
X156432438Y-103285714D01*
X156432438Y-103285714D02*
X156384819Y-103380952D01*
X156384819Y-103380952D02*
X156384819Y-103619047D01*
X156384819Y-103619047D02*
X156432438Y-103714285D01*
X156432438Y-103714285D02*
X156480057Y-103761904D01*
X156480057Y-103761904D02*
X156575295Y-103809523D01*
X156575295Y-103809523D02*
X156670533Y-103809523D01*
X156670533Y-103809523D02*
X156813390Y-103761904D01*
X156813390Y-103761904D02*
X157384819Y-103190476D01*
X157384819Y-103190476D02*
X157384819Y-103809523D01*
X156718152Y-104666666D02*
X157384819Y-104666666D01*
X156337200Y-104428571D02*
X157051485Y-104190476D01*
X157051485Y-104190476D02*
X157051485Y-104809523D01*
X123408333Y-150899819D02*
X123408333Y-151614104D01*
X123408333Y-151614104D02*
X123455952Y-151756961D01*
X123455952Y-151756961D02*
X123551190Y-151852200D01*
X123551190Y-151852200D02*
X123694047Y-151899819D01*
X123694047Y-151899819D02*
X123789285Y-151899819D01*
X123027380Y-150899819D02*
X122408333Y-150899819D01*
X122408333Y-150899819D02*
X122741666Y-151280771D01*
X122741666Y-151280771D02*
X122598809Y-151280771D01*
X122598809Y-151280771D02*
X122503571Y-151328390D01*
X122503571Y-151328390D02*
X122455952Y-151376009D01*
X122455952Y-151376009D02*
X122408333Y-151471247D01*
X122408333Y-151471247D02*
X122408333Y-151709342D01*
X122408333Y-151709342D02*
X122455952Y-151804580D01*
X122455952Y-151804580D02*
X122503571Y-151852200D01*
X122503571Y-151852200D02*
X122598809Y-151899819D01*
X122598809Y-151899819D02*
X122884523Y-151899819D01*
X122884523Y-151899819D02*
X122979761Y-151852200D01*
X122979761Y-151852200D02*
X123027380Y-151804580D01*
X133429580Y-102882142D02*
X133477200Y-102834523D01*
X133477200Y-102834523D02*
X133524819Y-102691666D01*
X133524819Y-102691666D02*
X133524819Y-102596428D01*
X133524819Y-102596428D02*
X133477200Y-102453571D01*
X133477200Y-102453571D02*
X133381961Y-102358333D01*
X133381961Y-102358333D02*
X133286723Y-102310714D01*
X133286723Y-102310714D02*
X133096247Y-102263095D01*
X133096247Y-102263095D02*
X132953390Y-102263095D01*
X132953390Y-102263095D02*
X132762914Y-102310714D01*
X132762914Y-102310714D02*
X132667676Y-102358333D01*
X132667676Y-102358333D02*
X132572438Y-102453571D01*
X132572438Y-102453571D02*
X132524819Y-102596428D01*
X132524819Y-102596428D02*
X132524819Y-102691666D01*
X132524819Y-102691666D02*
X132572438Y-102834523D01*
X132572438Y-102834523D02*
X132620057Y-102882142D01*
X133524819Y-103834523D02*
X133524819Y-103263095D01*
X133524819Y-103548809D02*
X132524819Y-103548809D01*
X132524819Y-103548809D02*
X132667676Y-103453571D01*
X132667676Y-103453571D02*
X132762914Y-103358333D01*
X132762914Y-103358333D02*
X132810533Y-103263095D01*
X132524819Y-104691666D02*
X132524819Y-104501190D01*
X132524819Y-104501190D02*
X132572438Y-104405952D01*
X132572438Y-104405952D02*
X132620057Y-104358333D01*
X132620057Y-104358333D02*
X132762914Y-104263095D01*
X132762914Y-104263095D02*
X132953390Y-104215476D01*
X132953390Y-104215476D02*
X133334342Y-104215476D01*
X133334342Y-104215476D02*
X133429580Y-104263095D01*
X133429580Y-104263095D02*
X133477200Y-104310714D01*
X133477200Y-104310714D02*
X133524819Y-104405952D01*
X133524819Y-104405952D02*
X133524819Y-104596428D01*
X133524819Y-104596428D02*
X133477200Y-104691666D01*
X133477200Y-104691666D02*
X133429580Y-104739285D01*
X133429580Y-104739285D02*
X133334342Y-104786904D01*
X133334342Y-104786904D02*
X133096247Y-104786904D01*
X133096247Y-104786904D02*
X133001009Y-104739285D01*
X133001009Y-104739285D02*
X132953390Y-104691666D01*
X132953390Y-104691666D02*
X132905771Y-104596428D01*
X132905771Y-104596428D02*
X132905771Y-104405952D01*
X132905771Y-104405952D02*
X132953390Y-104310714D01*
X132953390Y-104310714D02*
X133001009Y-104263095D01*
X133001009Y-104263095D02*
X133096247Y-104215476D01*
X145429580Y-108857142D02*
X145477200Y-108809523D01*
X145477200Y-108809523D02*
X145524819Y-108666666D01*
X145524819Y-108666666D02*
X145524819Y-108571428D01*
X145524819Y-108571428D02*
X145477200Y-108428571D01*
X145477200Y-108428571D02*
X145381961Y-108333333D01*
X145381961Y-108333333D02*
X145286723Y-108285714D01*
X145286723Y-108285714D02*
X145096247Y-108238095D01*
X145096247Y-108238095D02*
X144953390Y-108238095D01*
X144953390Y-108238095D02*
X144762914Y-108285714D01*
X144762914Y-108285714D02*
X144667676Y-108333333D01*
X144667676Y-108333333D02*
X144572438Y-108428571D01*
X144572438Y-108428571D02*
X144524819Y-108571428D01*
X144524819Y-108571428D02*
X144524819Y-108666666D01*
X144524819Y-108666666D02*
X144572438Y-108809523D01*
X144572438Y-108809523D02*
X144620057Y-108857142D01*
X144620057Y-109238095D02*
X144572438Y-109285714D01*
X144572438Y-109285714D02*
X144524819Y-109380952D01*
X144524819Y-109380952D02*
X144524819Y-109619047D01*
X144524819Y-109619047D02*
X144572438Y-109714285D01*
X144572438Y-109714285D02*
X144620057Y-109761904D01*
X144620057Y-109761904D02*
X144715295Y-109809523D01*
X144715295Y-109809523D02*
X144810533Y-109809523D01*
X144810533Y-109809523D02*
X144953390Y-109761904D01*
X144953390Y-109761904D02*
X145524819Y-109190476D01*
X145524819Y-109190476D02*
X145524819Y-109809523D01*
X144524819Y-110142857D02*
X144524819Y-110809523D01*
X144524819Y-110809523D02*
X145524819Y-110380952D01*
X142429580Y-111857142D02*
X142477200Y-111809523D01*
X142477200Y-111809523D02*
X142524819Y-111666666D01*
X142524819Y-111666666D02*
X142524819Y-111571428D01*
X142524819Y-111571428D02*
X142477200Y-111428571D01*
X142477200Y-111428571D02*
X142381961Y-111333333D01*
X142381961Y-111333333D02*
X142286723Y-111285714D01*
X142286723Y-111285714D02*
X142096247Y-111238095D01*
X142096247Y-111238095D02*
X141953390Y-111238095D01*
X141953390Y-111238095D02*
X141762914Y-111285714D01*
X141762914Y-111285714D02*
X141667676Y-111333333D01*
X141667676Y-111333333D02*
X141572438Y-111428571D01*
X141572438Y-111428571D02*
X141524819Y-111571428D01*
X141524819Y-111571428D02*
X141524819Y-111666666D01*
X141524819Y-111666666D02*
X141572438Y-111809523D01*
X141572438Y-111809523D02*
X141620057Y-111857142D01*
X141620057Y-112238095D02*
X141572438Y-112285714D01*
X141572438Y-112285714D02*
X141524819Y-112380952D01*
X141524819Y-112380952D02*
X141524819Y-112619047D01*
X141524819Y-112619047D02*
X141572438Y-112714285D01*
X141572438Y-112714285D02*
X141620057Y-112761904D01*
X141620057Y-112761904D02*
X141715295Y-112809523D01*
X141715295Y-112809523D02*
X141810533Y-112809523D01*
X141810533Y-112809523D02*
X141953390Y-112761904D01*
X141953390Y-112761904D02*
X142524819Y-112190476D01*
X142524819Y-112190476D02*
X142524819Y-112809523D01*
X141953390Y-113380952D02*
X141905771Y-113285714D01*
X141905771Y-113285714D02*
X141858152Y-113238095D01*
X141858152Y-113238095D02*
X141762914Y-113190476D01*
X141762914Y-113190476D02*
X141715295Y-113190476D01*
X141715295Y-113190476D02*
X141620057Y-113238095D01*
X141620057Y-113238095D02*
X141572438Y-113285714D01*
X141572438Y-113285714D02*
X141524819Y-113380952D01*
X141524819Y-113380952D02*
X141524819Y-113571428D01*
X141524819Y-113571428D02*
X141572438Y-113666666D01*
X141572438Y-113666666D02*
X141620057Y-113714285D01*
X141620057Y-113714285D02*
X141715295Y-113761904D01*
X141715295Y-113761904D02*
X141762914Y-113761904D01*
X141762914Y-113761904D02*
X141858152Y-113714285D01*
X141858152Y-113714285D02*
X141905771Y-113666666D01*
X141905771Y-113666666D02*
X141953390Y-113571428D01*
X141953390Y-113571428D02*
X141953390Y-113380952D01*
X141953390Y-113380952D02*
X142001009Y-113285714D01*
X142001009Y-113285714D02*
X142048628Y-113238095D01*
X142048628Y-113238095D02*
X142143866Y-113190476D01*
X142143866Y-113190476D02*
X142334342Y-113190476D01*
X142334342Y-113190476D02*
X142429580Y-113238095D01*
X142429580Y-113238095D02*
X142477200Y-113285714D01*
X142477200Y-113285714D02*
X142524819Y-113380952D01*
X142524819Y-113380952D02*
X142524819Y-113571428D01*
X142524819Y-113571428D02*
X142477200Y-113666666D01*
X142477200Y-113666666D02*
X142429580Y-113714285D01*
X142429580Y-113714285D02*
X142334342Y-113761904D01*
X142334342Y-113761904D02*
X142143866Y-113761904D01*
X142143866Y-113761904D02*
X142048628Y-113714285D01*
X142048628Y-113714285D02*
X142001009Y-113666666D01*
X142001009Y-113666666D02*
X141953390Y-113571428D01*
X139289580Y-94333333D02*
X139337200Y-94285714D01*
X139337200Y-94285714D02*
X139384819Y-94142857D01*
X139384819Y-94142857D02*
X139384819Y-94047619D01*
X139384819Y-94047619D02*
X139337200Y-93904762D01*
X139337200Y-93904762D02*
X139241961Y-93809524D01*
X139241961Y-93809524D02*
X139146723Y-93761905D01*
X139146723Y-93761905D02*
X138956247Y-93714286D01*
X138956247Y-93714286D02*
X138813390Y-93714286D01*
X138813390Y-93714286D02*
X138622914Y-93761905D01*
X138622914Y-93761905D02*
X138527676Y-93809524D01*
X138527676Y-93809524D02*
X138432438Y-93904762D01*
X138432438Y-93904762D02*
X138384819Y-94047619D01*
X138384819Y-94047619D02*
X138384819Y-94142857D01*
X138384819Y-94142857D02*
X138432438Y-94285714D01*
X138432438Y-94285714D02*
X138480057Y-94333333D01*
X138480057Y-94714286D02*
X138432438Y-94761905D01*
X138432438Y-94761905D02*
X138384819Y-94857143D01*
X138384819Y-94857143D02*
X138384819Y-95095238D01*
X138384819Y-95095238D02*
X138432438Y-95190476D01*
X138432438Y-95190476D02*
X138480057Y-95238095D01*
X138480057Y-95238095D02*
X138575295Y-95285714D01*
X138575295Y-95285714D02*
X138670533Y-95285714D01*
X138670533Y-95285714D02*
X138813390Y-95238095D01*
X138813390Y-95238095D02*
X139384819Y-94666667D01*
X139384819Y-94666667D02*
X139384819Y-95285714D01*
X148289580Y-111857142D02*
X148337200Y-111809523D01*
X148337200Y-111809523D02*
X148384819Y-111666666D01*
X148384819Y-111666666D02*
X148384819Y-111571428D01*
X148384819Y-111571428D02*
X148337200Y-111428571D01*
X148337200Y-111428571D02*
X148241961Y-111333333D01*
X148241961Y-111333333D02*
X148146723Y-111285714D01*
X148146723Y-111285714D02*
X147956247Y-111238095D01*
X147956247Y-111238095D02*
X147813390Y-111238095D01*
X147813390Y-111238095D02*
X147622914Y-111285714D01*
X147622914Y-111285714D02*
X147527676Y-111333333D01*
X147527676Y-111333333D02*
X147432438Y-111428571D01*
X147432438Y-111428571D02*
X147384819Y-111571428D01*
X147384819Y-111571428D02*
X147384819Y-111666666D01*
X147384819Y-111666666D02*
X147432438Y-111809523D01*
X147432438Y-111809523D02*
X147480057Y-111857142D01*
X147384819Y-112190476D02*
X147384819Y-112809523D01*
X147384819Y-112809523D02*
X147765771Y-112476190D01*
X147765771Y-112476190D02*
X147765771Y-112619047D01*
X147765771Y-112619047D02*
X147813390Y-112714285D01*
X147813390Y-112714285D02*
X147861009Y-112761904D01*
X147861009Y-112761904D02*
X147956247Y-112809523D01*
X147956247Y-112809523D02*
X148194342Y-112809523D01*
X148194342Y-112809523D02*
X148289580Y-112761904D01*
X148289580Y-112761904D02*
X148337200Y-112714285D01*
X148337200Y-112714285D02*
X148384819Y-112619047D01*
X148384819Y-112619047D02*
X148384819Y-112333333D01*
X148384819Y-112333333D02*
X148337200Y-112238095D01*
X148337200Y-112238095D02*
X148289580Y-112190476D01*
X147384819Y-113428571D02*
X147384819Y-113523809D01*
X147384819Y-113523809D02*
X147432438Y-113619047D01*
X147432438Y-113619047D02*
X147480057Y-113666666D01*
X147480057Y-113666666D02*
X147575295Y-113714285D01*
X147575295Y-113714285D02*
X147765771Y-113761904D01*
X147765771Y-113761904D02*
X148003866Y-113761904D01*
X148003866Y-113761904D02*
X148194342Y-113714285D01*
X148194342Y-113714285D02*
X148289580Y-113666666D01*
X148289580Y-113666666D02*
X148337200Y-113619047D01*
X148337200Y-113619047D02*
X148384819Y-113523809D01*
X148384819Y-113523809D02*
X148384819Y-113428571D01*
X148384819Y-113428571D02*
X148337200Y-113333333D01*
X148337200Y-113333333D02*
X148289580Y-113285714D01*
X148289580Y-113285714D02*
X148194342Y-113238095D01*
X148194342Y-113238095D02*
X148003866Y-113190476D01*
X148003866Y-113190476D02*
X147765771Y-113190476D01*
X147765771Y-113190476D02*
X147575295Y-113238095D01*
X147575295Y-113238095D02*
X147480057Y-113285714D01*
X147480057Y-113285714D02*
X147432438Y-113333333D01*
X147432438Y-113333333D02*
X147384819Y-113428571D01*
X157289580Y-99857142D02*
X157337200Y-99809523D01*
X157337200Y-99809523D02*
X157384819Y-99666666D01*
X157384819Y-99666666D02*
X157384819Y-99571428D01*
X157384819Y-99571428D02*
X157337200Y-99428571D01*
X157337200Y-99428571D02*
X157241961Y-99333333D01*
X157241961Y-99333333D02*
X157146723Y-99285714D01*
X157146723Y-99285714D02*
X156956247Y-99238095D01*
X156956247Y-99238095D02*
X156813390Y-99238095D01*
X156813390Y-99238095D02*
X156622914Y-99285714D01*
X156622914Y-99285714D02*
X156527676Y-99333333D01*
X156527676Y-99333333D02*
X156432438Y-99428571D01*
X156432438Y-99428571D02*
X156384819Y-99571428D01*
X156384819Y-99571428D02*
X156384819Y-99666666D01*
X156384819Y-99666666D02*
X156432438Y-99809523D01*
X156432438Y-99809523D02*
X156480057Y-99857142D01*
X157384819Y-100809523D02*
X157384819Y-100238095D01*
X157384819Y-100523809D02*
X156384819Y-100523809D01*
X156384819Y-100523809D02*
X156527676Y-100428571D01*
X156527676Y-100428571D02*
X156622914Y-100333333D01*
X156622914Y-100333333D02*
X156670533Y-100238095D01*
X157384819Y-101285714D02*
X157384819Y-101476190D01*
X157384819Y-101476190D02*
X157337200Y-101571428D01*
X157337200Y-101571428D02*
X157289580Y-101619047D01*
X157289580Y-101619047D02*
X157146723Y-101714285D01*
X157146723Y-101714285D02*
X156956247Y-101761904D01*
X156956247Y-101761904D02*
X156575295Y-101761904D01*
X156575295Y-101761904D02*
X156480057Y-101714285D01*
X156480057Y-101714285D02*
X156432438Y-101666666D01*
X156432438Y-101666666D02*
X156384819Y-101571428D01*
X156384819Y-101571428D02*
X156384819Y-101380952D01*
X156384819Y-101380952D02*
X156432438Y-101285714D01*
X156432438Y-101285714D02*
X156480057Y-101238095D01*
X156480057Y-101238095D02*
X156575295Y-101190476D01*
X156575295Y-101190476D02*
X156813390Y-101190476D01*
X156813390Y-101190476D02*
X156908628Y-101238095D01*
X156908628Y-101238095D02*
X156956247Y-101285714D01*
X156956247Y-101285714D02*
X157003866Y-101380952D01*
X157003866Y-101380952D02*
X157003866Y-101571428D01*
X157003866Y-101571428D02*
X156956247Y-101666666D01*
X156956247Y-101666666D02*
X156908628Y-101714285D01*
X156908628Y-101714285D02*
X156813390Y-101761904D01*
X146789580Y-111857142D02*
X146837200Y-111809523D01*
X146837200Y-111809523D02*
X146884819Y-111666666D01*
X146884819Y-111666666D02*
X146884819Y-111571428D01*
X146884819Y-111571428D02*
X146837200Y-111428571D01*
X146837200Y-111428571D02*
X146741961Y-111333333D01*
X146741961Y-111333333D02*
X146646723Y-111285714D01*
X146646723Y-111285714D02*
X146456247Y-111238095D01*
X146456247Y-111238095D02*
X146313390Y-111238095D01*
X146313390Y-111238095D02*
X146122914Y-111285714D01*
X146122914Y-111285714D02*
X146027676Y-111333333D01*
X146027676Y-111333333D02*
X145932438Y-111428571D01*
X145932438Y-111428571D02*
X145884819Y-111571428D01*
X145884819Y-111571428D02*
X145884819Y-111666666D01*
X145884819Y-111666666D02*
X145932438Y-111809523D01*
X145932438Y-111809523D02*
X145980057Y-111857142D01*
X145980057Y-112238095D02*
X145932438Y-112285714D01*
X145932438Y-112285714D02*
X145884819Y-112380952D01*
X145884819Y-112380952D02*
X145884819Y-112619047D01*
X145884819Y-112619047D02*
X145932438Y-112714285D01*
X145932438Y-112714285D02*
X145980057Y-112761904D01*
X145980057Y-112761904D02*
X146075295Y-112809523D01*
X146075295Y-112809523D02*
X146170533Y-112809523D01*
X146170533Y-112809523D02*
X146313390Y-112761904D01*
X146313390Y-112761904D02*
X146884819Y-112190476D01*
X146884819Y-112190476D02*
X146884819Y-112809523D01*
X146884819Y-113285714D02*
X146884819Y-113476190D01*
X146884819Y-113476190D02*
X146837200Y-113571428D01*
X146837200Y-113571428D02*
X146789580Y-113619047D01*
X146789580Y-113619047D02*
X146646723Y-113714285D01*
X146646723Y-113714285D02*
X146456247Y-113761904D01*
X146456247Y-113761904D02*
X146075295Y-113761904D01*
X146075295Y-113761904D02*
X145980057Y-113714285D01*
X145980057Y-113714285D02*
X145932438Y-113666666D01*
X145932438Y-113666666D02*
X145884819Y-113571428D01*
X145884819Y-113571428D02*
X145884819Y-113380952D01*
X145884819Y-113380952D02*
X145932438Y-113285714D01*
X145932438Y-113285714D02*
X145980057Y-113238095D01*
X145980057Y-113238095D02*
X146075295Y-113190476D01*
X146075295Y-113190476D02*
X146313390Y-113190476D01*
X146313390Y-113190476D02*
X146408628Y-113238095D01*
X146408628Y-113238095D02*
X146456247Y-113285714D01*
X146456247Y-113285714D02*
X146503866Y-113380952D01*
X146503866Y-113380952D02*
X146503866Y-113571428D01*
X146503866Y-113571428D02*
X146456247Y-113666666D01*
X146456247Y-113666666D02*
X146408628Y-113714285D01*
X146408628Y-113714285D02*
X146313390Y-113761904D01*
X139289580Y-99882142D02*
X139337200Y-99834523D01*
X139337200Y-99834523D02*
X139384819Y-99691666D01*
X139384819Y-99691666D02*
X139384819Y-99596428D01*
X139384819Y-99596428D02*
X139337200Y-99453571D01*
X139337200Y-99453571D02*
X139241961Y-99358333D01*
X139241961Y-99358333D02*
X139146723Y-99310714D01*
X139146723Y-99310714D02*
X138956247Y-99263095D01*
X138956247Y-99263095D02*
X138813390Y-99263095D01*
X138813390Y-99263095D02*
X138622914Y-99310714D01*
X138622914Y-99310714D02*
X138527676Y-99358333D01*
X138527676Y-99358333D02*
X138432438Y-99453571D01*
X138432438Y-99453571D02*
X138384819Y-99596428D01*
X138384819Y-99596428D02*
X138384819Y-99691666D01*
X138384819Y-99691666D02*
X138432438Y-99834523D01*
X138432438Y-99834523D02*
X138480057Y-99882142D01*
X139384819Y-100834523D02*
X139384819Y-100263095D01*
X139384819Y-100548809D02*
X138384819Y-100548809D01*
X138384819Y-100548809D02*
X138527676Y-100453571D01*
X138527676Y-100453571D02*
X138622914Y-100358333D01*
X138622914Y-100358333D02*
X138670533Y-100263095D01*
X138384819Y-101167857D02*
X138384819Y-101786904D01*
X138384819Y-101786904D02*
X138765771Y-101453571D01*
X138765771Y-101453571D02*
X138765771Y-101596428D01*
X138765771Y-101596428D02*
X138813390Y-101691666D01*
X138813390Y-101691666D02*
X138861009Y-101739285D01*
X138861009Y-101739285D02*
X138956247Y-101786904D01*
X138956247Y-101786904D02*
X139194342Y-101786904D01*
X139194342Y-101786904D02*
X139289580Y-101739285D01*
X139289580Y-101739285D02*
X139337200Y-101691666D01*
X139337200Y-101691666D02*
X139384819Y-101596428D01*
X139384819Y-101596428D02*
X139384819Y-101310714D01*
X139384819Y-101310714D02*
X139337200Y-101215476D01*
X139337200Y-101215476D02*
X139289580Y-101167857D01*
X151429580Y-102857142D02*
X151477200Y-102809523D01*
X151477200Y-102809523D02*
X151524819Y-102666666D01*
X151524819Y-102666666D02*
X151524819Y-102571428D01*
X151524819Y-102571428D02*
X151477200Y-102428571D01*
X151477200Y-102428571D02*
X151381961Y-102333333D01*
X151381961Y-102333333D02*
X151286723Y-102285714D01*
X151286723Y-102285714D02*
X151096247Y-102238095D01*
X151096247Y-102238095D02*
X150953390Y-102238095D01*
X150953390Y-102238095D02*
X150762914Y-102285714D01*
X150762914Y-102285714D02*
X150667676Y-102333333D01*
X150667676Y-102333333D02*
X150572438Y-102428571D01*
X150572438Y-102428571D02*
X150524819Y-102571428D01*
X150524819Y-102571428D02*
X150524819Y-102666666D01*
X150524819Y-102666666D02*
X150572438Y-102809523D01*
X150572438Y-102809523D02*
X150620057Y-102857142D01*
X150620057Y-103238095D02*
X150572438Y-103285714D01*
X150572438Y-103285714D02*
X150524819Y-103380952D01*
X150524819Y-103380952D02*
X150524819Y-103619047D01*
X150524819Y-103619047D02*
X150572438Y-103714285D01*
X150572438Y-103714285D02*
X150620057Y-103761904D01*
X150620057Y-103761904D02*
X150715295Y-103809523D01*
X150715295Y-103809523D02*
X150810533Y-103809523D01*
X150810533Y-103809523D02*
X150953390Y-103761904D01*
X150953390Y-103761904D02*
X151524819Y-103190476D01*
X151524819Y-103190476D02*
X151524819Y-103809523D01*
X150620057Y-104190476D02*
X150572438Y-104238095D01*
X150572438Y-104238095D02*
X150524819Y-104333333D01*
X150524819Y-104333333D02*
X150524819Y-104571428D01*
X150524819Y-104571428D02*
X150572438Y-104666666D01*
X150572438Y-104666666D02*
X150620057Y-104714285D01*
X150620057Y-104714285D02*
X150715295Y-104761904D01*
X150715295Y-104761904D02*
X150810533Y-104761904D01*
X150810533Y-104761904D02*
X150953390Y-104714285D01*
X150953390Y-104714285D02*
X151524819Y-104142857D01*
X151524819Y-104142857D02*
X151524819Y-104761904D01*
D11*
X144588095Y-96667580D02*
X144588095Y-95858057D01*
X144588095Y-95858057D02*
X144635714Y-95762819D01*
X144635714Y-95762819D02*
X144683333Y-95715200D01*
X144683333Y-95715200D02*
X144778571Y-95667580D01*
X144778571Y-95667580D02*
X144969047Y-95667580D01*
X144969047Y-95667580D02*
X145064285Y-95715200D01*
X145064285Y-95715200D02*
X145111904Y-95762819D01*
X145111904Y-95762819D02*
X145159523Y-95858057D01*
X145159523Y-95858057D02*
X145159523Y-96667580D01*
X146159523Y-95667580D02*
X145588095Y-95667580D01*
X145873809Y-95667580D02*
X145873809Y-96667580D01*
X145873809Y-96667580D02*
X145778571Y-96524723D01*
X145778571Y-96524723D02*
X145683333Y-96429485D01*
X145683333Y-96429485D02*
X145588095Y-96381866D01*
D10*
X156408333Y-153834819D02*
X156408333Y-154549104D01*
X156408333Y-154549104D02*
X156455952Y-154691961D01*
X156455952Y-154691961D02*
X156551190Y-154787200D01*
X156551190Y-154787200D02*
X156694047Y-154834819D01*
X156694047Y-154834819D02*
X156789285Y-154834819D01*
X155979761Y-153930057D02*
X155932142Y-153882438D01*
X155932142Y-153882438D02*
X155836904Y-153834819D01*
X155836904Y-153834819D02*
X155598809Y-153834819D01*
X155598809Y-153834819D02*
X155503571Y-153882438D01*
X155503571Y-153882438D02*
X155455952Y-153930057D01*
X155455952Y-153930057D02*
X155408333Y-154025295D01*
X155408333Y-154025295D02*
X155408333Y-154120533D01*
X155408333Y-154120533D02*
X155455952Y-154263390D01*
X155455952Y-154263390D02*
X156027380Y-154834819D01*
X156027380Y-154834819D02*
X155408333Y-154834819D01*
X146789580Y-108857142D02*
X146837200Y-108809523D01*
X146837200Y-108809523D02*
X146884819Y-108666666D01*
X146884819Y-108666666D02*
X146884819Y-108571428D01*
X146884819Y-108571428D02*
X146837200Y-108428571D01*
X146837200Y-108428571D02*
X146741961Y-108333333D01*
X146741961Y-108333333D02*
X146646723Y-108285714D01*
X146646723Y-108285714D02*
X146456247Y-108238095D01*
X146456247Y-108238095D02*
X146313390Y-108238095D01*
X146313390Y-108238095D02*
X146122914Y-108285714D01*
X146122914Y-108285714D02*
X146027676Y-108333333D01*
X146027676Y-108333333D02*
X145932438Y-108428571D01*
X145932438Y-108428571D02*
X145884819Y-108571428D01*
X145884819Y-108571428D02*
X145884819Y-108666666D01*
X145884819Y-108666666D02*
X145932438Y-108809523D01*
X145932438Y-108809523D02*
X145980057Y-108857142D01*
X145980057Y-109238095D02*
X145932438Y-109285714D01*
X145932438Y-109285714D02*
X145884819Y-109380952D01*
X145884819Y-109380952D02*
X145884819Y-109619047D01*
X145884819Y-109619047D02*
X145932438Y-109714285D01*
X145932438Y-109714285D02*
X145980057Y-109761904D01*
X145980057Y-109761904D02*
X146075295Y-109809523D01*
X146075295Y-109809523D02*
X146170533Y-109809523D01*
X146170533Y-109809523D02*
X146313390Y-109761904D01*
X146313390Y-109761904D02*
X146884819Y-109190476D01*
X146884819Y-109190476D02*
X146884819Y-109809523D01*
X145884819Y-110666666D02*
X145884819Y-110476190D01*
X145884819Y-110476190D02*
X145932438Y-110380952D01*
X145932438Y-110380952D02*
X145980057Y-110333333D01*
X145980057Y-110333333D02*
X146122914Y-110238095D01*
X146122914Y-110238095D02*
X146313390Y-110190476D01*
X146313390Y-110190476D02*
X146694342Y-110190476D01*
X146694342Y-110190476D02*
X146789580Y-110238095D01*
X146789580Y-110238095D02*
X146837200Y-110285714D01*
X146837200Y-110285714D02*
X146884819Y-110380952D01*
X146884819Y-110380952D02*
X146884819Y-110571428D01*
X146884819Y-110571428D02*
X146837200Y-110666666D01*
X146837200Y-110666666D02*
X146789580Y-110714285D01*
X146789580Y-110714285D02*
X146694342Y-110761904D01*
X146694342Y-110761904D02*
X146456247Y-110761904D01*
X146456247Y-110761904D02*
X146361009Y-110714285D01*
X146361009Y-110714285D02*
X146313390Y-110666666D01*
X146313390Y-110666666D02*
X146265771Y-110571428D01*
X146265771Y-110571428D02*
X146265771Y-110380952D01*
X146265771Y-110380952D02*
X146313390Y-110285714D01*
X146313390Y-110285714D02*
X146361009Y-110238095D01*
X146361009Y-110238095D02*
X146456247Y-110190476D01*
X155789580Y-93882142D02*
X155837200Y-93834523D01*
X155837200Y-93834523D02*
X155884819Y-93691666D01*
X155884819Y-93691666D02*
X155884819Y-93596428D01*
X155884819Y-93596428D02*
X155837200Y-93453571D01*
X155837200Y-93453571D02*
X155741961Y-93358333D01*
X155741961Y-93358333D02*
X155646723Y-93310714D01*
X155646723Y-93310714D02*
X155456247Y-93263095D01*
X155456247Y-93263095D02*
X155313390Y-93263095D01*
X155313390Y-93263095D02*
X155122914Y-93310714D01*
X155122914Y-93310714D02*
X155027676Y-93358333D01*
X155027676Y-93358333D02*
X154932438Y-93453571D01*
X154932438Y-93453571D02*
X154884819Y-93596428D01*
X154884819Y-93596428D02*
X154884819Y-93691666D01*
X154884819Y-93691666D02*
X154932438Y-93834523D01*
X154932438Y-93834523D02*
X154980057Y-93882142D01*
X155884819Y-94834523D02*
X155884819Y-94263095D01*
X155884819Y-94548809D02*
X154884819Y-94548809D01*
X154884819Y-94548809D02*
X155027676Y-94453571D01*
X155027676Y-94453571D02*
X155122914Y-94358333D01*
X155122914Y-94358333D02*
X155170533Y-94263095D01*
X155884819Y-95786904D02*
X155884819Y-95215476D01*
X155884819Y-95501190D02*
X154884819Y-95501190D01*
X154884819Y-95501190D02*
X155027676Y-95405952D01*
X155027676Y-95405952D02*
X155122914Y-95310714D01*
X155122914Y-95310714D02*
X155170533Y-95215476D01*
X154289580Y-91333333D02*
X154337200Y-91285714D01*
X154337200Y-91285714D02*
X154384819Y-91142857D01*
X154384819Y-91142857D02*
X154384819Y-91047619D01*
X154384819Y-91047619D02*
X154337200Y-90904762D01*
X154337200Y-90904762D02*
X154241961Y-90809524D01*
X154241961Y-90809524D02*
X154146723Y-90761905D01*
X154146723Y-90761905D02*
X153956247Y-90714286D01*
X153956247Y-90714286D02*
X153813390Y-90714286D01*
X153813390Y-90714286D02*
X153622914Y-90761905D01*
X153622914Y-90761905D02*
X153527676Y-90809524D01*
X153527676Y-90809524D02*
X153432438Y-90904762D01*
X153432438Y-90904762D02*
X153384819Y-91047619D01*
X153384819Y-91047619D02*
X153384819Y-91142857D01*
X153384819Y-91142857D02*
X153432438Y-91285714D01*
X153432438Y-91285714D02*
X153480057Y-91333333D01*
X153384819Y-91666667D02*
X153384819Y-92333333D01*
X153384819Y-92333333D02*
X154384819Y-91904762D01*
X152929580Y-91333333D02*
X152977200Y-91285714D01*
X152977200Y-91285714D02*
X153024819Y-91142857D01*
X153024819Y-91142857D02*
X153024819Y-91047619D01*
X153024819Y-91047619D02*
X152977200Y-90904762D01*
X152977200Y-90904762D02*
X152881961Y-90809524D01*
X152881961Y-90809524D02*
X152786723Y-90761905D01*
X152786723Y-90761905D02*
X152596247Y-90714286D01*
X152596247Y-90714286D02*
X152453390Y-90714286D01*
X152453390Y-90714286D02*
X152262914Y-90761905D01*
X152262914Y-90761905D02*
X152167676Y-90809524D01*
X152167676Y-90809524D02*
X152072438Y-90904762D01*
X152072438Y-90904762D02*
X152024819Y-91047619D01*
X152024819Y-91047619D02*
X152024819Y-91142857D01*
X152024819Y-91142857D02*
X152072438Y-91285714D01*
X152072438Y-91285714D02*
X152120057Y-91333333D01*
X153024819Y-91809524D02*
X153024819Y-92000000D01*
X153024819Y-92000000D02*
X152977200Y-92095238D01*
X152977200Y-92095238D02*
X152929580Y-92142857D01*
X152929580Y-92142857D02*
X152786723Y-92238095D01*
X152786723Y-92238095D02*
X152596247Y-92285714D01*
X152596247Y-92285714D02*
X152215295Y-92285714D01*
X152215295Y-92285714D02*
X152120057Y-92238095D01*
X152120057Y-92238095D02*
X152072438Y-92190476D01*
X152072438Y-92190476D02*
X152024819Y-92095238D01*
X152024819Y-92095238D02*
X152024819Y-91904762D01*
X152024819Y-91904762D02*
X152072438Y-91809524D01*
X152072438Y-91809524D02*
X152120057Y-91761905D01*
X152120057Y-91761905D02*
X152215295Y-91714286D01*
X152215295Y-91714286D02*
X152453390Y-91714286D01*
X152453390Y-91714286D02*
X152548628Y-91761905D01*
X152548628Y-91761905D02*
X152596247Y-91809524D01*
X152596247Y-91809524D02*
X152643866Y-91904762D01*
X152643866Y-91904762D02*
X152643866Y-92095238D01*
X152643866Y-92095238D02*
X152596247Y-92190476D01*
X152596247Y-92190476D02*
X152548628Y-92238095D01*
X152548628Y-92238095D02*
X152453390Y-92285714D01*
X136289580Y-94333333D02*
X136337200Y-94285714D01*
X136337200Y-94285714D02*
X136384819Y-94142857D01*
X136384819Y-94142857D02*
X136384819Y-94047619D01*
X136384819Y-94047619D02*
X136337200Y-93904762D01*
X136337200Y-93904762D02*
X136241961Y-93809524D01*
X136241961Y-93809524D02*
X136146723Y-93761905D01*
X136146723Y-93761905D02*
X135956247Y-93714286D01*
X135956247Y-93714286D02*
X135813390Y-93714286D01*
X135813390Y-93714286D02*
X135622914Y-93761905D01*
X135622914Y-93761905D02*
X135527676Y-93809524D01*
X135527676Y-93809524D02*
X135432438Y-93904762D01*
X135432438Y-93904762D02*
X135384819Y-94047619D01*
X135384819Y-94047619D02*
X135384819Y-94142857D01*
X135384819Y-94142857D02*
X135432438Y-94285714D01*
X135432438Y-94285714D02*
X135480057Y-94333333D01*
X135384819Y-94666667D02*
X135384819Y-95285714D01*
X135384819Y-95285714D02*
X135765771Y-94952381D01*
X135765771Y-94952381D02*
X135765771Y-95095238D01*
X135765771Y-95095238D02*
X135813390Y-95190476D01*
X135813390Y-95190476D02*
X135861009Y-95238095D01*
X135861009Y-95238095D02*
X135956247Y-95285714D01*
X135956247Y-95285714D02*
X136194342Y-95285714D01*
X136194342Y-95285714D02*
X136289580Y-95238095D01*
X136289580Y-95238095D02*
X136337200Y-95190476D01*
X136337200Y-95190476D02*
X136384819Y-95095238D01*
X136384819Y-95095238D02*
X136384819Y-94809524D01*
X136384819Y-94809524D02*
X136337200Y-94714286D01*
X136337200Y-94714286D02*
X136289580Y-94666667D01*
X151429580Y-99857142D02*
X151477200Y-99809523D01*
X151477200Y-99809523D02*
X151524819Y-99666666D01*
X151524819Y-99666666D02*
X151524819Y-99571428D01*
X151524819Y-99571428D02*
X151477200Y-99428571D01*
X151477200Y-99428571D02*
X151381961Y-99333333D01*
X151381961Y-99333333D02*
X151286723Y-99285714D01*
X151286723Y-99285714D02*
X151096247Y-99238095D01*
X151096247Y-99238095D02*
X150953390Y-99238095D01*
X150953390Y-99238095D02*
X150762914Y-99285714D01*
X150762914Y-99285714D02*
X150667676Y-99333333D01*
X150667676Y-99333333D02*
X150572438Y-99428571D01*
X150572438Y-99428571D02*
X150524819Y-99571428D01*
X150524819Y-99571428D02*
X150524819Y-99666666D01*
X150524819Y-99666666D02*
X150572438Y-99809523D01*
X150572438Y-99809523D02*
X150620057Y-99857142D01*
X150620057Y-100238095D02*
X150572438Y-100285714D01*
X150572438Y-100285714D02*
X150524819Y-100380952D01*
X150524819Y-100380952D02*
X150524819Y-100619047D01*
X150524819Y-100619047D02*
X150572438Y-100714285D01*
X150572438Y-100714285D02*
X150620057Y-100761904D01*
X150620057Y-100761904D02*
X150715295Y-100809523D01*
X150715295Y-100809523D02*
X150810533Y-100809523D01*
X150810533Y-100809523D02*
X150953390Y-100761904D01*
X150953390Y-100761904D02*
X151524819Y-100190476D01*
X151524819Y-100190476D02*
X151524819Y-100809523D01*
X151524819Y-101761904D02*
X151524819Y-101190476D01*
X151524819Y-101476190D02*
X150524819Y-101476190D01*
X150524819Y-101476190D02*
X150667676Y-101380952D01*
X150667676Y-101380952D02*
X150762914Y-101285714D01*
X150762914Y-101285714D02*
X150810533Y-101190476D01*
X137789580Y-99882142D02*
X137837200Y-99834523D01*
X137837200Y-99834523D02*
X137884819Y-99691666D01*
X137884819Y-99691666D02*
X137884819Y-99596428D01*
X137884819Y-99596428D02*
X137837200Y-99453571D01*
X137837200Y-99453571D02*
X137741961Y-99358333D01*
X137741961Y-99358333D02*
X137646723Y-99310714D01*
X137646723Y-99310714D02*
X137456247Y-99263095D01*
X137456247Y-99263095D02*
X137313390Y-99263095D01*
X137313390Y-99263095D02*
X137122914Y-99310714D01*
X137122914Y-99310714D02*
X137027676Y-99358333D01*
X137027676Y-99358333D02*
X136932438Y-99453571D01*
X136932438Y-99453571D02*
X136884819Y-99596428D01*
X136884819Y-99596428D02*
X136884819Y-99691666D01*
X136884819Y-99691666D02*
X136932438Y-99834523D01*
X136932438Y-99834523D02*
X136980057Y-99882142D01*
X137884819Y-100834523D02*
X137884819Y-100263095D01*
X137884819Y-100548809D02*
X136884819Y-100548809D01*
X136884819Y-100548809D02*
X137027676Y-100453571D01*
X137027676Y-100453571D02*
X137122914Y-100358333D01*
X137122914Y-100358333D02*
X137170533Y-100263095D01*
X137218152Y-101691666D02*
X137884819Y-101691666D01*
X136837200Y-101453571D02*
X137551485Y-101215476D01*
X137551485Y-101215476D02*
X137551485Y-101834523D01*
X145289580Y-108857142D02*
X145337200Y-108809523D01*
X145337200Y-108809523D02*
X145384819Y-108666666D01*
X145384819Y-108666666D02*
X145384819Y-108571428D01*
X145384819Y-108571428D02*
X145337200Y-108428571D01*
X145337200Y-108428571D02*
X145241961Y-108333333D01*
X145241961Y-108333333D02*
X145146723Y-108285714D01*
X145146723Y-108285714D02*
X144956247Y-108238095D01*
X144956247Y-108238095D02*
X144813390Y-108238095D01*
X144813390Y-108238095D02*
X144622914Y-108285714D01*
X144622914Y-108285714D02*
X144527676Y-108333333D01*
X144527676Y-108333333D02*
X144432438Y-108428571D01*
X144432438Y-108428571D02*
X144384819Y-108571428D01*
X144384819Y-108571428D02*
X144384819Y-108666666D01*
X144384819Y-108666666D02*
X144432438Y-108809523D01*
X144432438Y-108809523D02*
X144480057Y-108857142D01*
X144480057Y-109238095D02*
X144432438Y-109285714D01*
X144432438Y-109285714D02*
X144384819Y-109380952D01*
X144384819Y-109380952D02*
X144384819Y-109619047D01*
X144384819Y-109619047D02*
X144432438Y-109714285D01*
X144432438Y-109714285D02*
X144480057Y-109761904D01*
X144480057Y-109761904D02*
X144575295Y-109809523D01*
X144575295Y-109809523D02*
X144670533Y-109809523D01*
X144670533Y-109809523D02*
X144813390Y-109761904D01*
X144813390Y-109761904D02*
X145384819Y-109190476D01*
X145384819Y-109190476D02*
X145384819Y-109809523D01*
X144384819Y-110714285D02*
X144384819Y-110238095D01*
X144384819Y-110238095D02*
X144861009Y-110190476D01*
X144861009Y-110190476D02*
X144813390Y-110238095D01*
X144813390Y-110238095D02*
X144765771Y-110333333D01*
X144765771Y-110333333D02*
X144765771Y-110571428D01*
X144765771Y-110571428D02*
X144813390Y-110666666D01*
X144813390Y-110666666D02*
X144861009Y-110714285D01*
X144861009Y-110714285D02*
X144956247Y-110761904D01*
X144956247Y-110761904D02*
X145194342Y-110761904D01*
X145194342Y-110761904D02*
X145289580Y-110714285D01*
X145289580Y-110714285D02*
X145337200Y-110666666D01*
X145337200Y-110666666D02*
X145384819Y-110571428D01*
X145384819Y-110571428D02*
X145384819Y-110333333D01*
X145384819Y-110333333D02*
X145337200Y-110238095D01*
X145337200Y-110238095D02*
X145289580Y-110190476D01*
X155789580Y-99857142D02*
X155837200Y-99809523D01*
X155837200Y-99809523D02*
X155884819Y-99666666D01*
X155884819Y-99666666D02*
X155884819Y-99571428D01*
X155884819Y-99571428D02*
X155837200Y-99428571D01*
X155837200Y-99428571D02*
X155741961Y-99333333D01*
X155741961Y-99333333D02*
X155646723Y-99285714D01*
X155646723Y-99285714D02*
X155456247Y-99238095D01*
X155456247Y-99238095D02*
X155313390Y-99238095D01*
X155313390Y-99238095D02*
X155122914Y-99285714D01*
X155122914Y-99285714D02*
X155027676Y-99333333D01*
X155027676Y-99333333D02*
X154932438Y-99428571D01*
X154932438Y-99428571D02*
X154884819Y-99571428D01*
X154884819Y-99571428D02*
X154884819Y-99666666D01*
X154884819Y-99666666D02*
X154932438Y-99809523D01*
X154932438Y-99809523D02*
X154980057Y-99857142D01*
X154980057Y-100238095D02*
X154932438Y-100285714D01*
X154932438Y-100285714D02*
X154884819Y-100380952D01*
X154884819Y-100380952D02*
X154884819Y-100619047D01*
X154884819Y-100619047D02*
X154932438Y-100714285D01*
X154932438Y-100714285D02*
X154980057Y-100761904D01*
X154980057Y-100761904D02*
X155075295Y-100809523D01*
X155075295Y-100809523D02*
X155170533Y-100809523D01*
X155170533Y-100809523D02*
X155313390Y-100761904D01*
X155313390Y-100761904D02*
X155884819Y-100190476D01*
X155884819Y-100190476D02*
X155884819Y-100809523D01*
X154884819Y-101428571D02*
X154884819Y-101523809D01*
X154884819Y-101523809D02*
X154932438Y-101619047D01*
X154932438Y-101619047D02*
X154980057Y-101666666D01*
X154980057Y-101666666D02*
X155075295Y-101714285D01*
X155075295Y-101714285D02*
X155265771Y-101761904D01*
X155265771Y-101761904D02*
X155503866Y-101761904D01*
X155503866Y-101761904D02*
X155694342Y-101714285D01*
X155694342Y-101714285D02*
X155789580Y-101666666D01*
X155789580Y-101666666D02*
X155837200Y-101619047D01*
X155837200Y-101619047D02*
X155884819Y-101523809D01*
X155884819Y-101523809D02*
X155884819Y-101428571D01*
X155884819Y-101428571D02*
X155837200Y-101333333D01*
X155837200Y-101333333D02*
X155789580Y-101285714D01*
X155789580Y-101285714D02*
X155694342Y-101238095D01*
X155694342Y-101238095D02*
X155503866Y-101190476D01*
X155503866Y-101190476D02*
X155265771Y-101190476D01*
X155265771Y-101190476D02*
X155075295Y-101238095D01*
X155075295Y-101238095D02*
X154980057Y-101285714D01*
X154980057Y-101285714D02*
X154932438Y-101333333D01*
X154932438Y-101333333D02*
X154884819Y-101428571D01*
X133429580Y-99882142D02*
X133477200Y-99834523D01*
X133477200Y-99834523D02*
X133524819Y-99691666D01*
X133524819Y-99691666D02*
X133524819Y-99596428D01*
X133524819Y-99596428D02*
X133477200Y-99453571D01*
X133477200Y-99453571D02*
X133381961Y-99358333D01*
X133381961Y-99358333D02*
X133286723Y-99310714D01*
X133286723Y-99310714D02*
X133096247Y-99263095D01*
X133096247Y-99263095D02*
X132953390Y-99263095D01*
X132953390Y-99263095D02*
X132762914Y-99310714D01*
X132762914Y-99310714D02*
X132667676Y-99358333D01*
X132667676Y-99358333D02*
X132572438Y-99453571D01*
X132572438Y-99453571D02*
X132524819Y-99596428D01*
X132524819Y-99596428D02*
X132524819Y-99691666D01*
X132524819Y-99691666D02*
X132572438Y-99834523D01*
X132572438Y-99834523D02*
X132620057Y-99882142D01*
X133524819Y-100834523D02*
X133524819Y-100263095D01*
X133524819Y-100548809D02*
X132524819Y-100548809D01*
X132524819Y-100548809D02*
X132667676Y-100453571D01*
X132667676Y-100453571D02*
X132762914Y-100358333D01*
X132762914Y-100358333D02*
X132810533Y-100263095D01*
X132524819Y-101739285D02*
X132524819Y-101263095D01*
X132524819Y-101263095D02*
X133001009Y-101215476D01*
X133001009Y-101215476D02*
X132953390Y-101263095D01*
X132953390Y-101263095D02*
X132905771Y-101358333D01*
X132905771Y-101358333D02*
X132905771Y-101596428D01*
X132905771Y-101596428D02*
X132953390Y-101691666D01*
X132953390Y-101691666D02*
X133001009Y-101739285D01*
X133001009Y-101739285D02*
X133096247Y-101786904D01*
X133096247Y-101786904D02*
X133334342Y-101786904D01*
X133334342Y-101786904D02*
X133429580Y-101739285D01*
X133429580Y-101739285D02*
X133477200Y-101691666D01*
X133477200Y-101691666D02*
X133524819Y-101596428D01*
X133524819Y-101596428D02*
X133524819Y-101358333D01*
X133524819Y-101358333D02*
X133477200Y-101263095D01*
X133477200Y-101263095D02*
X133429580Y-101215476D01*
D12*
%TO.C,C17*%
X135490000Y-103384420D02*
X135490000Y-103665580D01*
X136510000Y-103384420D02*
X136510000Y-103665580D01*
%TO.C,C8*%
X154990000Y-91359420D02*
X154990000Y-91640580D01*
X156010000Y-91359420D02*
X156010000Y-91640580D01*
%TO.C,C5*%
X136990000Y-91359420D02*
X136990000Y-91640580D01*
X138010000Y-91359420D02*
X138010000Y-91640580D01*
%TO.C,C1*%
X135490000Y-94640580D02*
X135490000Y-94359420D01*
X136510000Y-94640580D02*
X136510000Y-94359420D01*
%TO.C,C18*%
X136990000Y-103384420D02*
X136990000Y-103665580D01*
X138010000Y-103384420D02*
X138010000Y-103665580D01*
%TO.C,C12*%
X154990000Y-94384420D02*
X154990000Y-94665580D01*
X156010000Y-94384420D02*
X156010000Y-94665580D01*
%TO.C,C10*%
X151990000Y-94665580D02*
X151990000Y-94384420D01*
X153010000Y-94665580D02*
X153010000Y-94384420D01*
%TO.C,J1*%
X132075000Y-156170000D02*
X133185000Y-156170000D01*
X132075000Y-159880000D02*
X133185000Y-159880000D01*
X133775000Y-155120000D02*
X134025000Y-155620000D01*
X134025000Y-155620000D02*
X134275000Y-155120000D01*
X134275000Y-155120000D02*
X133775000Y-155120000D01*
X134865000Y-156170000D02*
X135975000Y-156170000D01*
X134865000Y-159880000D02*
X135975000Y-159880000D01*
%TO.C,C23*%
X153490000Y-103359420D02*
X153490000Y-103640580D01*
X154510000Y-103359420D02*
X154510000Y-103640580D01*
%TO.C,C4*%
X135490000Y-91640580D02*
X135490000Y-91359420D01*
X136510000Y-91640580D02*
X136510000Y-91359420D01*
%TO.C,C6*%
X133990000Y-91359420D02*
X133990000Y-91640580D01*
X135010000Y-91359420D02*
X135010000Y-91640580D01*
%TO.C,C24*%
X154990000Y-103359420D02*
X154990000Y-103640580D01*
X156010000Y-103359420D02*
X156010000Y-103640580D01*
%TO.C,J3*%
X121745000Y-140165000D02*
X121745000Y-147845000D01*
X121745000Y-150445000D02*
X121745000Y-149115000D01*
X123075000Y-150445000D02*
X121745000Y-150445000D01*
X124405000Y-140165000D02*
X121745000Y-140165000D01*
X124405000Y-140165000D02*
X124405000Y-147845000D01*
X124405000Y-147845000D02*
X121745000Y-147845000D01*
%TO.C,C16*%
X133990000Y-103665580D02*
X133990000Y-103384420D01*
X135010000Y-103665580D02*
X135010000Y-103384420D01*
%TO.C,C27*%
X145990000Y-109640580D02*
X145990000Y-109359420D01*
X147010000Y-109640580D02*
X147010000Y-109359420D01*
%TO.C,C28*%
X142990000Y-112640580D02*
X142990000Y-112359420D01*
X144010000Y-112640580D02*
X144010000Y-112359420D01*
%TO.C,C2*%
X136990000Y-94359420D02*
X136990000Y-94640580D01*
X138010000Y-94359420D02*
X138010000Y-94640580D01*
%TO.C,C30*%
X145990000Y-112359420D02*
X145990000Y-112640580D01*
X147010000Y-112359420D02*
X147010000Y-112640580D01*
%TO.C,C19*%
X154990000Y-100359420D02*
X154990000Y-100640580D01*
X156010000Y-100359420D02*
X156010000Y-100640580D01*
%TO.C,C29*%
X144490000Y-112359420D02*
X144490000Y-112640580D01*
X145510000Y-112359420D02*
X145510000Y-112640580D01*
%TO.C,C13*%
X136990000Y-100384420D02*
X136990000Y-100665580D01*
X138010000Y-100384420D02*
X138010000Y-100665580D01*
%TO.C,C22*%
X151990000Y-103640580D02*
X151990000Y-103359420D01*
X153010000Y-103640580D02*
X153010000Y-103359420D01*
D11*
%TO.C,U1*%
X144050000Y-98925000D02*
X144050000Y-99425000D01*
X144050000Y-99425000D02*
X144550000Y-99425000D01*
D12*
%TO.C,J2*%
X154125000Y-156170000D02*
X155235000Y-156170000D01*
X154125000Y-159880000D02*
X155235000Y-159880000D01*
X155825000Y-155120000D02*
X156075000Y-155620000D01*
X156075000Y-155620000D02*
X156325000Y-155120000D01*
X156325000Y-155120000D02*
X155825000Y-155120000D01*
X156915000Y-156170000D02*
X158025000Y-156170000D01*
X156915000Y-159880000D02*
X158025000Y-159880000D01*
%TO.C,C26*%
X144490000Y-109359420D02*
X144490000Y-109640580D01*
X145510000Y-109359420D02*
X145510000Y-109640580D01*
%TO.C,C11*%
X153490000Y-94384420D02*
X153490000Y-94665580D01*
X154510000Y-94384420D02*
X154510000Y-94665580D01*
%TO.C,C7*%
X151990000Y-91359420D02*
X151990000Y-91640580D01*
X153010000Y-91359420D02*
X153010000Y-91640580D01*
%TO.C,C9*%
X153490000Y-91640580D02*
X153490000Y-91359420D01*
X154510000Y-91640580D02*
X154510000Y-91359420D01*
%TO.C,C3*%
X133990000Y-94359420D02*
X133990000Y-94640580D01*
X135010000Y-94359420D02*
X135010000Y-94640580D01*
%TO.C,C21*%
X151990000Y-100640580D02*
X151990000Y-100359420D01*
X153010000Y-100640580D02*
X153010000Y-100359420D01*
%TO.C,C14*%
X135490000Y-100384420D02*
X135490000Y-100665580D01*
X136510000Y-100384420D02*
X136510000Y-100665580D01*
%TO.C,C25*%
X142990000Y-109359420D02*
X142990000Y-109640580D01*
X144010000Y-109359420D02*
X144010000Y-109640580D01*
%TO.C,C20*%
X153490000Y-100359420D02*
X153490000Y-100640580D01*
X154510000Y-100359420D02*
X154510000Y-100640580D01*
%TO.C,C15*%
X133990000Y-100665580D02*
X133990000Y-100384420D01*
X135010000Y-100665580D02*
X135010000Y-100384420D01*
%TD*%
M02*
