%TF.GenerationSoftware,KiCad,Pcbnew,8.0.5*%
%TF.CreationDate,2024-10-25T13:17:05-04:00*%
%TF.ProjectId,96wp_coils,39367770-5f63-46f6-996c-732e6b696361,rev?*%
%TF.SameCoordinates,Original*%
%TF.FileFunction,Paste,Bot*%
%TF.FilePolarity,Positive*%
%FSLAX46Y46*%
G04 Gerber Fmt 4.6, Leading zero omitted, Abs format (unit mm)*
G04 Created by KiCad (PCBNEW 8.0.5) date 2024-10-25 13:17:05*
%MOMM*%
%LPD*%
G01*
G04 APERTURE LIST*
G04 Aperture macros list*
%AMRoundRect*
0 Rectangle with rounded corners*
0 $1 Rounding radius*
0 $2 $3 $4 $5 $6 $7 $8 $9 X,Y pos of 4 corners*
0 Add a 4 corners polygon primitive as box body*
4,1,4,$2,$3,$4,$5,$6,$7,$8,$9,$2,$3,0*
0 Add four circle primitives for the rounded corners*
1,1,$1+$1,$2,$3*
1,1,$1+$1,$4,$5*
1,1,$1+$1,$6,$7*
1,1,$1+$1,$8,$9*
0 Add four rect primitives between the rounded corners*
20,1,$1+$1,$2,$3,$4,$5,0*
20,1,$1+$1,$4,$5,$6,$7,0*
20,1,$1+$1,$6,$7,$8,$9,0*
20,1,$1+$1,$8,$9,$2,$3,0*%
G04 Aperture macros list end*
%ADD10RoundRect,0.225000X0.250000X-0.225000X0.250000X0.225000X-0.250000X0.225000X-0.250000X-0.225000X0*%
%ADD11RoundRect,0.225000X-0.250000X0.225000X-0.250000X-0.225000X0.250000X-0.225000X0.250000X0.225000X0*%
%ADD12R,1.270000X3.600000*%
%ADD13R,1.350000X4.200000*%
%ADD14R,0.400000X0.200000*%
%ADD15R,0.200000X0.400000*%
%ADD16R,1.000000X1.000000*%
G04 APERTURE END LIST*
D10*
%TO.C,C17*%
X136000000Y-104300000D03*
X136000000Y-102750000D03*
%TD*%
%TO.C,C8*%
X155500000Y-92275000D03*
X155500000Y-90725000D03*
%TD*%
%TO.C,C5*%
X137500000Y-92275000D03*
X137500000Y-90725000D03*
%TD*%
D11*
%TO.C,C1*%
X136000000Y-93725000D03*
X136000000Y-95275000D03*
%TD*%
D10*
%TO.C,C18*%
X137500000Y-104300000D03*
X137500000Y-102750000D03*
%TD*%
%TO.C,C12*%
X155500000Y-95300000D03*
X155500000Y-93750000D03*
%TD*%
D11*
%TO.C,C10*%
X152500000Y-93750000D03*
X152500000Y-95300000D03*
%TD*%
D12*
%TO.C,J1*%
X134025000Y-158080000D03*
D13*
X136850000Y-157880000D03*
X131200000Y-157880000D03*
%TD*%
D10*
%TO.C,C23*%
X154000000Y-104275000D03*
X154000000Y-102725000D03*
%TD*%
D11*
%TO.C,C4*%
X136000000Y-90725000D03*
X136000000Y-92275000D03*
%TD*%
D10*
%TO.C,C6*%
X134500000Y-92275000D03*
X134500000Y-90725000D03*
%TD*%
%TO.C,C24*%
X155500000Y-104275000D03*
X155500000Y-102725000D03*
%TD*%
D11*
%TO.C,C16*%
X134500000Y-102750000D03*
X134500000Y-104300000D03*
%TD*%
%TO.C,C27*%
X146500000Y-108725000D03*
X146500000Y-110275000D03*
%TD*%
%TO.C,C28*%
X143500000Y-111725000D03*
X143500000Y-113275000D03*
%TD*%
D10*
%TO.C,C2*%
X137500000Y-95275000D03*
X137500000Y-93725000D03*
%TD*%
%TO.C,C30*%
X146500000Y-113275000D03*
X146500000Y-111725000D03*
%TD*%
%TO.C,C19*%
X155500000Y-101275000D03*
X155500000Y-99725000D03*
%TD*%
%TO.C,C29*%
X145000000Y-113275000D03*
X145000000Y-111725000D03*
%TD*%
%TO.C,C13*%
X137500000Y-101300000D03*
X137500000Y-99750000D03*
%TD*%
D11*
%TO.C,C22*%
X152500000Y-102725000D03*
X152500000Y-104275000D03*
%TD*%
D14*
%TO.C,U1*%
X144400000Y-98800000D03*
X144400000Y-98350000D03*
X144400000Y-97900000D03*
X144400000Y-97450000D03*
D15*
X144900000Y-97175000D03*
X145350000Y-97175000D03*
X145800000Y-97175000D03*
D14*
X146300000Y-97450000D03*
X146300000Y-97900000D03*
X146300000Y-98350000D03*
X146300000Y-98800000D03*
D15*
X145800000Y-99075000D03*
X145350000Y-99075000D03*
X144900000Y-99075000D03*
D16*
X145350000Y-98125000D03*
%TD*%
D12*
%TO.C,J2*%
X156075000Y-158080000D03*
D13*
X158900000Y-157880000D03*
X153250000Y-157880000D03*
%TD*%
D10*
%TO.C,C26*%
X145000000Y-110275000D03*
X145000000Y-108725000D03*
%TD*%
%TO.C,C11*%
X154000000Y-95300000D03*
X154000000Y-93750000D03*
%TD*%
%TO.C,C7*%
X152500000Y-92275000D03*
X152500000Y-90725000D03*
%TD*%
D11*
%TO.C,C9*%
X154000000Y-90725000D03*
X154000000Y-92275000D03*
%TD*%
D10*
%TO.C,C3*%
X134500000Y-95275000D03*
X134500000Y-93725000D03*
%TD*%
D11*
%TO.C,C21*%
X152500000Y-99725000D03*
X152500000Y-101275000D03*
%TD*%
D10*
%TO.C,C14*%
X136000000Y-101300000D03*
X136000000Y-99750000D03*
%TD*%
%TO.C,C25*%
X143500000Y-110275000D03*
X143500000Y-108725000D03*
%TD*%
%TO.C,C20*%
X154000000Y-101275000D03*
X154000000Y-99725000D03*
%TD*%
D11*
%TO.C,C15*%
X134500000Y-99750000D03*
X134500000Y-101300000D03*
%TD*%
M02*
