%TF.GenerationSoftware,KiCad,Pcbnew,8.0.5*%
%TF.CreationDate,2024-10-25T13:17:05-04:00*%
%TF.ProjectId,96wp_coils,39367770-5f63-46f6-996c-732e6b696361,rev?*%
%TF.SameCoordinates,Original*%
%TF.FileFunction,Copper,L4,Bot*%
%TF.FilePolarity,Positive*%
%FSLAX46Y46*%
G04 Gerber Fmt 4.6, Leading zero omitted, Abs format (unit mm)*
G04 Created by KiCad (PCBNEW 8.0.5) date 2024-10-25 13:17:05*
%MOMM*%
%LPD*%
G01*
G04 APERTURE LIST*
G04 Aperture macros list*
%AMRoundRect*
0 Rectangle with rounded corners*
0 $1 Rounding radius*
0 $2 $3 $4 $5 $6 $7 $8 $9 X,Y pos of 4 corners*
0 Add a 4 corners polygon primitive as box body*
4,1,4,$2,$3,$4,$5,$6,$7,$8,$9,$2,$3,0*
0 Add four circle primitives for the rounded corners*
1,1,$1+$1,$2,$3*
1,1,$1+$1,$4,$5*
1,1,$1+$1,$6,$7*
1,1,$1+$1,$8,$9*
0 Add four rect primitives between the rounded corners*
20,1,$1+$1,$2,$3,$4,$5,0*
20,1,$1+$1,$4,$5,$6,$7,0*
20,1,$1+$1,$6,$7,$8,$9,0*
20,1,$1+$1,$8,$9,$2,$3,0*%
G04 Aperture macros list end*
%TA.AperFunction,Conductor*%
%ADD10C,0.200000*%
%TD*%
%TA.AperFunction,SMDPad,CuDef*%
%ADD11RoundRect,0.225000X0.250000X-0.225000X0.250000X0.225000X-0.250000X0.225000X-0.250000X-0.225000X0*%
%TD*%
%TA.AperFunction,SMDPad,CuDef*%
%ADD12RoundRect,0.225000X-0.250000X0.225000X-0.250000X-0.225000X0.250000X-0.225000X0.250000X0.225000X0*%
%TD*%
%TA.AperFunction,SMDPad,CuDef*%
%ADD13R,1.270000X3.600000*%
%TD*%
%TA.AperFunction,SMDPad,CuDef*%
%ADD14R,1.350000X4.200000*%
%TD*%
%TA.AperFunction,ComponentPad*%
%ADD15R,1.700000X1.700000*%
%TD*%
%TA.AperFunction,ComponentPad*%
%ADD16O,1.700000X1.700000*%
%TD*%
%TA.AperFunction,SMDPad,CuDef*%
%ADD17R,0.400000X0.200000*%
%TD*%
%TA.AperFunction,SMDPad,CuDef*%
%ADD18R,0.200000X0.400000*%
%TD*%
%TA.AperFunction,SMDPad,CuDef*%
%ADD19R,1.000000X1.000000*%
%TD*%
%TA.AperFunction,ViaPad*%
%ADD20C,0.600000*%
%TD*%
%TA.AperFunction,ViaPad*%
%ADD21C,0.450000*%
%TD*%
G04 APERTURE END LIST*
D10*
%TO.N,Net-(C1-Pad1)*%
X138300000Y-94800000D02*
X138600000Y-96700000D01*
X147000000Y-112500000D02*
X147300000Y-112800000D01*
X153300000Y-102000000D02*
X153300000Y-103100000D01*
X156000000Y-103500000D02*
X156300000Y-103800000D01*
%TO.N,Net-(C13-Pad1)*%
X138300000Y-102700000D02*
X137450000Y-102700000D01*
%TO.N,Net-(C19-Pad1)*%
X156300000Y-102700000D02*
X155450000Y-102700000D01*
%TO.N,Net-(C1-Pad1)*%
X153700000Y-103500000D02*
X156000000Y-103500000D01*
X135700000Y-103500000D02*
X135300000Y-103100000D01*
X138300000Y-93700000D02*
X137450000Y-93700000D01*
X144700000Y-112500000D02*
X147000000Y-112500000D01*
%TO.N,Net-(C10-Pad1)*%
X156300000Y-93700000D02*
X155450000Y-93700000D01*
%TO.N,Net-(C1-Pad1)*%
X144300000Y-111000000D02*
X144300000Y-112100000D01*
X135300000Y-102000000D02*
X135300000Y-103100000D01*
X156000000Y-94500000D02*
X156300000Y-94800000D01*
X156300000Y-94800000D02*
X156600000Y-96700000D01*
X138000000Y-103500000D02*
X138300000Y-103800000D01*
X144700000Y-112500000D02*
X144300000Y-112100000D01*
X153700000Y-103500000D02*
X153300000Y-103100000D01*
X138000000Y-94500000D02*
X138300000Y-94800000D01*
X147300000Y-112800000D02*
X147600000Y-114700000D01*
X135300000Y-93000000D02*
X135300000Y-94100000D01*
X138300000Y-103800000D02*
X138600000Y-105700000D01*
X153300000Y-93000000D02*
X153300000Y-94100000D01*
X135700000Y-94500000D02*
X138000000Y-94500000D01*
X156300000Y-103800000D02*
X156600000Y-105700000D01*
X153700000Y-94500000D02*
X156000000Y-94500000D01*
X135700000Y-94500000D02*
X135300000Y-94100000D01*
X135700000Y-103500000D02*
X138000000Y-103500000D01*
%TO.N,Net-(C25-Pad1)*%
X147300000Y-111700000D02*
X146450000Y-111700000D01*
%TO.N,Net-(C1-Pad1)*%
X153700000Y-94500000D02*
X153300000Y-94100000D01*
%TD*%
D11*
%TO.P,C17,1*%
%TO.N,GND*%
X136000000Y-104300000D03*
%TO.P,C17,2*%
%TO.N,Net-(C13-Pad1)*%
X136000000Y-102750000D03*
%TD*%
%TO.P,C8,1*%
%TO.N,Net-(C10-Pad1)*%
X155500000Y-92275000D03*
%TO.P,C8,2*%
%TO.N,Net-(U1-RF2)*%
X155500000Y-90725000D03*
%TD*%
%TO.P,C5,1*%
%TO.N,Net-(C1-Pad1)*%
X137500000Y-92275000D03*
%TO.P,C5,2*%
%TO.N,Net-(U1-RF1)*%
X137500000Y-90725000D03*
%TD*%
D12*
%TO.P,C1,1*%
%TO.N,Net-(C1-Pad1)*%
X136000000Y-93725000D03*
%TO.P,C1,2*%
%TO.N,GND*%
X136000000Y-95275000D03*
%TD*%
D11*
%TO.P,C18,1*%
%TO.N,GND*%
X137500000Y-104300000D03*
%TO.P,C18,2*%
%TO.N,Net-(C13-Pad1)*%
X137500000Y-102750000D03*
%TD*%
%TO.P,C12,1*%
%TO.N,GND*%
X155500000Y-95300000D03*
%TO.P,C12,2*%
%TO.N,Net-(C10-Pad1)*%
X155500000Y-93750000D03*
%TD*%
D12*
%TO.P,C10,1*%
%TO.N,Net-(C10-Pad1)*%
X152500000Y-93750000D03*
%TO.P,C10,2*%
%TO.N,GND*%
X152500000Y-95300000D03*
%TD*%
D13*
%TO.P,J1,1,In*%
%TO.N,Net-(J1-In)*%
X134025000Y-158080000D03*
D14*
%TO.P,J1,2,Ext*%
%TO.N,GND*%
X136850000Y-157880000D03*
X131200000Y-157880000D03*
%TD*%
D11*
%TO.P,C23,1*%
%TO.N,GND*%
X154000000Y-104275000D03*
%TO.P,C23,2*%
%TO.N,Net-(C19-Pad1)*%
X154000000Y-102725000D03*
%TD*%
D12*
%TO.P,C4,1*%
%TO.N,Net-(U1-RF1)*%
X136000000Y-90725000D03*
%TO.P,C4,2*%
%TO.N,Net-(C1-Pad1)*%
X136000000Y-92275000D03*
%TD*%
D11*
%TO.P,C6,1*%
%TO.N,Net-(C1-Pad1)*%
X134500000Y-92275000D03*
%TO.P,C6,2*%
%TO.N,Net-(U1-RF1)*%
X134500000Y-90725000D03*
%TD*%
%TO.P,C24,1*%
%TO.N,GND*%
X155500000Y-104275000D03*
%TO.P,C24,2*%
%TO.N,Net-(C19-Pad1)*%
X155500000Y-102725000D03*
%TD*%
D15*
%TO.P,J3,1,Pin_1*%
%TO.N,Net-(J3-Pin_1)*%
X123075000Y-149115000D03*
D16*
%TO.P,J3,2,Pin_2*%
%TO.N,Net-(J3-Pin_2)*%
X123075000Y-146575000D03*
%TO.P,J3,3,Pin_3*%
%TO.N,Net-(J3-Pin_3)*%
X123075000Y-144035000D03*
%TO.P,J3,4,Pin_4*%
%TO.N,Net-(J3-Pin_4)*%
X123075000Y-141495000D03*
%TD*%
D12*
%TO.P,C16,1*%
%TO.N,Net-(C13-Pad1)*%
X134500000Y-102750000D03*
%TO.P,C16,2*%
%TO.N,GND*%
X134500000Y-104300000D03*
%TD*%
%TO.P,C27,1*%
%TO.N,Net-(J2-In)*%
X146500000Y-108725000D03*
%TO.P,C27,2*%
%TO.N,Net-(C25-Pad1)*%
X146500000Y-110275000D03*
%TD*%
%TO.P,C28,1*%
%TO.N,Net-(C25-Pad1)*%
X143500000Y-111725000D03*
%TO.P,C28,2*%
%TO.N,GND*%
X143500000Y-113275000D03*
%TD*%
D11*
%TO.P,C2,1*%
%TO.N,GND*%
X137500000Y-95275000D03*
%TO.P,C2,2*%
%TO.N,Net-(C1-Pad1)*%
X137500000Y-93725000D03*
%TD*%
%TO.P,C30,1*%
%TO.N,GND*%
X146500000Y-113275000D03*
%TO.P,C30,2*%
%TO.N,Net-(C25-Pad1)*%
X146500000Y-111725000D03*
%TD*%
%TO.P,C19,1*%
%TO.N,Net-(C19-Pad1)*%
X155500000Y-101275000D03*
%TO.P,C19,2*%
%TO.N,Net-(U1-RF4)*%
X155500000Y-99725000D03*
%TD*%
%TO.P,C29,1*%
%TO.N,GND*%
X145000000Y-113275000D03*
%TO.P,C29,2*%
%TO.N,Net-(C25-Pad1)*%
X145000000Y-111725000D03*
%TD*%
%TO.P,C13,1*%
%TO.N,Net-(C13-Pad1)*%
X137500000Y-101300000D03*
%TO.P,C13,2*%
%TO.N,Net-(U1-RF3)*%
X137500000Y-99750000D03*
%TD*%
D12*
%TO.P,C22,1*%
%TO.N,Net-(C19-Pad1)*%
X152500000Y-102725000D03*
%TO.P,C22,2*%
%TO.N,GND*%
X152500000Y-104275000D03*
%TD*%
D17*
%TO.P,U1,1,RF3*%
%TO.N,Net-(U1-RF3)*%
X144400000Y-98800000D03*
%TO.P,U1,2,GND*%
%TO.N,GND*%
X144400000Y-98350000D03*
%TO.P,U1,3,RF1*%
%TO.N,Net-(U1-RF1)*%
X144400000Y-97900000D03*
%TO.P,U1,4,VDD*%
%TO.N,Net-(J3-Pin_1)*%
X144400000Y-97450000D03*
D18*
%TO.P,U1,5,CTRL3*%
%TO.N,Net-(J3-Pin_2)*%
X144900000Y-97175000D03*
%TO.P,U1,6,CTRL2*%
%TO.N,Net-(J3-Pin_3)*%
X145350000Y-97175000D03*
%TO.P,U1,7,CTRL1*%
%TO.N,Net-(J3-Pin_4)*%
X145800000Y-97175000D03*
D17*
%TO.P,U1,8,NC*%
%TO.N,unconnected-(U1-NC-Pad8)*%
X146300000Y-97450000D03*
%TO.P,U1,9,RF2*%
%TO.N,Net-(U1-RF2)*%
X146300000Y-97900000D03*
%TO.P,U1,10,GND*%
%TO.N,GND*%
X146300000Y-98350000D03*
%TO.P,U1,11,RF4*%
%TO.N,Net-(U1-RF4)*%
X146300000Y-98800000D03*
D18*
%TO.P,U1,12,NC*%
%TO.N,unconnected-(U1-NC-Pad12)*%
X145800000Y-99075000D03*
%TO.P,U1,13,COM*%
%TO.N,Net-(J1-In)*%
X145350000Y-99075000D03*
%TO.P,U1,14,NC*%
%TO.N,unconnected-(U1-NC-Pad14)*%
X144900000Y-99075000D03*
D19*
%TO.P,U1,15,GND*%
%TO.N,GND*%
X145350000Y-98125000D03*
%TD*%
D13*
%TO.P,J2,1,In*%
%TO.N,Net-(J2-In)*%
X156075000Y-158080000D03*
D14*
%TO.P,J2,2,Ext*%
%TO.N,GND*%
X158900000Y-157880000D03*
X153250000Y-157880000D03*
%TD*%
D11*
%TO.P,C26,1*%
%TO.N,Net-(C25-Pad1)*%
X145000000Y-110275000D03*
%TO.P,C26,2*%
%TO.N,Net-(J2-In)*%
X145000000Y-108725000D03*
%TD*%
%TO.P,C11,1*%
%TO.N,GND*%
X154000000Y-95300000D03*
%TO.P,C11,2*%
%TO.N,Net-(C10-Pad1)*%
X154000000Y-93750000D03*
%TD*%
%TO.P,C7,1*%
%TO.N,Net-(C10-Pad1)*%
X152500000Y-92275000D03*
%TO.P,C7,2*%
%TO.N,Net-(U1-RF2)*%
X152500000Y-90725000D03*
%TD*%
D12*
%TO.P,C9,1*%
%TO.N,Net-(U1-RF2)*%
X154000000Y-90725000D03*
%TO.P,C9,2*%
%TO.N,Net-(C10-Pad1)*%
X154000000Y-92275000D03*
%TD*%
D11*
%TO.P,C3,1*%
%TO.N,GND*%
X134500000Y-95275000D03*
%TO.P,C3,2*%
%TO.N,Net-(C1-Pad1)*%
X134500000Y-93725000D03*
%TD*%
D12*
%TO.P,C21,1*%
%TO.N,Net-(U1-RF4)*%
X152500000Y-99725000D03*
%TO.P,C21,2*%
%TO.N,Net-(C19-Pad1)*%
X152500000Y-101275000D03*
%TD*%
D11*
%TO.P,C14,1*%
%TO.N,Net-(C13-Pad1)*%
X136000000Y-101300000D03*
%TO.P,C14,2*%
%TO.N,Net-(U1-RF3)*%
X136000000Y-99750000D03*
%TD*%
%TO.P,C25,1*%
%TO.N,Net-(C25-Pad1)*%
X143500000Y-110275000D03*
%TO.P,C25,2*%
%TO.N,Net-(J2-In)*%
X143500000Y-108725000D03*
%TD*%
%TO.P,C20,1*%
%TO.N,Net-(C19-Pad1)*%
X154000000Y-101275000D03*
%TO.P,C20,2*%
%TO.N,Net-(U1-RF4)*%
X154000000Y-99725000D03*
%TD*%
D12*
%TO.P,C15,1*%
%TO.N,Net-(U1-RF3)*%
X134500000Y-99750000D03*
%TO.P,C15,2*%
%TO.N,Net-(C13-Pad1)*%
X134500000Y-101300000D03*
%TD*%
D20*
%TO.N,Net-(J3-Pin_3)*%
X144723376Y-94803647D03*
%TO.N,Net-(J3-Pin_1)*%
X142500000Y-96000000D03*
%TO.N,Net-(J3-Pin_4)*%
X145792873Y-94953905D03*
D21*
%TO.N,GND*%
X133300000Y-104700000D03*
D20*
X147000000Y-96500000D03*
D21*
X153750000Y-105900000D03*
X153300000Y-102000000D03*
D20*
X144000000Y-100250000D03*
X143157738Y-98379802D03*
D21*
X153750000Y-96900000D03*
D20*
X144289192Y-96377705D03*
X146500000Y-100250000D03*
D21*
X135750000Y-105900000D03*
D20*
X147250000Y-98500000D03*
D21*
X133300000Y-95700000D03*
X135300000Y-102000000D03*
X144300000Y-111000000D03*
X142300000Y-113700000D03*
X151300000Y-95700000D03*
X144750000Y-114900000D03*
X153300000Y-93000000D03*
X151300000Y-104700000D03*
%TO.N,Net-(C1-Pad1)*%
X138600000Y-96700000D03*
X135300000Y-93000000D03*
X138800000Y-94400000D03*
X138300000Y-93700000D03*
X153200000Y-103600000D03*
X135750000Y-96900000D03*
X144200000Y-112600000D03*
X135200000Y-103600000D03*
X135200000Y-94600000D03*
X153200000Y-94600000D03*
X137650000Y-96900000D03*
%TO.N,Net-(C10-Pad1)*%
X155650000Y-96900000D03*
X156300000Y-93700000D03*
X156600000Y-96700000D03*
X156800000Y-94400000D03*
%TO.N,Net-(C13-Pad1)*%
X138800000Y-103400000D03*
X137650000Y-105900000D03*
X138300000Y-102700000D03*
X138600000Y-105700000D03*
%TO.N,Net-(C19-Pad1)*%
X155650000Y-105900000D03*
X156800000Y-103400000D03*
X156300000Y-102700000D03*
X156600000Y-105700000D03*
%TO.N,Net-(C25-Pad1)*%
X147800000Y-112400000D03*
X146681587Y-114775000D03*
X147600000Y-114700000D03*
X147300000Y-111700000D03*
D20*
%TO.N,Net-(J3-Pin_2)*%
X144000000Y-95250000D03*
%TD*%
D10*
%TO.N,Net-(J3-Pin_3)*%
X145350000Y-95430271D02*
X144723376Y-94803647D01*
X145350000Y-97175000D02*
X145350000Y-95430271D01*
%TO.N,Net-(U1-RF2)*%
X151775000Y-90725000D02*
X155500000Y-90725000D01*
X147034314Y-97900000D02*
X150034314Y-94900000D01*
X151500000Y-91000000D02*
X151775000Y-90725000D01*
X151500000Y-94500000D02*
X151500000Y-91000000D01*
X151100000Y-94900000D02*
X151500000Y-94500000D01*
X146300000Y-97900000D02*
X147034314Y-97900000D01*
X150034314Y-94900000D02*
X151100000Y-94900000D01*
%TO.N,Net-(J3-Pin_1)*%
X144400000Y-97450000D02*
X143950000Y-97450000D01*
X143950000Y-97450000D02*
X142500000Y-96000000D01*
%TO.N,Net-(J3-Pin_4)*%
X145800000Y-97175000D02*
X145800000Y-94961032D01*
X145800000Y-94961032D02*
X145792873Y-94953905D01*
%TO.N,Net-(U1-RF1)*%
X134500000Y-90725000D02*
X137500000Y-90725000D01*
X143584315Y-97900000D02*
X144400000Y-97900000D01*
X141850000Y-94350000D02*
X141850000Y-96519239D01*
X143184314Y-97500000D02*
X143584315Y-97900000D01*
X141850000Y-96519239D02*
X142230761Y-96900000D01*
X134500000Y-90725000D02*
X138225000Y-90725000D01*
X142230761Y-96900000D02*
X142465686Y-96900000D01*
X142465686Y-96900000D02*
X143065686Y-97500000D01*
X138225000Y-90725000D02*
X141850000Y-94350000D01*
X143065686Y-97500000D02*
X143184314Y-97500000D01*
%TO.N,Net-(U1-RF3)*%
X134500000Y-99750000D02*
X143000000Y-99750000D01*
X143000000Y-99750000D02*
X143950000Y-98800000D01*
X143950000Y-98800000D02*
X144400000Y-98800000D01*
%TO.N,GND*%
X146500000Y-113275000D02*
X143500000Y-113275000D01*
X155350000Y-118850000D02*
X155350000Y-152900000D01*
X152500000Y-104275000D02*
X151500000Y-103275000D01*
X134500000Y-95275000D02*
X133725000Y-95275000D01*
X137500000Y-104275000D02*
X134500000Y-104275000D01*
X146500000Y-100250000D02*
X146500000Y-99800000D01*
X138542463Y-106500000D02*
X139500000Y-105542463D01*
X136000000Y-105250000D02*
X137250000Y-106500000D01*
X151725000Y-95275000D02*
X151300000Y-95700000D01*
X155500000Y-95275000D02*
X152500000Y-95275000D01*
X146500000Y-99800000D02*
X146550000Y-99850000D01*
X141250000Y-100500000D02*
X141500000Y-100250000D01*
X152500000Y-95300000D02*
X150200000Y-95300000D01*
X151000000Y-100250000D02*
X146500000Y-100250000D01*
X145900000Y-102450000D02*
X135050000Y-113300000D01*
X142277936Y-97500000D02*
X143157738Y-98379802D01*
X147100000Y-98350000D02*
X147250000Y-98500000D01*
X147250000Y-98250000D02*
X147250000Y-98500000D01*
X139500000Y-105542463D02*
X139500000Y-101750000D01*
X134500000Y-104275000D02*
X133725000Y-104275000D01*
X151500000Y-100750000D02*
X151000000Y-100250000D01*
X136000000Y-96000000D02*
X137500000Y-97500000D01*
X150200000Y-95300000D02*
X147250000Y-98250000D01*
X144400000Y-98350000D02*
X143187540Y-98350000D01*
X144400000Y-98350000D02*
X145125000Y-98350000D01*
X136850000Y-154350000D02*
X136850000Y-157880000D01*
X145900000Y-99850000D02*
X145900000Y-102450000D01*
X141500000Y-100250000D02*
X144000000Y-100250000D01*
X145125000Y-98350000D02*
X145350000Y-98125000D01*
X145000000Y-113275000D02*
X145000000Y-114000000D01*
X145000000Y-114000000D02*
X146350000Y-115350000D01*
X146350000Y-115350000D02*
X151850000Y-115350000D01*
X155500000Y-104275000D02*
X152500000Y-104275000D01*
X143500000Y-113275000D02*
X142725000Y-113275000D01*
X146300000Y-98350000D02*
X147100000Y-98350000D01*
X153250000Y-155000000D02*
X153250000Y-157880000D01*
X135050000Y-113300000D02*
X135050000Y-152550000D01*
X135050000Y-152550000D02*
X136850000Y-154350000D01*
X151850000Y-115350000D02*
X155350000Y-118850000D01*
X151500000Y-103275000D02*
X151500000Y-100750000D01*
X136000000Y-95275000D02*
X136000000Y-96000000D01*
X137250000Y-106500000D02*
X138542463Y-106500000D01*
X146300000Y-98350000D02*
X145575000Y-98350000D01*
X139500000Y-101750000D02*
X140750000Y-100500000D01*
X140750000Y-100500000D02*
X141250000Y-100500000D01*
X143187540Y-98350000D02*
X143157738Y-98379802D01*
X152500000Y-104275000D02*
X151725000Y-104275000D01*
X145575000Y-98350000D02*
X145350000Y-98125000D01*
X133725000Y-95275000D02*
X133300000Y-95700000D01*
X137500000Y-97500000D02*
X142277936Y-97500000D01*
X142725000Y-113275000D02*
X142300000Y-113700000D01*
X146550000Y-99850000D02*
X145900000Y-99850000D01*
X137500000Y-95275000D02*
X134500000Y-95275000D01*
X151725000Y-104275000D02*
X151300000Y-104700000D01*
X133725000Y-104275000D02*
X133300000Y-104700000D01*
X152500000Y-95275000D02*
X151725000Y-95275000D01*
X155350000Y-152900000D02*
X153250000Y-155000000D01*
X136000000Y-104300000D02*
X136000000Y-105250000D01*
%TO.N,Net-(J1-In)*%
X145350000Y-99075000D02*
X145350000Y-102150000D01*
X145350000Y-102150000D02*
X134025000Y-113475000D01*
X134025000Y-113475000D02*
X134025000Y-158080000D01*
%TO.N,Net-(U1-RF4)*%
X155500000Y-99725000D02*
X152500000Y-99725000D01*
X147225000Y-99725000D02*
X146300000Y-98800000D01*
X152500000Y-99725000D02*
X147225000Y-99725000D01*
%TO.N,Net-(C1-Pad1)*%
X134500000Y-92275000D02*
X134500000Y-93725000D01*
X137500000Y-93725000D02*
X136000000Y-93725000D01*
X137500000Y-93725000D02*
X137500000Y-92275000D01*
X137500000Y-92275000D02*
X136000000Y-92275000D01*
X136000000Y-92275000D02*
X134500000Y-92275000D01*
X136000000Y-93725000D02*
X136000000Y-92275000D01*
%TO.N,Net-(C10-Pad1)*%
X155500000Y-93750000D02*
X155500000Y-92275000D01*
X154000000Y-93750000D02*
X155500000Y-93750000D01*
X152500000Y-92275000D02*
X152500000Y-93750000D01*
X155500000Y-92275000D02*
X152500000Y-92275000D01*
X154000000Y-92275000D02*
X154000000Y-93750000D01*
%TO.N,Net-(C13-Pad1)*%
X137500000Y-101300000D02*
X134500000Y-101300000D01*
X134500000Y-101300000D02*
X134500000Y-102750000D01*
X137500000Y-101300000D02*
X137500000Y-102750000D01*
X136000000Y-102750000D02*
X136000000Y-101300000D01*
X136000000Y-102750000D02*
X137500000Y-102750000D01*
%TO.N,Net-(C19-Pad1)*%
X155500000Y-102725000D02*
X155500000Y-101275000D01*
X154000000Y-102725000D02*
X154000000Y-101275000D01*
X155500000Y-101275000D02*
X152500000Y-101275000D01*
X152500000Y-101275000D02*
X152500000Y-102725000D01*
X154000000Y-102725000D02*
X155500000Y-102725000D01*
%TO.N,Net-(C25-Pad1)*%
X145000000Y-110275000D02*
X145000000Y-111725000D01*
X146500000Y-111725000D02*
X146500000Y-110275000D01*
X146500000Y-110275000D02*
X143500000Y-110275000D01*
X145000000Y-111725000D02*
X146500000Y-111725000D01*
X143500000Y-110275000D02*
X143500000Y-111725000D01*
%TO.N,Net-(J2-In)*%
X156075000Y-118300000D02*
X156075000Y-158080000D01*
X146500000Y-108725000D02*
X156075000Y-118300000D01*
X143500000Y-108725000D02*
X146500000Y-108725000D01*
%TO.N,Net-(J3-Pin_2)*%
X144900000Y-97175000D02*
X144900000Y-96139984D01*
X144755008Y-95994992D02*
X144010016Y-95250000D01*
X144010016Y-95250000D02*
X144000000Y-95250000D01*
X144900000Y-96139984D02*
X144755008Y-95994992D01*
%TD*%
%TA.AperFunction,Conductor*%
%TO.N,GND*%
G36*
X144542539Y-99120185D02*
G01*
X144588294Y-99172989D01*
X144599500Y-99224500D01*
X144599500Y-99294752D01*
X144611131Y-99353229D01*
X144611132Y-99353230D01*
X144655447Y-99419552D01*
X144721769Y-99463867D01*
X144721770Y-99463868D01*
X144780247Y-99475499D01*
X144780250Y-99475500D01*
X144925500Y-99475500D01*
X144992539Y-99495185D01*
X145038294Y-99547989D01*
X145049500Y-99599500D01*
X145049500Y-100626000D01*
X145029815Y-100693039D01*
X144977011Y-100738794D01*
X144925500Y-100750000D01*
X143124000Y-100750000D01*
X143056961Y-100730315D01*
X143011206Y-100677511D01*
X143000000Y-100626000D01*
X143000000Y-100156248D01*
X143019685Y-100089209D01*
X143072489Y-100043454D01*
X143091901Y-100036475D01*
X143115989Y-100030021D01*
X143184511Y-99990460D01*
X143240460Y-99934511D01*
X144038152Y-99136819D01*
X144099475Y-99103334D01*
X144125833Y-99100500D01*
X144180252Y-99100500D01*
X144475500Y-99100500D01*
X144542539Y-99120185D01*
G37*
%TD.AperFunction*%
%TA.AperFunction,Conductor*%
G36*
X146262788Y-99204931D02*
G01*
X146309216Y-99234187D01*
X147040489Y-99965460D01*
X147109012Y-100005022D01*
X147185438Y-100025500D01*
X147185440Y-100025500D01*
X147376000Y-100025500D01*
X147443039Y-100045185D01*
X147488794Y-100097989D01*
X147500000Y-100149500D01*
X147500000Y-100626000D01*
X147480315Y-100693039D01*
X147427511Y-100738794D01*
X147376000Y-100750000D01*
X145774500Y-100750000D01*
X145707461Y-100730315D01*
X145661706Y-100677511D01*
X145650500Y-100626000D01*
X145650500Y-99599500D01*
X145670185Y-99532461D01*
X145722989Y-99486706D01*
X145774500Y-99475500D01*
X145919750Y-99475500D01*
X145919751Y-99475499D01*
X145934568Y-99472552D01*
X145978229Y-99463868D01*
X145978229Y-99463867D01*
X145978231Y-99463867D01*
X146044552Y-99419552D01*
X146088867Y-99353231D01*
X146088867Y-99353229D01*
X146088868Y-99353229D01*
X146099918Y-99297677D01*
X146132303Y-99235766D01*
X146193018Y-99201192D01*
X146262788Y-99204931D01*
G37*
%TD.AperFunction*%
%TA.AperFunction,Conductor*%
G36*
X147419334Y-98042465D02*
G01*
X147475267Y-98084337D01*
X147499684Y-98149801D01*
X147500000Y-98158647D01*
X147500000Y-99275667D01*
X147480315Y-99342706D01*
X147427511Y-99388461D01*
X147358353Y-99398405D01*
X147294797Y-99369380D01*
X147288319Y-99363348D01*
X146879639Y-98954668D01*
X146846154Y-98893345D01*
X146851138Y-98823653D01*
X146868054Y-98792676D01*
X146943350Y-98692093D01*
X146943354Y-98692086D01*
X146993596Y-98557379D01*
X146993598Y-98557372D01*
X146999999Y-98497844D01*
X147000000Y-98497827D01*
X147000000Y-98315443D01*
X147019685Y-98248404D01*
X147072489Y-98202649D01*
X147091897Y-98195671D01*
X147150303Y-98180021D01*
X147218825Y-98140460D01*
X147274774Y-98084511D01*
X147288319Y-98070966D01*
X147349642Y-98037481D01*
X147419334Y-98042465D01*
G37*
%TD.AperFunction*%
%TA.AperFunction,Conductor*%
G36*
X143205203Y-97946305D02*
G01*
X143211674Y-97952330D01*
X143343855Y-98084511D01*
X143399804Y-98140460D01*
X143399806Y-98140461D01*
X143399810Y-98140464D01*
X143468319Y-98180017D01*
X143468326Y-98180021D01*
X143544753Y-98200500D01*
X143544755Y-98200500D01*
X143576000Y-98200500D01*
X143643039Y-98220185D01*
X143688794Y-98272989D01*
X143700000Y-98324500D01*
X143700000Y-98497828D01*
X143706006Y-98553694D01*
X143693600Y-98622454D01*
X143670397Y-98654630D01*
X143211681Y-99113347D01*
X143150358Y-99146832D01*
X143080667Y-99141848D01*
X143024733Y-99099977D01*
X143000316Y-99034512D01*
X143000000Y-99025666D01*
X143000000Y-98040018D01*
X143019685Y-97972979D01*
X143072489Y-97927224D01*
X143141647Y-97917280D01*
X143205203Y-97946305D01*
G37*
%TD.AperFunction*%
%TA.AperFunction,Conductor*%
G36*
X147443039Y-96019685D02*
G01*
X147488794Y-96072489D01*
X147500000Y-96124000D01*
X147500000Y-96957981D01*
X147480315Y-97025020D01*
X147463681Y-97045662D01*
X146946162Y-97563181D01*
X146884839Y-97596666D01*
X146858481Y-97599500D01*
X146824500Y-97599500D01*
X146757461Y-97579815D01*
X146711706Y-97527011D01*
X146700500Y-97475500D01*
X146700500Y-97330249D01*
X146700499Y-97330247D01*
X146688868Y-97271770D01*
X146688867Y-97271769D01*
X146644552Y-97205447D01*
X146578230Y-97161132D01*
X146578229Y-97161131D01*
X146519752Y-97149500D01*
X146519748Y-97149500D01*
X146224500Y-97149500D01*
X146157461Y-97129815D01*
X146111706Y-97077011D01*
X146100500Y-97025500D01*
X146100500Y-96124000D01*
X146120185Y-96056961D01*
X146172989Y-96011206D01*
X146224500Y-96000000D01*
X147376000Y-96000000D01*
X147443039Y-96019685D01*
G37*
%TD.AperFunction*%
%TA.AperFunction,Conductor*%
G36*
X144350722Y-96019685D02*
G01*
X144371364Y-96036319D01*
X144563181Y-96228136D01*
X144596666Y-96289459D01*
X144599500Y-96315817D01*
X144599500Y-97025500D01*
X144579815Y-97092539D01*
X144527011Y-97138294D01*
X144475500Y-97149500D01*
X144125833Y-97149500D01*
X144058794Y-97129815D01*
X144038152Y-97113181D01*
X143136652Y-96211681D01*
X143103167Y-96150358D01*
X143108151Y-96080666D01*
X143150023Y-96024733D01*
X143215487Y-96000316D01*
X143224333Y-96000000D01*
X144283683Y-96000000D01*
X144350722Y-96019685D01*
G37*
%TD.AperFunction*%
%TD*%
M02*
