%TF.GenerationSoftware,KiCad,Pcbnew,8.0.5*%
%TF.CreationDate,2024-10-25T13:17:05-04:00*%
%TF.ProjectId,96wp_coils,39367770-5f63-46f6-996c-732e6b696361,rev?*%
%TF.SameCoordinates,Original*%
%TF.FileFunction,Copper,L1,Top*%
%TF.FilePolarity,Positive*%
%FSLAX46Y46*%
G04 Gerber Fmt 4.6, Leading zero omitted, Abs format (unit mm)*
G04 Created by KiCad (PCBNEW 8.0.5) date 2024-10-25 13:17:05*
%MOMM*%
%LPD*%
G01*
G04 APERTURE LIST*
%ADD10C,0.200000*%
%TA.AperFunction,Conductor*%
%ADD11C,0.200000*%
%TD*%
%TA.AperFunction,SMDPad,CuDef*%
%ADD12R,1.350000X4.200000*%
%TD*%
%TA.AperFunction,ComponentPad*%
%ADD13R,1.700000X1.700000*%
%TD*%
%TA.AperFunction,ComponentPad*%
%ADD14O,1.700000X1.700000*%
%TD*%
%TA.AperFunction,ViaPad*%
%ADD15C,0.600000*%
%TD*%
%TA.AperFunction,ViaPad*%
%ADD16C,0.450000*%
%TD*%
G04 APERTURE END LIST*
D10*
X148834044Y-108503162D02*
X148681805Y-108364345D01*
X148571654Y-108273312D01*
X133333993Y-103183187D02*
X133467954Y-103332697D01*
X133565956Y-103431438D01*
X159319170Y-92279450D02*
X159301761Y-92092622D01*
X140962279Y-91015020D02*
X140861839Y-90835654D01*
X140763534Y-90681057D01*
X142828346Y-112661288D02*
X142988629Y-112781760D01*
X143119330Y-112870784D01*
D11*
%TO.N,Net-(C10-Pad1)*%
X155450000Y-95249957D02*
X156800000Y-94400000D01*
D10*
X145475150Y-106736702D02*
X145272318Y-106748251D01*
X145251400Y-106749854D01*
D11*
%TO.N,Net-(C13-Pad1)*%
X137450000Y-98387437D02*
X137450000Y-98387439D01*
D10*
X132874965Y-103569572D02*
X133016236Y-103728279D01*
X133148807Y-103862700D01*
X140170042Y-90881844D02*
X140066007Y-90751413D01*
X140558610Y-100577479D02*
X140478409Y-100389428D01*
X140430192Y-100292299D01*
X158962279Y-100015020D02*
X158861839Y-99835654D01*
X158763534Y-99681057D01*
X152544598Y-98161491D02*
X152359403Y-98244508D01*
X152347225Y-98250287D01*
X133455187Y-89803469D02*
X133298089Y-89934503D01*
X133148807Y-90071900D01*
X152605157Y-89792017D02*
X152436970Y-89876633D01*
X134605157Y-98792017D02*
X134436970Y-98876633D01*
X142565956Y-112431438D02*
X142718194Y-112570254D01*
X142828346Y-112661288D01*
X149706348Y-110166676D02*
X149672066Y-109961905D01*
X149650752Y-109869534D01*
X158763534Y-103253543D02*
X158874263Y-103078067D01*
X158962279Y-102919580D01*
X132377615Y-92586721D02*
X132412542Y-92920450D01*
X132486439Y-93244328D01*
X132597407Y-93556847D01*
X132743548Y-93856500D01*
X132922964Y-94141781D01*
X133133759Y-94411181D01*
X133374034Y-94663194D01*
X133641891Y-94896313D01*
X133935433Y-95109031D01*
X134252763Y-95299841D01*
X134591982Y-95467236D01*
X134951192Y-95609708D01*
X135328497Y-95725751D01*
X135523342Y-95773390D01*
X135721998Y-95813857D01*
X135924230Y-95846963D01*
X136129798Y-95872520D01*
X136338467Y-95890339D01*
X136550000Y-95900233D01*
X138855402Y-89161491D02*
X138666266Y-89085625D01*
X138473621Y-89017013D01*
X138447683Y-89008414D01*
D11*
%TO.N,GND*%
X135950000Y-89387437D02*
X135950000Y-95249957D01*
D10*
X134952317Y-89008414D02*
X134759221Y-89076057D01*
X134569604Y-89150956D01*
X134544598Y-89161491D01*
X156621014Y-104220785D02*
X156794843Y-104142583D01*
X156855402Y-104773109D02*
X157040596Y-104690091D01*
X157052775Y-104684313D01*
X143544598Y-107161491D02*
X143359403Y-107244508D01*
X143347225Y-107250287D01*
X150377615Y-101586721D02*
X150412542Y-101920450D01*
X150486439Y-102244328D01*
X150597407Y-102556847D01*
X150743548Y-102856500D01*
X150922964Y-103141781D01*
X151133759Y-103411181D01*
X151374034Y-103663194D01*
X151641891Y-103896313D01*
X151935433Y-104109031D01*
X152252763Y-104299841D01*
X152591982Y-104467236D01*
X152951192Y-104609708D01*
X153328497Y-104725751D01*
X153523342Y-104773390D01*
X153721998Y-104813857D01*
X153924230Y-104846963D01*
X154129798Y-104872520D01*
X154338467Y-104890339D01*
X154550000Y-104900233D01*
X132098239Y-92092622D02*
X132080830Y-92279450D01*
X141167256Y-109723637D02*
X141122868Y-109930308D01*
X141098239Y-110092622D01*
X134778986Y-104220785D02*
X134968610Y-104296264D01*
X135139681Y-104356191D01*
X152778986Y-95220785D02*
X152968610Y-95296264D01*
X153139681Y-95356191D01*
X150280858Y-100363461D02*
X150215033Y-100553525D01*
X150167256Y-100723637D01*
X139052775Y-95684313D02*
X139232608Y-95594142D01*
X139244404Y-95587900D01*
X156855402Y-95773109D02*
X157040596Y-95690091D01*
X157052775Y-95684313D01*
X135374649Y-88888463D02*
X135175043Y-88940540D01*
X134978313Y-88999943D01*
X134952317Y-89008414D01*
X139571654Y-103661288D02*
X139731017Y-103527143D01*
X139834044Y-103431438D01*
X158962279Y-93919580D02*
X159050911Y-93736107D01*
X159119142Y-93571139D01*
X139834044Y-94431438D02*
X139975551Y-94286136D01*
X140066007Y-94183187D01*
X150301761Y-110092622D02*
X150268498Y-109884168D01*
X150232744Y-109723637D01*
X158525035Y-99365028D02*
X158383763Y-99206320D01*
X158251193Y-99071900D01*
X132874965Y-90365028D02*
X132751067Y-90520370D01*
X151791586Y-89561238D02*
X151619787Y-89678985D01*
X151455187Y-89803469D01*
X139244404Y-98346700D02*
X139064930Y-98256094D01*
X139052775Y-98250287D01*
X132636466Y-94253543D02*
X132751067Y-94414230D01*
X141167256Y-111210963D02*
X141222136Y-111403593D01*
X141280858Y-111571139D01*
X140706348Y-92767924D02*
X140723171Y-92561432D01*
X140725000Y-92467300D01*
X149265708Y-111918627D02*
X149372737Y-111747058D01*
X149430192Y-111642301D01*
X156621014Y-95220785D02*
X156794843Y-95142583D01*
X139280670Y-103870784D02*
X139447754Y-103755563D01*
X139571654Y-103661288D01*
X150098239Y-101841978D02*
X150131501Y-102050431D01*
X150167256Y-102210963D01*
X154250000Y-98050944D02*
X154039844Y-98072487D01*
X153833239Y-98101780D01*
X153630403Y-98138620D01*
X153431557Y-98182808D01*
X153236922Y-98234141D01*
X152861161Y-98357440D01*
X152504883Y-98506911D01*
X152169848Y-98680944D01*
X151857817Y-98877931D01*
X151570553Y-99096266D01*
X151309816Y-99334338D01*
X151077367Y-99590541D01*
X150874968Y-99863266D01*
X150704379Y-100150905D01*
X150567363Y-100451849D01*
X150465680Y-100764491D01*
X150401092Y-101087223D01*
X150375359Y-101418436D01*
X150377615Y-101586721D01*
X150437721Y-100015020D02*
X150349088Y-100198492D01*
X150280858Y-100363461D01*
X158430192Y-93642301D02*
X158518543Y-93456028D01*
X158558610Y-93357121D01*
X158265708Y-102918627D02*
X158372737Y-102747058D01*
X158430192Y-102642301D01*
D11*
%TO.N,Net-(C19-Pad1)*%
X155150000Y-98050944D02*
X155150000Y-104582562D01*
D10*
X151565956Y-103431438D02*
X151718194Y-103570254D01*
X151828346Y-103661288D01*
X158170042Y-99881844D02*
X158066007Y-99751413D01*
X158650752Y-100869534D02*
X158594388Y-100677197D01*
X158558610Y-100577479D01*
X134544598Y-89161491D02*
X134359403Y-89244508D01*
X134347225Y-89250287D01*
D11*
%TO.N,GND*%
X154250000Y-89050944D02*
X154250000Y-95582562D01*
D10*
X144902361Y-107394739D02*
X144683266Y-107434398D01*
X144467482Y-107483522D01*
X144255553Y-107541965D01*
X144139681Y-107578409D01*
X143952317Y-107008414D02*
X143759221Y-107076057D01*
X143569604Y-107150956D01*
X143544598Y-107161491D01*
X150075000Y-92467300D02*
X150080830Y-92655150D01*
X133333993Y-99751413D02*
X133229958Y-99881844D01*
X158650752Y-102065066D02*
X158692920Y-101861253D01*
X158706348Y-101767924D01*
X158763534Y-90681057D02*
X158648933Y-90520370D01*
X134119330Y-90063816D02*
X133952245Y-90179036D01*
X133828346Y-90273312D01*
D11*
X151455187Y-95131131D02*
X151300000Y-95700000D01*
D10*
X151791586Y-98561238D02*
X151619787Y-98678985D01*
X151455187Y-98803469D01*
X146497639Y-113539861D02*
X146716733Y-113500201D01*
X146932517Y-113451077D01*
X147144446Y-113392634D01*
X147260319Y-113356191D01*
X138794843Y-104142583D02*
X138963030Y-104057967D01*
X150167256Y-102210963D02*
X150222136Y-102403593D01*
X150280858Y-102571139D01*
X151148807Y-103862700D02*
X151298089Y-104000096D01*
X151455187Y-104131131D01*
X134347225Y-98250287D02*
X134167391Y-98340457D01*
X134155596Y-98346700D01*
X150098239Y-92841978D02*
X150131501Y-93050431D01*
X150167256Y-93210963D01*
X136251400Y-97749854D02*
X136042961Y-97770062D01*
X135836095Y-97797831D01*
X135808649Y-97802102D01*
X149962279Y-111919580D02*
X150050911Y-111736107D01*
X150119142Y-111571139D01*
X140962279Y-102919580D02*
X141050911Y-102736107D01*
X141119142Y-102571139D01*
D11*
%TO.N,Net-(C13-Pad1)*%
X138447683Y-104926186D02*
X138600000Y-105700000D01*
D10*
X150280858Y-102571139D02*
X150358896Y-102757892D01*
X150437721Y-102919580D01*
X132437721Y-93919580D02*
X132538160Y-94098945D01*
X132636466Y-94253543D01*
X141841390Y-111357121D02*
X141921590Y-111545171D01*
X141969808Y-111642301D01*
X150969808Y-102642301D02*
X151073679Y-102824750D01*
X151134292Y-102918627D01*
X145251400Y-106749854D02*
X145042961Y-106770062D01*
X144836095Y-106797831D01*
X144808649Y-106802102D01*
X132749248Y-102065066D02*
X132805611Y-102257402D01*
X132841390Y-102357121D01*
X139834044Y-90503162D02*
X139681805Y-90364345D01*
X139571654Y-90273312D01*
X150874965Y-99365028D02*
X150751067Y-99520370D01*
X148944813Y-113131131D02*
X149101910Y-113000096D01*
X149251193Y-112862700D01*
X152119330Y-99063816D02*
X151952245Y-99179036D01*
X151828346Y-99273312D01*
X149265708Y-109015973D02*
X149170042Y-108881844D01*
X132280858Y-91363461D02*
X132215033Y-91553525D01*
X132167256Y-91723637D01*
X141080830Y-110279450D02*
X141075000Y-110467300D01*
X158525035Y-103569572D02*
X158648933Y-103414230D01*
X140706348Y-101767924D02*
X140723171Y-101561432D01*
X140725000Y-101467300D01*
X158648933Y-94414230D02*
X158763534Y-94253543D01*
X136850000Y-104900233D02*
X137061532Y-104890339D01*
X137270201Y-104872520D01*
X137475769Y-104846963D01*
X137678001Y-104813857D01*
X137876657Y-104773390D01*
X138071502Y-104725751D01*
X138448807Y-104609708D01*
X138808017Y-104467236D01*
X139147236Y-104299841D01*
X139464566Y-104109031D01*
X139758108Y-103896313D01*
X140025965Y-103663194D01*
X140266240Y-103411181D01*
X140477035Y-103141781D01*
X140656451Y-102856500D01*
X140802592Y-102556847D01*
X140913560Y-102244328D01*
X140987457Y-101920450D01*
X141022385Y-101586721D01*
X143155596Y-107346700D02*
X142970284Y-107450415D01*
X142791586Y-107561238D01*
X159319170Y-101655150D02*
X159325000Y-101467300D01*
X144902361Y-113539861D02*
X145108094Y-113568070D01*
X145250000Y-113582561D01*
X148280670Y-112870784D02*
X148447754Y-112755563D01*
X148571654Y-112661288D01*
X147855402Y-113773109D02*
X148040596Y-113690091D01*
X148052775Y-113684313D01*
X132693652Y-101767924D02*
X132727933Y-101972694D01*
X132749248Y-102065066D01*
X152605157Y-104142583D02*
X152778986Y-104220785D01*
X149650752Y-111065066D02*
X149692920Y-110861253D01*
X149706348Y-110767924D01*
X135808649Y-88802102D02*
X135603944Y-88838368D01*
X135401463Y-88882075D01*
X135374649Y-88888463D01*
X140558610Y-93357121D02*
X140623185Y-93166112D01*
X140650752Y-93065066D01*
X159301761Y-101092622D02*
X159268498Y-100884168D01*
X159232744Y-100723637D01*
X149650752Y-109869534D02*
X149594388Y-109677197D01*
X149558610Y-109577479D01*
X159232744Y-93210963D02*
X159277131Y-93004291D01*
X159301761Y-92841978D01*
X156447683Y-89008414D02*
X156251360Y-88948038D01*
X156052119Y-88894981D01*
X156025351Y-88888463D01*
D11*
X137150000Y-98050944D02*
X137150000Y-104582562D01*
D10*
X145550000Y-106734259D02*
X145475150Y-106736702D01*
X138621014Y-104220785D02*
X138794843Y-104142583D01*
X132693652Y-101166676D02*
X132676828Y-101373167D01*
X132675000Y-101467300D01*
X138260319Y-89578409D02*
X138050766Y-89514849D01*
X137837056Y-89460530D01*
X137619734Y-89415595D01*
X137497639Y-89394739D01*
D11*
%TO.N,GND*%
X133455187Y-104131131D02*
X133300000Y-104700000D01*
D10*
X132437721Y-91015020D02*
X132349088Y-91198492D01*
X132280858Y-91363461D01*
X143119330Y-112870784D02*
X143294848Y-112978943D01*
X143436970Y-113057967D01*
X150969808Y-93642301D02*
X151073679Y-93824750D01*
X151134292Y-93918627D01*
X150693652Y-92166676D02*
X150676828Y-92373167D01*
X150675000Y-92467300D01*
D11*
%TO.N,Net-(C25-Pad1)*%
X145850000Y-106734259D02*
X145850000Y-113900233D01*
%TO.N,GND*%
X136250000Y-95582562D02*
X136250000Y-95582561D01*
D10*
X154924850Y-97736702D02*
X154850000Y-97734259D01*
X158430192Y-100292299D02*
X158326320Y-100109849D01*
X158265708Y-100015973D01*
X158251193Y-99071900D02*
X158101910Y-98934503D01*
X157944813Y-98803469D01*
X158558610Y-102357121D02*
X158623185Y-102166112D01*
X158650752Y-102065066D01*
X140066007Y-99751413D02*
X139932045Y-99601902D01*
X139834044Y-99503162D01*
X142455187Y-107803469D02*
X142298089Y-107934503D01*
X142148807Y-108071900D01*
X132437721Y-102919580D02*
X132538160Y-103098945D01*
X132636466Y-103253543D01*
X133229958Y-94052756D02*
X133333993Y-94183187D01*
D11*
%TO.N,Net-(C19-Pad1)*%
X155450000Y-98387437D02*
X155450000Y-104249957D01*
D10*
X141301761Y-92841978D02*
X141319170Y-92655150D01*
X142134292Y-111918627D02*
X142229958Y-112052756D01*
D11*
%TO.N,Net-(C13-Pad1)*%
X137450000Y-104249957D02*
X138800000Y-103400000D01*
D10*
X132075000Y-101467300D02*
X132080830Y-101655150D01*
X140763534Y-99681057D02*
X140648933Y-99520370D01*
X137148600Y-88749854D02*
X136945883Y-88737564D01*
X136924850Y-88736702D01*
X132080830Y-92279450D02*
X132075000Y-92467300D01*
X156794843Y-98792017D02*
X156621014Y-98713815D01*
X157608414Y-104373362D02*
X157780212Y-104255614D01*
X157944813Y-104131131D01*
X153139681Y-104356191D02*
X153349233Y-104419750D01*
X153562943Y-104474069D01*
X153780265Y-104519004D01*
X153902361Y-104539861D01*
X156963030Y-95057967D02*
X157144866Y-94955535D01*
X157280670Y-94870784D01*
X140170042Y-99881844D02*
X140066007Y-99751413D01*
D11*
%TO.N,Net-(C25-Pad1)*%
X146150000Y-107050944D02*
X146150000Y-113582562D01*
D10*
X141319170Y-101279450D02*
X141301761Y-101092622D01*
X153139681Y-89578409D02*
X152946061Y-89646799D01*
X152778986Y-89713815D01*
D11*
%TO.N,Net-(C10-Pad1)*%
X155450000Y-89387437D02*
X155450000Y-89387439D01*
D10*
X132841390Y-91577479D02*
X132776814Y-91768487D01*
X132749248Y-91869534D01*
X149648933Y-108520370D02*
X149525035Y-108365028D01*
X154850000Y-104900233D02*
X155061532Y-104890339D01*
X155270201Y-104872520D01*
X155475769Y-104846963D01*
X155678001Y-104813857D01*
X155876657Y-104773390D01*
X156071502Y-104725751D01*
X156448807Y-104609708D01*
X156808017Y-104467236D01*
X157147236Y-104299841D01*
X157464566Y-104109031D01*
X157758108Y-103896313D01*
X158025965Y-103663194D01*
X158266240Y-103411181D01*
X158477035Y-103141781D01*
X158656451Y-102856500D01*
X158802592Y-102556847D01*
X158913560Y-102244328D01*
X158987457Y-101920450D01*
X159022385Y-101586721D01*
X140066007Y-94183187D02*
X140170042Y-94052756D01*
X140170042Y-94052756D02*
X140265708Y-93918627D01*
X156794843Y-95142583D02*
X156963030Y-95057967D01*
X138025351Y-97888463D02*
X137823187Y-97843767D01*
X137618762Y-97806505D01*
X137591351Y-97802102D01*
X150636466Y-103253543D02*
X150751067Y-103414230D01*
X151229958Y-90881844D02*
X151134292Y-91015973D01*
X140725000Y-92467300D02*
X140716169Y-92260379D01*
X140706348Y-92166676D01*
X132080830Y-92655150D02*
X132098239Y-92841978D01*
X134119330Y-94870784D02*
X134294848Y-94978943D01*
X134436970Y-95057967D01*
X134778986Y-89713815D02*
X134605157Y-89792017D01*
X150280858Y-93571139D02*
X150358896Y-93757892D01*
X150437721Y-93919580D01*
X159022385Y-92586721D02*
X159016740Y-92251870D01*
X158971360Y-91924696D01*
X158888004Y-91606809D01*
X158768434Y-91299814D01*
X158614412Y-91005321D01*
X158427698Y-90724939D01*
X158210054Y-90460274D01*
X157963241Y-90212935D01*
X157689020Y-89984531D01*
X157389152Y-89776669D01*
X157065399Y-89590957D01*
X156719522Y-89429005D01*
X156353283Y-89292419D01*
X155968442Y-89182808D01*
X155769596Y-89138620D01*
X155566760Y-89101780D01*
X155360155Y-89072487D01*
X155150000Y-89050944D01*
X157834044Y-90503162D02*
X157681805Y-90364345D01*
X157571654Y-90273312D01*
X133229958Y-99881844D02*
X133134292Y-100015973D01*
D11*
%TO.N,GND*%
X154250000Y-104582562D02*
X154250000Y-104582561D01*
D10*
X159319170Y-101279450D02*
X159301761Y-101092622D01*
X156855402Y-98161491D02*
X156666266Y-98085625D01*
X156473621Y-98017013D01*
X156447683Y-98008414D01*
X135902361Y-104539861D02*
X136108094Y-104568070D01*
X136250000Y-104582561D01*
X137497639Y-89394739D02*
X137450000Y-89387439D01*
X151333993Y-94183187D02*
X151467954Y-94332697D01*
X151565956Y-94431438D01*
X150693652Y-101166676D02*
X150676828Y-101373167D01*
X150675000Y-101467300D01*
X132098239Y-92841978D02*
X132131501Y-93050431D01*
X132167256Y-93210963D01*
X132080830Y-101279450D02*
X132075000Y-101467300D01*
X141119142Y-93571139D02*
X141184966Y-93381074D01*
X141232744Y-93210963D01*
X132751067Y-94414230D02*
X132874965Y-94569572D01*
D11*
X154550000Y-97734259D02*
X154550000Y-104900233D01*
D10*
X153139681Y-98578409D02*
X152946061Y-98646799D01*
X152778986Y-98713815D01*
X132098239Y-101092622D02*
X132080830Y-101279450D01*
X158066007Y-90751413D02*
X157932045Y-90601902D01*
X157834044Y-90503162D01*
X150232744Y-111210963D02*
X150277131Y-111004291D01*
X150301761Y-110841978D01*
X141969808Y-111642301D02*
X142073679Y-111824750D01*
X142134292Y-111918627D01*
X133791586Y-89561238D02*
X133619787Y-89678985D01*
X133455187Y-89803469D01*
X148052775Y-107250287D02*
X147867880Y-107166806D01*
X147855402Y-107161491D01*
X151134292Y-91015973D02*
X151027262Y-91187541D01*
X150969808Y-91292299D01*
X133333993Y-94183187D02*
X133467954Y-94332697D01*
X133565956Y-94431438D01*
X150749248Y-102065066D02*
X150805611Y-102257402D01*
X150841390Y-102357121D01*
X150075000Y-101467300D02*
X150080830Y-101655150D01*
X139608414Y-89561238D02*
X139429715Y-89450415D01*
X139244404Y-89346700D01*
X149763534Y-108681057D02*
X149648933Y-108520370D01*
X142148807Y-112862700D02*
X142298089Y-113000096D01*
X142455187Y-113131131D01*
X153950000Y-89387439D02*
X153902361Y-89394739D01*
X138447683Y-98008414D02*
X138251360Y-97948038D01*
X138052119Y-97894981D01*
X138025351Y-97888463D01*
X150377615Y-92586721D02*
X150412542Y-92920450D01*
X150486439Y-93244328D01*
X150597407Y-93556847D01*
X150743548Y-93856500D01*
X150922964Y-94141781D01*
X151133759Y-94411181D01*
X151374034Y-94663194D01*
X151641891Y-94896313D01*
X151935433Y-95109031D01*
X152252763Y-95299841D01*
X152591982Y-95467236D01*
X152951192Y-95609708D01*
X153328497Y-95725751D01*
X153523342Y-95773390D01*
X153721998Y-95813857D01*
X153924230Y-95846963D01*
X154129798Y-95872520D01*
X154338467Y-95890339D01*
X154550000Y-95900233D01*
X158558610Y-91577479D02*
X158478409Y-91389428D01*
X158430192Y-91292299D01*
X132751067Y-90520370D02*
X132636466Y-90681057D01*
D11*
%TO.N,Net-(C13-Pad1)*%
X137450000Y-98387437D02*
X137450000Y-104249957D01*
D10*
X139608414Y-98561238D02*
X139429715Y-98450415D01*
X139244404Y-98346700D01*
X159301761Y-92092622D02*
X159268498Y-91884168D01*
X159232744Y-91723637D01*
X141841390Y-109577479D02*
X141776814Y-109768487D01*
X141749248Y-109869534D01*
X146150000Y-113582561D02*
X146357103Y-113560060D01*
X146497639Y-113539861D01*
X158725000Y-92467300D02*
X158716169Y-92260379D01*
X158706348Y-92166676D01*
X158430192Y-102642301D02*
X158518543Y-102456028D01*
X158558610Y-102357121D01*
X152952317Y-98008414D02*
X152759221Y-98076057D01*
X152569604Y-98150956D01*
X152544598Y-98161491D01*
X147963030Y-113057967D02*
X148144866Y-112955535D01*
X148280670Y-112870784D01*
X149558610Y-111357121D02*
X149623185Y-111166112D01*
X149650752Y-111065066D01*
X159319170Y-92655150D02*
X159325000Y-92467300D01*
X134778986Y-98713815D02*
X134605157Y-98792017D01*
X152155596Y-89346700D02*
X151970284Y-89450415D01*
X151791586Y-89561238D01*
X150080830Y-101279450D02*
X150075000Y-101467300D01*
X141232744Y-100723637D02*
X141177863Y-100531006D01*
X141119142Y-100363461D01*
X158066007Y-103183187D02*
X158170042Y-103052756D01*
X139571654Y-94661288D02*
X139731017Y-94527143D01*
X139834044Y-94431438D01*
X132841390Y-100577479D02*
X132776814Y-100768487D01*
X132749248Y-100869534D01*
X136924850Y-88736702D02*
X136850000Y-88734259D01*
X153374649Y-97888463D02*
X153175043Y-97940540D01*
X152978313Y-97999943D01*
X152952317Y-98008414D01*
X135808649Y-97802102D02*
X135603944Y-97838368D01*
X135401463Y-97882075D01*
X135374649Y-97888463D01*
D11*
%TO.N,GND*%
X142455187Y-113131131D02*
X142300000Y-113700000D01*
D10*
X132749248Y-91869534D02*
X132707079Y-92073346D01*
X132693652Y-92166676D01*
X133134292Y-93918627D02*
X133229958Y-94052756D01*
X150751067Y-94414230D02*
X150874965Y-94569572D01*
X138447683Y-89008414D02*
X138251360Y-88948038D01*
X138052119Y-88894981D01*
X138025351Y-88888463D01*
X151455187Y-89803469D02*
X151298089Y-89934503D01*
X151148807Y-90071900D01*
X157944813Y-95131131D02*
X158101910Y-95000096D01*
X158251193Y-94862700D01*
X150167256Y-100723637D02*
X150122868Y-100930308D01*
X150098239Y-101092622D01*
X149706348Y-110767924D02*
X149723171Y-110561432D01*
X149725000Y-110467300D01*
X151565956Y-99503162D02*
X151424448Y-99648463D01*
X151333993Y-99751413D01*
X141022385Y-101586721D02*
X141016740Y-101251870D01*
X140971360Y-100924696D01*
X140888004Y-100606809D01*
X140768434Y-100299814D01*
X140614412Y-100005321D01*
X140427698Y-99724939D01*
X140210054Y-99460274D01*
X139963241Y-99212935D01*
X139689020Y-98984531D01*
X139389152Y-98776669D01*
X139065399Y-98590957D01*
X138719522Y-98429005D01*
X138353283Y-98292419D01*
X137968442Y-98182808D01*
X137769596Y-98138620D01*
X137566760Y-98101780D01*
X137360155Y-98072487D01*
X137150000Y-98050944D01*
X133134292Y-102918627D02*
X133229958Y-103052756D01*
D11*
X145250000Y-113582562D02*
X145250000Y-113582561D01*
D10*
X158706348Y-92767924D02*
X158723171Y-92561432D01*
X158725000Y-92467300D01*
X142565956Y-108503162D02*
X142424448Y-108648463D01*
X142333993Y-108751413D01*
X158962279Y-102919580D02*
X159050911Y-102736107D01*
X159119142Y-102571139D01*
D11*
X154250000Y-95582562D02*
X154250000Y-95582561D01*
D10*
X154850000Y-95900233D02*
X155061532Y-95890339D01*
X155270201Y-95872520D01*
X155475769Y-95846963D01*
X155678001Y-95813857D01*
X155876657Y-95773390D01*
X156071502Y-95725751D01*
X156448807Y-95609708D01*
X156808017Y-95467236D01*
X157147236Y-95299841D01*
X157464566Y-95109031D01*
X157758108Y-94896313D01*
X158025965Y-94663194D01*
X158266240Y-94411181D01*
X158477035Y-94141781D01*
X158656451Y-93856500D01*
X158802592Y-93556847D01*
X158913560Y-93244328D01*
X158987457Y-92920450D01*
X159022385Y-92586721D01*
X138963030Y-98876633D02*
X138794843Y-98792017D01*
X134778986Y-95220785D02*
X134968610Y-95296264D01*
X135139681Y-95356191D01*
X138855402Y-104773109D02*
X139040596Y-104690091D01*
X139052775Y-104684313D01*
X157608414Y-98561238D02*
X157429715Y-98450415D01*
X157244404Y-98346700D01*
X142791586Y-107561238D02*
X142619787Y-107678985D01*
X142455187Y-107803469D01*
X158648933Y-90520370D02*
X158525035Y-90365028D01*
X134155596Y-98346700D02*
X133970284Y-98450415D01*
X133791586Y-98561238D01*
D11*
X135200000Y-94600000D02*
X135950000Y-95249914D01*
D10*
X151148807Y-90071900D02*
X151007658Y-90215471D01*
X150874965Y-90365028D01*
X149962279Y-109015020D02*
X149861839Y-108835654D01*
X149763534Y-108681057D01*
X149251193Y-112862700D02*
X149392341Y-112719128D01*
X149525035Y-112569572D01*
X153374649Y-88888463D02*
X153175043Y-88940540D01*
X152978313Y-88999943D01*
X152952317Y-89008414D01*
X133333993Y-90751413D02*
X133229958Y-90881844D01*
X134436970Y-89876633D02*
X134255133Y-89979064D01*
X134119330Y-90063816D01*
X145850000Y-113900233D02*
X146061532Y-113890339D01*
X146270201Y-113872520D01*
X146475769Y-113846963D01*
X146678001Y-113813857D01*
X146876657Y-113773390D01*
X147071502Y-113725751D01*
X147448807Y-113609708D01*
X147808017Y-113467236D01*
X148147236Y-113299841D01*
X148464566Y-113109031D01*
X148758108Y-112896313D01*
X149025965Y-112663194D01*
X149266240Y-112411181D01*
X149477035Y-112141781D01*
X149656451Y-111856500D01*
X149802592Y-111556847D01*
X149913560Y-111244328D01*
X149987457Y-110920450D01*
X150022385Y-110586721D01*
X157280670Y-94870784D02*
X157447754Y-94755563D01*
X157571654Y-94661288D01*
D11*
X145250000Y-107050944D02*
X145250000Y-113582562D01*
D10*
X132749248Y-93065066D02*
X132805611Y-93257402D01*
X132841390Y-93357121D01*
X154550000Y-88734259D02*
X154475150Y-88736702D01*
X148571654Y-112661288D02*
X148731017Y-112527143D01*
X148834044Y-112431438D01*
X150693652Y-101767924D02*
X150727933Y-101972694D01*
X150749248Y-102065066D01*
X155591351Y-97802102D02*
X155384718Y-97773329D01*
X155176471Y-97752109D01*
X155148600Y-97749854D01*
X146148600Y-106749854D02*
X145945883Y-106737564D01*
X145924850Y-106736702D01*
X132675000Y-101467300D02*
X132683830Y-101674220D01*
X132693652Y-101767924D01*
X152778986Y-104220785D02*
X152968610Y-104296264D01*
X153139681Y-104356191D01*
D11*
X135950000Y-98387439D02*
X135950000Y-98387437D01*
D10*
X143605157Y-107792017D02*
X143436970Y-107876633D01*
X144808649Y-106802102D02*
X144603944Y-106838368D01*
X144401463Y-106882075D01*
X144374649Y-106888463D01*
X140265708Y-102918627D02*
X140372737Y-102747058D01*
X140430192Y-102642301D01*
X150080830Y-101655150D02*
X150098239Y-101841978D01*
X136475150Y-88736702D02*
X136272318Y-88748251D01*
X136251400Y-88749854D01*
X151565956Y-94431438D02*
X151718194Y-94570254D01*
X151828346Y-94661288D01*
D11*
%TO.N,Net-(C19-Pad1)*%
X155150000Y-104582561D02*
X155150000Y-104582562D01*
%TO.N,Net-(C25-Pad1)*%
X146450000Y-107387437D02*
X146450000Y-107387439D01*
D10*
X141325000Y-101467300D02*
X141319170Y-101279450D01*
X136550000Y-97734259D02*
X136475150Y-97736702D01*
X141022385Y-92586721D02*
X141016740Y-92251870D01*
X140971360Y-91924696D01*
X140888004Y-91606809D01*
X140768434Y-91299814D01*
X140614412Y-91005321D01*
X140427698Y-90724939D01*
X140210054Y-90460274D01*
X139963241Y-90212935D01*
X139689020Y-89984531D01*
X139389152Y-89776669D01*
X139065399Y-89590957D01*
X138719522Y-89429005D01*
X138353283Y-89292419D01*
X137968442Y-89182808D01*
X137769596Y-89138620D01*
X137566760Y-89101780D01*
X137360155Y-89072487D01*
X137150000Y-89050944D01*
X155148600Y-88749854D02*
X154945883Y-88737564D01*
X154924850Y-88736702D01*
X140763534Y-94253543D02*
X140874263Y-94078067D01*
X140962279Y-93919580D01*
X156621014Y-89713815D02*
X156431389Y-89638335D01*
X156260319Y-89578409D01*
X149648933Y-112414230D02*
X149763534Y-112253543D01*
X135902361Y-95539861D02*
X136108094Y-95568070D01*
X136250000Y-95582561D01*
X136251400Y-88749854D02*
X136042961Y-88770062D01*
X135836095Y-88797831D01*
X135808649Y-88802102D01*
X136550000Y-88734259D02*
X136475150Y-88736702D01*
X148608414Y-113373362D02*
X148780212Y-113255614D01*
X148944813Y-113131131D01*
X153902361Y-98394739D02*
X153683266Y-98434398D01*
X153467482Y-98483522D01*
X153255553Y-98541965D01*
X153139681Y-98578409D01*
X151565956Y-90503162D02*
X151424448Y-90648463D01*
X151333993Y-90751413D01*
X150022385Y-110586721D02*
X150016740Y-110251870D01*
X149971360Y-109924696D01*
X149888004Y-109606809D01*
X149768434Y-109299814D01*
X149614412Y-109005321D01*
X149427698Y-108724939D01*
X149210054Y-108460274D01*
X148963241Y-108212935D01*
X148689020Y-107984531D01*
X148389152Y-107776669D01*
X148065399Y-107590957D01*
X147719522Y-107429005D01*
X147353283Y-107292419D01*
X146968442Y-107182808D01*
X146769596Y-107138620D01*
X146566760Y-107101780D01*
X146360155Y-107072487D01*
X146150000Y-107050944D01*
X139052775Y-89250287D02*
X138867880Y-89166806D01*
X138855402Y-89161491D01*
X156260319Y-104356191D02*
X156453938Y-104287800D01*
X156621014Y-104220785D01*
X135139681Y-104356191D02*
X135349233Y-104419750D01*
X135562943Y-104474069D01*
X135780265Y-104519004D01*
X135902361Y-104539861D01*
X156025351Y-97888463D02*
X155823187Y-97843767D01*
X155618762Y-97806505D01*
X155591351Y-97802102D01*
X134119330Y-99063816D02*
X133952245Y-99179036D01*
X133828346Y-99273312D01*
D11*
%TO.N,GND*%
X135950000Y-89387439D02*
X135950000Y-89387437D01*
X153950000Y-98387437D02*
X153950000Y-104249957D01*
D10*
X159301761Y-101841978D02*
X159319170Y-101655150D01*
X156963030Y-89876633D02*
X156794843Y-89792017D01*
X159301761Y-92841978D02*
X159319170Y-92655150D01*
X140648933Y-94414230D02*
X140763534Y-94253543D01*
X154924850Y-88736702D02*
X154850000Y-88734259D01*
X151229958Y-103052756D02*
X151333993Y-103183187D01*
X152952317Y-89008414D02*
X152759221Y-89076057D01*
X152569604Y-89150956D01*
X152544598Y-89161491D01*
X140251193Y-103862700D02*
X140392341Y-103719128D01*
X140525035Y-103569572D01*
D11*
X144950000Y-107387437D02*
X144950000Y-113249957D01*
D10*
X158648933Y-103414230D02*
X158763534Y-103253543D01*
X149170042Y-112052756D02*
X149265708Y-111918627D01*
X142333993Y-112183187D02*
X142467954Y-112332697D01*
X142565956Y-112431438D01*
X143605157Y-113142583D02*
X143778986Y-113220785D01*
X141119142Y-100363461D02*
X141041103Y-100176707D01*
X140962279Y-100015020D01*
D11*
X153200000Y-103600000D02*
X153950000Y-104249914D01*
D10*
X141969808Y-109292299D02*
X141881456Y-109478571D01*
X141841390Y-109577479D01*
X133565956Y-90503162D02*
X133424448Y-90648463D01*
X133333993Y-90751413D01*
X137150000Y-95582561D02*
X137357103Y-95560060D01*
X137497639Y-95539861D01*
X149251193Y-108071900D02*
X149101910Y-107934503D01*
X148944813Y-107803469D01*
X150636466Y-90681057D02*
X150525736Y-90856532D01*
X150437721Y-91015020D01*
X141749248Y-111065066D02*
X141805611Y-111257402D01*
X141841390Y-111357121D01*
X158170042Y-90881844D02*
X158066007Y-90751413D01*
X134605157Y-95142583D02*
X134778986Y-95220785D01*
X141301761Y-92092622D02*
X141268498Y-91884168D01*
X141232744Y-91723637D01*
D11*
%TO.N,Net-(C19-Pad1)*%
X155450000Y-98387437D02*
X155450000Y-98387439D01*
D10*
X158706348Y-101166676D02*
X158672066Y-100961905D01*
X158650752Y-100869534D01*
D11*
%TO.N,Net-(C1-Pad1)*%
X137150000Y-95582561D02*
X137150000Y-95582562D01*
D10*
X158265708Y-91015973D02*
X158170042Y-90881844D01*
X158251193Y-94862700D02*
X158392341Y-94719128D01*
X158525035Y-94569572D01*
X135950000Y-89387439D02*
X135902361Y-89394739D01*
X141319170Y-92655150D02*
X141325000Y-92467300D01*
X141119142Y-91363461D02*
X141041103Y-91176707D01*
X140962279Y-91015020D01*
X152605157Y-95142583D02*
X152778986Y-95220785D01*
X134436970Y-98876633D02*
X134255133Y-98979064D01*
X134119330Y-99063816D01*
D11*
%TO.N,GND*%
X154550000Y-88734259D02*
X154550000Y-95900233D01*
D10*
X138025351Y-88888463D02*
X137823187Y-88843767D01*
X137618762Y-88806505D01*
X137591351Y-88802102D01*
X150301761Y-110841978D02*
X150319170Y-110655150D01*
X141437721Y-109015020D02*
X141349088Y-109198492D01*
X141280858Y-109363461D01*
X156794843Y-89792017D02*
X156621014Y-89713815D01*
X158265708Y-93918627D02*
X158372737Y-93747058D01*
X158430192Y-93642301D01*
X141675000Y-110467300D02*
X141683830Y-110674220D01*
X141693652Y-110767924D01*
X150675000Y-92467300D02*
X150683830Y-92674220D01*
X150693652Y-92767924D01*
X158763534Y-94253543D02*
X158874263Y-94078067D01*
X158962279Y-93919580D01*
X133565956Y-99503162D02*
X133424448Y-99648463D01*
X133333993Y-99751413D01*
X150636466Y-94253543D02*
X150751067Y-94414230D01*
D11*
X136550000Y-97734259D02*
X136550000Y-104900233D01*
D10*
X140265708Y-93918627D02*
X140372737Y-93747058D01*
X140430192Y-93642301D01*
X151828346Y-90273312D02*
X151668982Y-90407456D01*
X151565956Y-90503162D01*
X140763534Y-103253543D02*
X140874263Y-103078067D01*
X140962279Y-102919580D01*
X150675000Y-101467300D02*
X150683830Y-101674220D01*
X150693652Y-101767924D01*
D11*
%TO.N,Net-(C1-Pad1)*%
X138447683Y-95926186D02*
X138600000Y-96700000D01*
D10*
X138621014Y-95220785D02*
X138794843Y-95142583D01*
X135374649Y-97888463D02*
X135175043Y-97940540D01*
X134978313Y-97999943D01*
X134952317Y-98008414D01*
X148280670Y-108063816D02*
X148105151Y-107955656D01*
X147963030Y-107876633D01*
X154251400Y-88749854D02*
X154042961Y-88770062D01*
X153836095Y-88797831D01*
X153808649Y-88802102D01*
X141098239Y-110841978D02*
X141131501Y-111050431D01*
X141167256Y-111210963D01*
X139944813Y-98803469D02*
X139780212Y-98678985D01*
X139608414Y-98561238D01*
X149066007Y-112183187D02*
X149170042Y-112052756D01*
X150636466Y-99681057D02*
X150525736Y-99856532D01*
X150437721Y-100015020D01*
X140251193Y-90071900D02*
X140101910Y-89934503D01*
X139944813Y-89803469D01*
X149066007Y-108751413D02*
X148932045Y-108601902D01*
X148834044Y-108503162D01*
X157834044Y-99503162D02*
X157681805Y-99364345D01*
X157571654Y-99273312D01*
X155497639Y-104539861D02*
X155716733Y-104500201D01*
X155932517Y-104451077D01*
X156144446Y-104392634D01*
X156260319Y-104356191D01*
X138963030Y-104057967D02*
X139144866Y-103955535D01*
X139280670Y-103870784D01*
D11*
%TO.N,Net-(C10-Pad1)*%
X154850000Y-88734259D02*
X154850000Y-95900233D01*
D10*
X139834044Y-99503162D02*
X139681805Y-99364345D01*
X139571654Y-99273312D01*
X152436970Y-95057967D02*
X152605157Y-95142583D01*
X152436970Y-104057967D02*
X152605157Y-104142583D01*
X132280858Y-93571139D02*
X132358896Y-93757892D01*
X132437721Y-93919580D01*
X132167256Y-100723637D02*
X132122868Y-100930308D01*
X132098239Y-101092622D01*
X151333993Y-90751413D02*
X151229958Y-90881844D01*
X132636466Y-99681057D02*
X132525736Y-99856532D01*
X132437721Y-100015020D01*
X140430192Y-91292299D02*
X140326320Y-91109849D01*
X140265708Y-91015973D01*
D11*
%TO.N,Net-(C25-Pad1)*%
X147447683Y-113926186D02*
X147600000Y-114700000D01*
D10*
X152605157Y-98792017D02*
X152436970Y-98876633D01*
X148944813Y-107803469D02*
X148780212Y-107678985D01*
X148608414Y-107561238D01*
X150749248Y-91869534D02*
X150707079Y-92073346D01*
X150693652Y-92166676D01*
X157244404Y-104587900D02*
X157429715Y-104484184D01*
X157608414Y-104373362D01*
X157571654Y-90273312D02*
X157411370Y-90152839D01*
X157280670Y-90063816D01*
X157244404Y-95587900D02*
X157429715Y-95484184D01*
X157608414Y-95373362D01*
X138447683Y-95926186D02*
X138640778Y-95858542D01*
X138830395Y-95783643D01*
X138855402Y-95773109D01*
X139608414Y-95373362D02*
X139780212Y-95255614D01*
X139944813Y-95131131D01*
X159325000Y-101467300D02*
X159319170Y-101279450D01*
X140525035Y-90365028D02*
X140383763Y-90206320D01*
X140251193Y-90071900D01*
X152155596Y-98346700D02*
X151970284Y-98450415D01*
X151791586Y-98561238D01*
X140066007Y-90751413D02*
X139932045Y-90601902D01*
X139834044Y-90503162D01*
X152436970Y-98876633D02*
X152255133Y-98979064D01*
X152119330Y-99063816D01*
X150874965Y-94569572D02*
X151016236Y-94728279D01*
X151148807Y-94862700D01*
X132874965Y-94569572D02*
X133016236Y-94728279D01*
X133148807Y-94862700D01*
D11*
%TO.N,GND*%
X153950000Y-89387439D02*
X153950000Y-89387437D01*
D10*
X150969808Y-91292299D02*
X150881456Y-91478571D01*
X150841390Y-91577479D01*
X140650752Y-100869534D02*
X140594388Y-100677197D01*
X140558610Y-100577479D01*
X156794843Y-104142583D02*
X156963030Y-104057967D01*
X145924850Y-106736702D02*
X145850000Y-106734259D01*
X140648933Y-103414230D02*
X140763534Y-103253543D01*
X157571654Y-94661288D02*
X157731017Y-94527143D01*
X157834044Y-94431438D01*
X154475150Y-88736702D02*
X154272318Y-88748251D01*
X154251400Y-88749854D01*
X153902361Y-95539861D02*
X154108094Y-95568070D01*
X154250000Y-95582561D01*
X134155596Y-89346700D02*
X133970284Y-89450415D01*
X133791586Y-89561238D01*
X133148807Y-103862700D02*
X133298089Y-104000096D01*
X133455187Y-104131131D01*
X157834044Y-94431438D02*
X157975551Y-94286136D01*
X158066007Y-94183187D01*
D11*
X153950000Y-98387439D02*
X153950000Y-98387437D01*
D10*
X150841390Y-102357121D02*
X150921590Y-102545171D01*
X150969808Y-102642301D01*
X156260319Y-98578409D02*
X156050766Y-98514849D01*
X155837056Y-98460530D01*
X155619734Y-98415595D01*
X155497639Y-98394739D01*
X149725000Y-110467300D02*
X149716169Y-110260379D01*
X149706348Y-110166676D01*
X134119330Y-103870784D02*
X134294848Y-103978943D01*
X134436970Y-104057967D01*
X140650752Y-102065066D02*
X140692920Y-101861253D01*
X140706348Y-101767924D01*
X132969808Y-93642301D02*
X133073679Y-93824750D01*
X133134292Y-93918627D01*
D11*
%TO.N,Net-(C10-Pad1)*%
X156447683Y-95926186D02*
X156600000Y-96700000D01*
D10*
X159119142Y-93571139D02*
X159184966Y-93381074D01*
X159232744Y-93210963D01*
X150749248Y-93065066D02*
X150805611Y-93257402D01*
X150841390Y-93357121D01*
X141874965Y-112569572D02*
X142016236Y-112728279D01*
X142148807Y-112862700D01*
X133828346Y-103661288D02*
X133988629Y-103781760D01*
X134119330Y-103870784D01*
X150319170Y-110655150D02*
X150325000Y-110467300D01*
X132280858Y-102571139D02*
X132358896Y-102757892D01*
X132437721Y-102919580D01*
X139571654Y-99273312D02*
X139411370Y-99152839D01*
X139280670Y-99063816D01*
X151229958Y-99881844D02*
X151134292Y-100015973D01*
X132075000Y-92467300D02*
X132080830Y-92655150D01*
X158725000Y-101467300D02*
X158716169Y-101260379D01*
X158706348Y-101166676D01*
X146497639Y-107394739D02*
X146450000Y-107387439D01*
X152347225Y-89250287D02*
X152167391Y-89340457D01*
X152155596Y-89346700D01*
X133134292Y-100015973D02*
X133027262Y-100187541D01*
X132969808Y-100292299D01*
X144139681Y-113356191D02*
X144349233Y-113419750D01*
X144562943Y-113474069D01*
X144780265Y-113519004D01*
X144902361Y-113539861D01*
D11*
%TO.N,GND*%
X136550000Y-88734259D02*
X136550000Y-95900233D01*
D10*
X147794843Y-107792017D02*
X147621014Y-107713815D01*
D11*
%TO.N,Net-(C1-Pad1)*%
X137450000Y-95249957D02*
X138800000Y-94400000D01*
D10*
X138260319Y-98578409D02*
X138050766Y-98514849D01*
X137837056Y-98460530D01*
X137619734Y-98415595D01*
X137497639Y-98394739D01*
X153139681Y-95356191D02*
X153349233Y-95419750D01*
X153562943Y-95474069D01*
X153780265Y-95519004D01*
X153902361Y-95539861D01*
X155150000Y-95582561D02*
X155357103Y-95560060D01*
X155497639Y-95539861D01*
D11*
%TO.N,Net-(C10-Pad1)*%
X155150000Y-89050944D02*
X155150000Y-95582562D01*
D10*
X141751067Y-108520370D02*
X141636466Y-108681057D01*
X152544598Y-89161491D02*
X152359403Y-89244508D01*
X152347225Y-89250287D01*
X138621014Y-98713815D02*
X138431389Y-98638335D01*
X138260319Y-98578409D01*
X139244404Y-104587900D02*
X139429715Y-104484184D01*
X139608414Y-104373362D01*
D11*
%TO.N,Net-(C1-Pad1)*%
X137450000Y-89387437D02*
X137450000Y-89387439D01*
D10*
X139944813Y-95131131D02*
X140101910Y-95000096D01*
X140251193Y-94862700D01*
X157052775Y-98250287D02*
X156867880Y-98166806D01*
X156855402Y-98161491D01*
X143347225Y-107250287D02*
X143167391Y-107340457D01*
X143155596Y-107346700D01*
X132751067Y-99520370D02*
X132636466Y-99681057D01*
X132280858Y-100363461D02*
X132215033Y-100553525D01*
X132167256Y-100723637D01*
X150437721Y-102919580D02*
X150538160Y-103098945D01*
X150636466Y-103253543D01*
X140430192Y-100292299D02*
X140326320Y-100109849D01*
X140265708Y-100015973D01*
X132841390Y-93357121D02*
X132921590Y-93545171D01*
X132969808Y-93642301D01*
D11*
%TO.N,GND*%
X135200000Y-103600000D02*
X135950000Y-104249914D01*
D10*
X141080830Y-110655150D02*
X141098239Y-110841978D01*
X138963030Y-95057967D02*
X139144866Y-94955535D01*
X139280670Y-94870784D01*
X150098239Y-101092622D02*
X150080830Y-101279450D01*
X158650752Y-91869534D02*
X158594388Y-91677197D01*
X158558610Y-91577479D01*
D11*
X144200000Y-112600000D02*
X144950000Y-113249914D01*
D10*
X143778986Y-113220785D02*
X143968610Y-113296264D01*
X144139681Y-113356191D01*
X138855402Y-95773109D02*
X139040596Y-95690091D01*
X139052775Y-95684313D01*
X151333993Y-103183187D02*
X151467954Y-103332697D01*
X151565956Y-103431438D01*
X153808649Y-97802102D02*
X153603944Y-97838368D01*
X153401463Y-97882075D01*
X153374649Y-97888463D01*
X140251193Y-99071900D02*
X140101910Y-98934503D01*
X139944813Y-98803469D01*
X137591351Y-97802102D02*
X137384718Y-97773329D01*
X137176471Y-97752109D01*
X137148600Y-97749854D01*
X136475150Y-97736702D02*
X136272318Y-97748251D01*
X136251400Y-97749854D01*
X156621014Y-98713815D02*
X156431389Y-98638335D01*
X156260319Y-98578409D01*
X152119330Y-103870784D02*
X152294848Y-103978943D01*
X152436970Y-104057967D01*
X150319170Y-110279450D02*
X150301761Y-110092622D01*
X133148807Y-99071900D02*
X133007658Y-99215471D01*
X132874965Y-99365028D01*
X132751067Y-103414230D02*
X132874965Y-103569572D01*
X143119330Y-108063816D02*
X142952245Y-108179036D01*
X142828346Y-108273312D01*
X147025351Y-106888463D02*
X146823187Y-106843767D01*
X146618762Y-106806505D01*
X146591351Y-106802102D01*
X158525035Y-94569572D02*
X158648933Y-94414230D01*
X138447683Y-104926186D02*
X138640778Y-104858542D01*
X138830395Y-104783643D01*
X138855402Y-104773109D01*
X155497639Y-89394739D02*
X155450000Y-89387439D01*
X150280858Y-91363461D02*
X150215033Y-91553525D01*
X150167256Y-91723637D01*
X156447683Y-104926186D02*
X156640778Y-104858542D01*
X156830395Y-104783643D01*
X156855402Y-104773109D01*
X140725000Y-101467300D02*
X140716169Y-101260379D01*
X140706348Y-101166676D01*
X151134292Y-93918627D02*
X151229958Y-94052756D01*
X132749248Y-100869534D02*
X132707079Y-101073346D01*
X132693652Y-101166676D01*
X139571654Y-90273312D02*
X139411370Y-90152839D01*
X139280670Y-90063816D01*
X158558610Y-93357121D02*
X158623185Y-93166112D01*
X158650752Y-93065066D01*
X159232744Y-91723637D02*
X159177863Y-91531006D01*
X159119142Y-91363461D01*
X132841390Y-102357121D02*
X132921590Y-102545171D01*
X132969808Y-102642301D01*
X157052775Y-95684313D02*
X157232608Y-95594142D01*
X157244404Y-95587900D01*
X137148600Y-97749854D02*
X136945883Y-97737564D01*
X136924850Y-97736702D01*
X140558610Y-102357121D02*
X140623185Y-102166112D01*
X140650752Y-102065066D01*
X140650752Y-93065066D02*
X140692920Y-92861253D01*
X140706348Y-92767924D01*
X134952317Y-98008414D02*
X134759221Y-98076057D01*
X134569604Y-98150956D01*
X134544598Y-98161491D01*
X141301761Y-101092622D02*
X141268498Y-100884168D01*
X141232744Y-100723637D01*
X140170042Y-103052756D02*
X140265708Y-102918627D01*
X157571654Y-99273312D02*
X157411370Y-99152839D01*
X157280670Y-99063816D01*
X138794843Y-89792017D02*
X138621014Y-89713815D01*
X143778986Y-107713815D02*
X143605157Y-107792017D01*
X158066007Y-94183187D02*
X158170042Y-94052756D01*
X158650752Y-93065066D02*
X158692920Y-92861253D01*
X158706348Y-92767924D01*
X132693652Y-92166676D02*
X132676828Y-92373167D01*
X132675000Y-92467300D01*
X151333993Y-99751413D02*
X151229958Y-99881844D01*
X140962279Y-100015020D02*
X140861839Y-99835654D01*
X140763534Y-99681057D01*
X135902361Y-98394739D02*
X135683266Y-98434398D01*
X135467482Y-98483522D01*
X135255553Y-98541965D01*
X135139681Y-98578409D01*
X132693652Y-92767924D02*
X132727933Y-92972694D01*
X132749248Y-93065066D01*
X140650752Y-91869534D02*
X140594388Y-91677197D01*
X140558610Y-91577479D01*
D11*
%TO.N,Net-(C10-Pad1)*%
X155450000Y-89387437D02*
X155450000Y-95249957D01*
D10*
X133134292Y-91015973D02*
X133027262Y-91187541D01*
X132969808Y-91292299D01*
X141693652Y-110767924D02*
X141727933Y-110972694D01*
X141749248Y-111065066D01*
X135902361Y-89394739D02*
X135683266Y-89434398D01*
X135467482Y-89483522D01*
X135255553Y-89541965D01*
X135139681Y-89578409D01*
D11*
%TO.N,GND*%
X136250000Y-89050944D02*
X136250000Y-95582562D01*
D10*
X150232744Y-109723637D02*
X150177863Y-109531006D01*
X150119142Y-109363461D01*
X147855402Y-107161491D02*
X147666266Y-107085625D01*
X147473621Y-107017013D01*
X147447683Y-107008414D01*
D11*
%TO.N,Net-(C19-Pad1)*%
X155450000Y-104249957D02*
X156800000Y-103400000D01*
D10*
X141098239Y-110092622D02*
X141080830Y-110279450D01*
X132167256Y-102210963D02*
X132222136Y-102403593D01*
X132280858Y-102571139D01*
X137497639Y-95539861D02*
X137716733Y-95500201D01*
X137932517Y-95451077D01*
X138144446Y-95392634D01*
X138260319Y-95356191D01*
X156855402Y-89161491D02*
X156666266Y-89085625D01*
X156473621Y-89017013D01*
X156447683Y-89008414D01*
D11*
%TO.N,GND*%
X151455187Y-104131131D02*
X151300000Y-104700000D01*
D10*
X155150000Y-104582561D02*
X155357103Y-104560060D01*
X155497639Y-104539861D01*
X133828346Y-94661288D02*
X133988629Y-94781760D01*
X134119330Y-94870784D01*
X149170042Y-108881844D02*
X149066007Y-108751413D01*
X151148807Y-94862700D02*
X151298089Y-95000096D01*
X151455187Y-95131131D01*
D11*
%TO.N,Net-(C25-Pad1)*%
X146450000Y-113249957D02*
X147800000Y-112400000D01*
D10*
X147447683Y-107008414D02*
X147251360Y-106948038D01*
X147052119Y-106894981D01*
X147025351Y-106888463D01*
X152436970Y-89876633D02*
X152255133Y-89979064D01*
X152119330Y-90063816D01*
X139608414Y-104373362D02*
X139780212Y-104255614D01*
X139944813Y-104131131D01*
X138260319Y-104356191D02*
X138453938Y-104287800D01*
X138621014Y-104220785D01*
X141319170Y-101655150D02*
X141325000Y-101467300D01*
X159022385Y-101586721D02*
X159016740Y-101251870D01*
X158971360Y-100924696D01*
X158888004Y-100606809D01*
X158768434Y-100299814D01*
X158614412Y-100005321D01*
X158427698Y-99724939D01*
X158210054Y-99460274D01*
X157963241Y-99212935D01*
X157689020Y-98984531D01*
X157389152Y-98776669D01*
X157065399Y-98590957D01*
X156719522Y-98429005D01*
X156353283Y-98292419D01*
X155968442Y-98182808D01*
X155769596Y-98138620D01*
X155566760Y-98101780D01*
X155360155Y-98072487D01*
X155150000Y-98050944D01*
X157244404Y-98346700D02*
X157064930Y-98256094D01*
X157052775Y-98250287D01*
X150437721Y-93919580D02*
X150538160Y-94098945D01*
X150636466Y-94253543D01*
X136250000Y-89050944D02*
X136039844Y-89072487D01*
X135833239Y-89101780D01*
X135630403Y-89138620D01*
X135431557Y-89182808D01*
X135236922Y-89234141D01*
X134861161Y-89357440D01*
X134504883Y-89506911D01*
X134169848Y-89680944D01*
X133857817Y-89877931D01*
X133570553Y-90096266D01*
X133309816Y-90334338D01*
X133077367Y-90590541D01*
X132874968Y-90863266D01*
X132704379Y-91150905D01*
X132567363Y-91451849D01*
X132465680Y-91764491D01*
X132401092Y-92087223D01*
X132375359Y-92418436D01*
X132377615Y-92586721D01*
X150080830Y-92279450D02*
X150075000Y-92467300D01*
X133565956Y-103431438D02*
X133718194Y-103570254D01*
X133828346Y-103661288D01*
X158558610Y-100577479D02*
X158478409Y-100389428D01*
X158430192Y-100292299D01*
X141232744Y-91723637D02*
X141177863Y-91531006D01*
X141119142Y-91363461D01*
X132675000Y-92467300D02*
X132683830Y-92674220D01*
X132693652Y-92767924D01*
X158763534Y-99681057D02*
X158648933Y-99520370D01*
X141325000Y-92467300D02*
X141319170Y-92279450D01*
X132437721Y-100015020D02*
X132349088Y-100198492D01*
X132280858Y-100363461D01*
X150098239Y-92092622D02*
X150080830Y-92279450D01*
X134544598Y-98161491D02*
X134359403Y-98244508D01*
X134347225Y-98250287D01*
X141301761Y-101841978D02*
X141319170Y-101655150D01*
D11*
%TO.N,Net-(C1-Pad1)*%
X137150000Y-89050944D02*
X137150000Y-95582562D01*
D10*
X158962279Y-91015020D02*
X158861839Y-90835654D01*
X158763534Y-90681057D01*
X149525035Y-112569572D02*
X149648933Y-112414230D01*
X140706348Y-92166676D02*
X140672066Y-91961905D01*
X140650752Y-91869534D01*
X149430192Y-111642301D02*
X149518543Y-111456028D01*
X149558610Y-111357121D01*
X158066007Y-99751413D02*
X157932045Y-99601902D01*
X157834044Y-99503162D01*
D11*
%TO.N,Net-(C25-Pad1)*%
X146450000Y-107387437D02*
X146450000Y-113249957D01*
D10*
X140648933Y-99520370D02*
X140525035Y-99365028D01*
X139280670Y-94870784D02*
X139447754Y-94755563D01*
X139571654Y-94661288D01*
X155497639Y-98394739D02*
X155450000Y-98387439D01*
X157608414Y-89561238D02*
X157429715Y-89450415D01*
X157244404Y-89346700D01*
X133229958Y-103052756D02*
X133333993Y-103183187D01*
D11*
%TO.N,GND*%
X154250000Y-98050944D02*
X154250000Y-104582562D01*
%TO.N,Net-(C13-Pad1)*%
X137150000Y-104582561D02*
X137150000Y-104582562D01*
D10*
X157834044Y-103431438D02*
X157975551Y-103286136D01*
X158066007Y-103183187D01*
X133791586Y-98561238D02*
X133619787Y-98678985D01*
X133455187Y-98803469D01*
X157052775Y-104684313D02*
X157232608Y-104594142D01*
X157244404Y-104587900D01*
X148244404Y-113587900D02*
X148429715Y-113484184D01*
X148608414Y-113373362D01*
X142229958Y-108881844D02*
X142134292Y-109015973D01*
X149763534Y-112253543D02*
X149874263Y-112078067D01*
X149962279Y-111919580D01*
X138621014Y-89713815D02*
X138431389Y-89638335D01*
X138260319Y-89578409D01*
X136924850Y-97736702D02*
X136850000Y-97734259D01*
X138794843Y-95142583D02*
X138963030Y-95057967D01*
X141232744Y-102210963D02*
X141277131Y-102004291D01*
X141301761Y-101841978D01*
X156963030Y-104057967D02*
X157144866Y-103955535D01*
X157280670Y-103870784D01*
X140066007Y-103183187D02*
X140170042Y-103052756D01*
X159325000Y-92467300D02*
X159319170Y-92279450D01*
X159232744Y-102210963D02*
X159277131Y-102004291D01*
X159301761Y-101841978D01*
X157280670Y-99063816D02*
X157105151Y-98955656D01*
X156963030Y-98876633D01*
X159232744Y-100723637D02*
X159177863Y-100531006D01*
X159119142Y-100363461D01*
X141232744Y-93210963D02*
X141277131Y-93004291D01*
X141301761Y-92841978D01*
X152119330Y-94870784D02*
X152294848Y-94978943D01*
X152436970Y-95057967D01*
X137497639Y-104539861D02*
X137716733Y-104500201D01*
X137932517Y-104451077D01*
X138144446Y-104392634D01*
X138260319Y-104356191D01*
X155591351Y-88802102D02*
X155384718Y-88773329D01*
X155176471Y-88752109D01*
X155148600Y-88749854D01*
X150437721Y-91015020D02*
X150349088Y-91198492D01*
X150280858Y-91363461D01*
X157280670Y-90063816D02*
X157105151Y-89955656D01*
X156963030Y-89876633D01*
D11*
%TO.N,Net-(C1-Pad1)*%
X136850000Y-88734259D02*
X136850000Y-95900233D01*
D10*
X135950000Y-98387439D02*
X135902361Y-98394739D01*
D11*
%TO.N,GND*%
X133455187Y-95131131D02*
X133300000Y-95700000D01*
D10*
X134347225Y-89250287D02*
X134167391Y-89340457D01*
X134155596Y-89346700D01*
X141280858Y-111571139D02*
X141358896Y-111757892D01*
X141437721Y-111919580D01*
X153902361Y-89394739D02*
X153683266Y-89434398D01*
X153467482Y-89483522D01*
X153255553Y-89541965D01*
X153139681Y-89578409D01*
X158170042Y-103052756D02*
X158265708Y-102918627D01*
X139280670Y-90063816D02*
X139105151Y-89955656D01*
X138963030Y-89876633D01*
X153808649Y-88802102D02*
X153603944Y-88838368D01*
X153401463Y-88882075D01*
X153374649Y-88888463D01*
X137591351Y-88802102D02*
X137384718Y-88773329D01*
X137176471Y-88752109D01*
X137148600Y-88749854D01*
X142229958Y-112052756D02*
X142333993Y-112183187D01*
X155148600Y-97749854D02*
X154945883Y-97737564D01*
X154924850Y-97736702D01*
X148834044Y-112431438D02*
X148975551Y-112286136D01*
X149066007Y-112183187D01*
X140648933Y-90520370D02*
X140525035Y-90365028D01*
X143436970Y-113057967D02*
X143605157Y-113142583D01*
X142828346Y-108273312D02*
X142668982Y-108407456D01*
X142565956Y-108503162D01*
X132167256Y-91723637D02*
X132122868Y-91930308D01*
X132098239Y-92092622D01*
X150874965Y-103569572D02*
X151016236Y-103728279D01*
X151148807Y-103862700D01*
X159119142Y-91363461D02*
X159041103Y-91176707D01*
X158962279Y-91015020D01*
X141377615Y-110586721D02*
X141412542Y-110920450D01*
X141486439Y-111244328D01*
X141597407Y-111556847D01*
X141743548Y-111856500D01*
X141922964Y-112141781D01*
X142133759Y-112411181D01*
X142374034Y-112663194D01*
X142641891Y-112896313D01*
X142935433Y-113109031D01*
X143252763Y-113299841D01*
X143591982Y-113467236D01*
X143951192Y-113609708D01*
X144328497Y-113725751D01*
X144523342Y-113773390D01*
X144721998Y-113813857D01*
X144924230Y-113846963D01*
X145129798Y-113872520D01*
X145338467Y-113890339D01*
X145550000Y-113900233D01*
D11*
%TO.N,Net-(C19-Pad1)*%
X154850000Y-97734259D02*
X154850000Y-104900233D01*
D10*
X157944813Y-98803469D02*
X157780212Y-98678985D01*
X157608414Y-98561238D01*
X137150000Y-104582561D02*
X137357103Y-104560060D01*
X137497639Y-104539861D01*
X156447683Y-98008414D02*
X156251360Y-97948038D01*
X156052119Y-97894981D01*
X156025351Y-97888463D01*
X132167256Y-93210963D02*
X132222136Y-93403593D01*
X132280858Y-93571139D01*
X157280670Y-103870784D02*
X157447754Y-103755563D01*
X157571654Y-103661288D01*
X151828346Y-99273312D02*
X151668982Y-99407456D01*
X151565956Y-99503162D01*
D11*
%TO.N,GND*%
X144950000Y-107387439D02*
X144950000Y-107387437D01*
D10*
X157944813Y-89803469D02*
X157780212Y-89678985D01*
X157608414Y-89561238D01*
X140525035Y-103569572D02*
X140648933Y-103414230D01*
X150119142Y-109363461D02*
X150041103Y-109176707D01*
X149962279Y-109015020D01*
X156447683Y-95926186D02*
X156640778Y-95858542D01*
X156830395Y-95783643D01*
X156855402Y-95773109D01*
X140706348Y-101166676D02*
X140672066Y-100961905D01*
X140650752Y-100869534D01*
X132969808Y-100292299D02*
X132881456Y-100478571D01*
X132841390Y-100577479D01*
X132377615Y-101586721D02*
X132412542Y-101920450D01*
X132486439Y-102244328D01*
X132597407Y-102556847D01*
X132743548Y-102856500D01*
X132922964Y-103141781D01*
X133133759Y-103411181D01*
X133374034Y-103663194D01*
X133641891Y-103896313D01*
X133935433Y-104109031D01*
X134252763Y-104299841D01*
X134591982Y-104467236D01*
X134951192Y-104609708D01*
X135328497Y-104725751D01*
X135523342Y-104773390D01*
X135721998Y-104813857D01*
X135924230Y-104846963D01*
X136129798Y-104872520D01*
X136338467Y-104890339D01*
X136550000Y-104900233D01*
X150841390Y-100577479D02*
X150776814Y-100768487D01*
X150749248Y-100869534D01*
X158430192Y-91292299D02*
X158326320Y-91109849D01*
X158265708Y-91015973D01*
X152778986Y-89713815D02*
X152605157Y-89792017D01*
X145250000Y-107050944D02*
X145039844Y-107072487D01*
X144833239Y-107101780D01*
X144630403Y-107138620D01*
X144431557Y-107182808D01*
X144236922Y-107234141D01*
X143861161Y-107357440D01*
X143504883Y-107506911D01*
X143169848Y-107680944D01*
X142857817Y-107877931D01*
X142570553Y-108096266D01*
X142309816Y-108334338D01*
X142077367Y-108590541D01*
X141874968Y-108863266D01*
X141704379Y-109150905D01*
X141567363Y-109451849D01*
X141465680Y-109764491D01*
X141401092Y-110087223D01*
X141375359Y-110418436D01*
X141377615Y-110586721D01*
X150874965Y-90365028D02*
X150751067Y-90520370D01*
X154250000Y-89050944D02*
X154039844Y-89072487D01*
X153833239Y-89101780D01*
X153630403Y-89138620D01*
X153431557Y-89182808D01*
X153236922Y-89234141D01*
X152861161Y-89357440D01*
X152504883Y-89506911D01*
X152169848Y-89680944D01*
X151857817Y-89877931D01*
X151570553Y-90096266D01*
X151309816Y-90334338D01*
X151077367Y-90590541D01*
X150874968Y-90863266D01*
X150704379Y-91150905D01*
X150567363Y-91451849D01*
X150465680Y-91764491D01*
X150401092Y-92087223D01*
X150375359Y-92418436D01*
X150377615Y-92586721D01*
X134605157Y-104142583D02*
X134778986Y-104220785D01*
X134436970Y-95057967D02*
X134605157Y-95142583D01*
D11*
X145550000Y-106734259D02*
X145550000Y-113900233D01*
D10*
X141693652Y-110166676D02*
X141676828Y-110373167D01*
X141675000Y-110467300D01*
X135139681Y-98578409D02*
X134946061Y-98646799D01*
X134778986Y-98713815D01*
X140558610Y-91577479D02*
X140478409Y-91389428D01*
X140430192Y-91292299D01*
X136850000Y-95900233D02*
X137061532Y-95890339D01*
X137270201Y-95872520D01*
X137475769Y-95846963D01*
X137678001Y-95813857D01*
X137876657Y-95773390D01*
X138071502Y-95725751D01*
X138448807Y-95609708D01*
X138808017Y-95467236D01*
X139147236Y-95299841D01*
X139464566Y-95109031D01*
X139758108Y-94896313D01*
X140025965Y-94663194D01*
X140266240Y-94411181D01*
X140477035Y-94141781D01*
X140656451Y-93856500D01*
X140802592Y-93556847D01*
X140913560Y-93244328D01*
X140987457Y-92920450D01*
X141022385Y-92586721D01*
X132098239Y-101841978D02*
X132131501Y-102050431D01*
X132167256Y-102210963D01*
X150749248Y-100869534D02*
X150707079Y-101073346D01*
X150693652Y-101166676D01*
X157052775Y-89250287D02*
X156867880Y-89166806D01*
X156855402Y-89161491D01*
X141636466Y-112253543D02*
X141751067Y-112414230D01*
X133828346Y-99273312D02*
X133668982Y-99407456D01*
X133565956Y-99503162D01*
X156260319Y-89578409D02*
X156050766Y-89514849D01*
X155837056Y-89460530D01*
X155619734Y-89415595D01*
X155497639Y-89394739D01*
X142134292Y-109015973D02*
X142027262Y-109187541D01*
X141969808Y-109292299D01*
X138794843Y-98792017D02*
X138621014Y-98713815D01*
X147260319Y-113356191D02*
X147453938Y-113287800D01*
X147621014Y-113220785D01*
X132969808Y-91292299D02*
X132881456Y-91478571D01*
X132841390Y-91577479D01*
X141280858Y-109363461D02*
X141215033Y-109553525D01*
X141167256Y-109723637D01*
X149525035Y-108365028D02*
X149383763Y-108206320D01*
X149251193Y-108071900D01*
X151455187Y-98803469D02*
X151298089Y-98934503D01*
X151148807Y-99071900D01*
D11*
X136250000Y-98050944D02*
X136250000Y-104582562D01*
D10*
X158251193Y-103862700D02*
X158392341Y-103719128D01*
X158525035Y-103569572D01*
X150751067Y-90520370D02*
X150636466Y-90681057D01*
X139944813Y-104131131D02*
X140101910Y-104000096D01*
X140251193Y-103862700D01*
X132636466Y-90681057D02*
X132525736Y-90856532D01*
X132437721Y-91015020D01*
D11*
X153200000Y-94600000D02*
X153950000Y-95249914D01*
X136250000Y-104582562D02*
X136250000Y-104582561D01*
D10*
X151828346Y-103661288D02*
X151988629Y-103781760D01*
X152119330Y-103870784D01*
X142148807Y-108071900D02*
X142007658Y-108215471D01*
X141874965Y-108365028D01*
X150841390Y-91577479D02*
X150776814Y-91768487D01*
X150749248Y-91869534D01*
X141749248Y-109869534D02*
X141707079Y-110073346D01*
X141693652Y-110166676D01*
X139052775Y-104684313D02*
X139232608Y-104594142D01*
X139244404Y-104587900D01*
X139052775Y-98250287D02*
X138867880Y-98166806D01*
X138855402Y-98161491D01*
X132636466Y-103253543D02*
X132751067Y-103414230D01*
X158265708Y-100015973D02*
X158170042Y-99881844D01*
X158170042Y-94052756D02*
X158265708Y-93918627D01*
X141636466Y-108681057D02*
X141525736Y-108856532D01*
X141437721Y-109015020D01*
X154251400Y-97749854D02*
X154042961Y-97770062D01*
X153836095Y-97797831D01*
X153808649Y-97802102D01*
X133828346Y-90273312D02*
X133668982Y-90407456D01*
X133565956Y-90503162D01*
X158706348Y-101767924D02*
X158723171Y-101561432D01*
X158725000Y-101467300D01*
X140525035Y-94569572D02*
X140648933Y-94414230D01*
X150167256Y-91723637D02*
X150122868Y-91930308D01*
X150098239Y-92092622D01*
X152347225Y-98250287D02*
X152167391Y-98340457D01*
X152155596Y-98346700D01*
X144374649Y-106888463D02*
X144175043Y-106940540D01*
X143978313Y-106999943D01*
X143952317Y-107008414D01*
X151148807Y-99071900D02*
X151007658Y-99215471D01*
X150874965Y-99365028D01*
X139244404Y-89346700D02*
X139064930Y-89256094D01*
X139052775Y-89250287D01*
X148571654Y-108273312D02*
X148411370Y-108152839D01*
X148280670Y-108063816D01*
X148244404Y-107346700D02*
X148064930Y-107256094D01*
X148052775Y-107250287D01*
X140962279Y-93919580D02*
X141050911Y-93736107D01*
X141119142Y-93571139D01*
X158251193Y-90071900D02*
X158101910Y-89934503D01*
X157944813Y-89803469D01*
X150751067Y-99520370D02*
X150636466Y-99681057D01*
X156963030Y-98876633D02*
X156794843Y-98792017D01*
X140251193Y-94862700D02*
X140392341Y-94719128D01*
X140525035Y-94569572D01*
X140430192Y-93642301D02*
X140518543Y-93456028D01*
X140558610Y-93357121D01*
X153950000Y-98387439D02*
X153902361Y-98394739D01*
X143436970Y-107876633D02*
X143255133Y-107979064D01*
X143119330Y-108063816D01*
X147621014Y-107713815D02*
X147431389Y-107638335D01*
X147260319Y-107578409D01*
X139944813Y-89803469D02*
X139780212Y-89678985D01*
X139608414Y-89561238D01*
X147447683Y-113926186D02*
X147640778Y-113858542D01*
X147830395Y-113783643D01*
X147855402Y-113773109D01*
X158648933Y-99520370D02*
X158525035Y-99365028D01*
X156025351Y-88888463D02*
X155823187Y-88843767D01*
X155618762Y-88806505D01*
X155591351Y-88802102D01*
X158706348Y-92166676D02*
X158672066Y-91961905D01*
X158650752Y-91869534D01*
X157571654Y-103661288D02*
X157731017Y-103527143D01*
X157834044Y-103431438D01*
X139280670Y-99063816D02*
X139105151Y-98955656D01*
X138963030Y-98876633D01*
X152778986Y-98713815D02*
X152605157Y-98792017D01*
X150325000Y-110467300D02*
X150319170Y-110279450D01*
X142333993Y-108751413D02*
X142229958Y-108881844D01*
X152119330Y-90063816D02*
X151952245Y-90179036D01*
X151828346Y-90273312D01*
X133455187Y-98803469D02*
X133298089Y-98934503D01*
X133148807Y-99071900D01*
X137497639Y-98394739D02*
X137450000Y-98387439D01*
X151229958Y-94052756D02*
X151333993Y-94183187D01*
X149558610Y-109577479D02*
X149478409Y-109389428D01*
X149430192Y-109292299D01*
X159119142Y-100363461D02*
X159041103Y-100176707D01*
X158962279Y-100015020D01*
D11*
%TO.N,Net-(C1-Pad1)*%
X137450000Y-89387437D02*
X137450000Y-95249957D01*
D10*
X149430192Y-109292299D02*
X149326320Y-109109849D01*
X149265708Y-109015973D01*
X157944813Y-104131131D02*
X158101910Y-104000096D01*
X158251193Y-103862700D01*
X150119142Y-111571139D02*
X150184966Y-111381074D01*
X150232744Y-111210963D01*
X141075000Y-110467300D02*
X141080830Y-110655150D01*
X147963030Y-107876633D02*
X147794843Y-107792017D01*
X159119142Y-102571139D02*
X159184966Y-102381074D01*
X159232744Y-102210963D01*
X140265708Y-100015973D02*
X140170042Y-99881844D01*
X133148807Y-94862700D02*
X133298089Y-95000096D01*
X133455187Y-95131131D01*
X150969808Y-100292299D02*
X150881456Y-100478571D01*
X150841390Y-100577479D01*
X147794843Y-113142583D02*
X147963030Y-113057967D01*
X141319170Y-92279450D02*
X141301761Y-92092622D01*
X151134292Y-100015973D02*
X151027262Y-100187541D01*
X150969808Y-100292299D01*
X147621014Y-113220785D02*
X147794843Y-113142583D01*
X132874965Y-99365028D02*
X132751067Y-99520370D01*
X158525035Y-90365028D02*
X158383763Y-90206320D01*
X158251193Y-90071900D01*
X138260319Y-95356191D02*
X138453938Y-95287800D01*
X138621014Y-95220785D01*
X133565956Y-94431438D02*
X133718194Y-94570254D01*
X133828346Y-94661288D01*
X134605157Y-89792017D02*
X134436970Y-89876633D01*
X155497639Y-95539861D02*
X155716733Y-95500201D01*
X155932517Y-95451077D01*
X156144446Y-95392634D01*
X156260319Y-95356191D01*
X154550000Y-97734259D02*
X154475150Y-97736702D01*
X151134292Y-102918627D02*
X151229958Y-103052756D01*
X148608414Y-107561238D02*
X148429715Y-107450415D01*
X148244404Y-107346700D01*
X157244404Y-89346700D02*
X157064930Y-89256094D01*
X157052775Y-89250287D01*
X150841390Y-93357121D02*
X150921590Y-93545171D01*
X150969808Y-93642301D01*
X153902361Y-104539861D02*
X154108094Y-104568070D01*
X154250000Y-104582561D01*
X156260319Y-95356191D02*
X156453938Y-95287800D01*
X156621014Y-95220785D01*
X141437721Y-111919580D02*
X141538160Y-112098945D01*
X141636466Y-112253543D01*
X154475150Y-97736702D02*
X154272318Y-97748251D01*
X154251400Y-97749854D01*
X140430192Y-102642301D02*
X140518543Y-102456028D01*
X140558610Y-102357121D01*
X141751067Y-112414230D02*
X141874965Y-112569572D01*
X138963030Y-89876633D02*
X138794843Y-89792017D01*
X146591351Y-106802102D02*
X146384718Y-106773329D01*
X146176471Y-106752109D01*
X146148600Y-106749854D01*
X150080830Y-92655150D02*
X150098239Y-92841978D01*
X144139681Y-107578409D02*
X143946061Y-107646799D01*
X143778986Y-107713815D01*
X151828346Y-94661288D02*
X151988629Y-94781760D01*
X152119330Y-94870784D01*
X150751067Y-103414230D02*
X150874965Y-103569572D01*
X132080830Y-101655150D02*
X132098239Y-101841978D01*
X147260319Y-107578409D02*
X147050766Y-107514849D01*
X146837056Y-107460530D01*
X146619734Y-107415595D01*
X146497639Y-107394739D01*
X134436970Y-104057967D02*
X134605157Y-104142583D01*
D11*
%TO.N,GND*%
X153950000Y-89387437D02*
X153950000Y-95249957D01*
D10*
X138855402Y-98161491D02*
X138666266Y-98085625D01*
X138473621Y-98017013D01*
X138447683Y-98008414D01*
D11*
X135950000Y-98387437D02*
X135950000Y-104249957D01*
D10*
X135139681Y-89578409D02*
X134946061Y-89646799D01*
X134778986Y-89713815D01*
D11*
%TO.N,Net-(C25-Pad1)*%
X146150000Y-113582561D02*
X146150000Y-113582562D01*
D10*
X150693652Y-92767924D02*
X150727933Y-92972694D01*
X150749248Y-93065066D01*
X139834044Y-103431438D02*
X139975551Y-103286136D01*
X140066007Y-103183187D01*
X141874965Y-108365028D02*
X141751067Y-108520370D01*
X157608414Y-95373362D02*
X157780212Y-95255614D01*
X157944813Y-95131131D01*
X133148807Y-90071900D02*
X133007658Y-90215471D01*
X132874965Y-90365028D01*
X141119142Y-102571139D02*
X141184966Y-102381074D01*
X141232744Y-102210963D01*
X140525035Y-99365028D02*
X140383763Y-99206320D01*
X140251193Y-99071900D01*
X136250000Y-98050944D02*
X136039844Y-98072487D01*
X135833239Y-98101780D01*
X135630403Y-98138620D01*
X135431557Y-98182808D01*
X135236922Y-98234141D01*
X134861161Y-98357440D01*
X134504883Y-98506911D01*
X134169848Y-98680944D01*
X133857817Y-98877931D01*
X133570553Y-99096266D01*
X133309816Y-99334338D01*
X133077367Y-99590541D01*
X132874968Y-99863266D01*
X132704379Y-100150905D01*
X132567363Y-100451849D01*
X132465680Y-100764491D01*
X132401092Y-101087223D01*
X132375359Y-101418436D01*
X132377615Y-101586721D01*
X140265708Y-91015973D02*
X140170042Y-90881844D01*
X148052775Y-113684313D02*
X148232608Y-113594142D01*
X148244404Y-113587900D01*
X135139681Y-95356191D02*
X135349233Y-95419750D01*
X135562943Y-95474069D01*
X135780265Y-95519004D01*
X135902361Y-95539861D01*
X133229958Y-90881844D02*
X133134292Y-91015973D01*
X132969808Y-102642301D02*
X133073679Y-102824750D01*
X133134292Y-102918627D01*
X150167256Y-93210963D02*
X150222136Y-93403593D01*
X150280858Y-93571139D01*
D11*
%TO.N,Net-(C13-Pad1)*%
X136850000Y-97734259D02*
X136850000Y-104900233D01*
D10*
X144950000Y-107387439D02*
X144902361Y-107394739D01*
D11*
%TO.N,Net-(C10-Pad1)*%
X155150000Y-95582561D02*
X155150000Y-95582562D01*
D10*
X139244404Y-95587900D02*
X139429715Y-95484184D01*
X139608414Y-95373362D01*
X140763534Y-90681057D02*
X140648933Y-90520370D01*
D11*
%TO.N,Net-(C19-Pad1)*%
X156447683Y-104926186D02*
X156600000Y-105700000D01*
%TD*%
D12*
%TO.P,J1,2,Ext*%
%TO.N,GND*%
X136850000Y-157880000D03*
X131200000Y-157880000D03*
%TD*%
D13*
%TO.P,J3,1,Pin_1*%
%TO.N,Net-(J3-Pin_1)*%
X123075000Y-149115000D03*
D14*
%TO.P,J3,2,Pin_2*%
%TO.N,Net-(J3-Pin_2)*%
X123075000Y-146575000D03*
%TO.P,J3,3,Pin_3*%
%TO.N,Net-(J3-Pin_3)*%
X123075000Y-144035000D03*
%TO.P,J3,4,Pin_4*%
%TO.N,Net-(J3-Pin_4)*%
X123075000Y-141495000D03*
%TD*%
D12*
%TO.P,J2,2,Ext*%
%TO.N,GND*%
X158900000Y-157880000D03*
X153250000Y-157880000D03*
%TD*%
D15*
%TO.N,Net-(J3-Pin_3)*%
X144723376Y-94803647D03*
%TO.N,Net-(J3-Pin_1)*%
X142500000Y-96000000D03*
%TO.N,Net-(J3-Pin_4)*%
X145792873Y-94953905D03*
D16*
%TO.N,GND*%
X133300000Y-104700000D03*
D15*
X147000000Y-96500000D03*
D16*
X153750000Y-105900000D03*
X153300000Y-102000000D03*
D15*
X144000000Y-100250000D03*
X143157738Y-98379802D03*
D16*
X153750000Y-96900000D03*
D15*
X144289192Y-96377705D03*
X146500000Y-100250000D03*
D16*
X135750000Y-105900000D03*
D15*
X147250000Y-98500000D03*
D16*
X133300000Y-95700000D03*
X135300000Y-102000000D03*
X144300000Y-111000000D03*
X142300000Y-113700000D03*
X151300000Y-95700000D03*
X144750000Y-114900000D03*
X153300000Y-93000000D03*
X151300000Y-104700000D03*
%TO.N,Net-(C1-Pad1)*%
X138600000Y-96700000D03*
X135300000Y-93000000D03*
X138800000Y-94400000D03*
X138300000Y-93700000D03*
X153200000Y-103600000D03*
X135750000Y-96900000D03*
X144200000Y-112600000D03*
X135200000Y-103600000D03*
X135200000Y-94600000D03*
X153200000Y-94600000D03*
X137650000Y-96900000D03*
%TO.N,Net-(C10-Pad1)*%
X155650000Y-96900000D03*
X156300000Y-93700000D03*
X156600000Y-96700000D03*
X156800000Y-94400000D03*
%TO.N,Net-(C13-Pad1)*%
X138800000Y-103400000D03*
X137650000Y-105900000D03*
X138300000Y-102700000D03*
X138600000Y-105700000D03*
%TO.N,Net-(C19-Pad1)*%
X155650000Y-105900000D03*
X156800000Y-103400000D03*
X156300000Y-102700000D03*
X156600000Y-105700000D03*
%TO.N,Net-(C25-Pad1)*%
X147800000Y-112400000D03*
X146681587Y-114775000D03*
X147600000Y-114700000D03*
X147300000Y-111700000D03*
D15*
%TO.N,Net-(J3-Pin_2)*%
X144000000Y-95250000D03*
%TD*%
D11*
%TO.N,Net-(J3-Pin_3)*%
X140265685Y-84950000D02*
X144723376Y-89407691D01*
X144723376Y-89407691D02*
X144723376Y-94803647D01*
X130576472Y-84950000D02*
X140265685Y-84950000D01*
X123075000Y-144035000D02*
X124950000Y-142160000D01*
X124950000Y-142160000D02*
X124950000Y-90576472D01*
X124950000Y-90576472D02*
X130576472Y-84950000D01*
%TO.N,Net-(J3-Pin_1)*%
X123075000Y-149115000D02*
X124225000Y-147965000D01*
X124225000Y-146525000D02*
X125750000Y-145000000D01*
X143250000Y-95250000D02*
X142500000Y-96000000D01*
X139934314Y-85750000D02*
X143250000Y-89065686D01*
X124225000Y-147965000D02*
X124225000Y-146525000D01*
X125750000Y-145000000D02*
X125750000Y-90907843D01*
X130907843Y-85750000D02*
X139934314Y-85750000D01*
X143250000Y-89065686D02*
X143250000Y-95250000D01*
X125750000Y-90907843D02*
X130907843Y-85750000D01*
%TO.N,Net-(J3-Pin_4)*%
X123075000Y-91885787D02*
X130410787Y-84550000D01*
X130410787Y-84550000D02*
X140431371Y-84550000D01*
X145792873Y-89911502D02*
X145792873Y-94953905D01*
X140431371Y-84550000D02*
X145792873Y-89911502D01*
X123075000Y-141495000D02*
X123075000Y-91885787D01*
%TO.N,Net-(J3-Pin_2)*%
X125350000Y-90742158D02*
X125350000Y-144300000D01*
X130742157Y-85350000D02*
X125350000Y-90742158D01*
X125350000Y-144300000D02*
X123075000Y-146575000D01*
X144000000Y-89250000D02*
X140099999Y-85350000D01*
X140099999Y-85350000D02*
X130742157Y-85350000D01*
X144000000Y-95250000D02*
X144000000Y-89250000D01*
%TD*%
%TA.AperFunction,Conductor*%
%TO.N,GND*%
G36*
X147443039Y-96019685D02*
G01*
X147488794Y-96072489D01*
X147500000Y-96124000D01*
X147500000Y-100626000D01*
X147480315Y-100693039D01*
X147427511Y-100738794D01*
X147376000Y-100750000D01*
X143124000Y-100750000D01*
X143056961Y-100730315D01*
X143011206Y-100677511D01*
X143000000Y-100626000D01*
X143000000Y-96124000D01*
X143019685Y-96056961D01*
X143072489Y-96011206D01*
X143124000Y-96000000D01*
X147376000Y-96000000D01*
X147443039Y-96019685D01*
G37*
%TD.AperFunction*%
%TD*%
M02*
