%TF.GenerationSoftware,KiCad,Pcbnew,8.0.5*%
%TF.CreationDate,2025-02-19T13:56:41-05:00*%
%TF.ProjectId,96wp_coils_r2,39367770-5f63-46f6-996c-735f72322e6b,rev?*%
%TF.SameCoordinates,Original*%
%TF.FileFunction,Copper,L4,Bot*%
%TF.FilePolarity,Positive*%
%FSLAX46Y46*%
G04 Gerber Fmt 4.6, Leading zero omitted, Abs format (unit mm)*
G04 Created by KiCad (PCBNEW 8.0.5) date 2025-02-19 13:56:41*
%MOMM*%
%LPD*%
G01*
G04 APERTURE LIST*
%TA.AperFunction,Conductor*%
%ADD10C,0.200000*%
%TD*%
%TA.AperFunction,NonConductor*%
%ADD11C,0.200000*%
%TD*%
%TA.AperFunction,EtchedComponent*%
%ADD12C,0.200000*%
%TD*%
%TA.AperFunction,SMDPad,CuDef*%
%ADD13R,1.000000X3.150000*%
%TD*%
%TA.AperFunction,SMDPad,CuDef*%
%ADD14C,0.500000*%
%TD*%
%TA.AperFunction,ComponentPad*%
%ADD15C,0.500000*%
%TD*%
%TA.AperFunction,ViaPad*%
%ADD16C,0.600000*%
%TD*%
%TA.AperFunction,ViaPad*%
%ADD17C,0.450000*%
%TD*%
G04 APERTURE END LIST*
D10*
%TO.N,/C9-*%
X134050000Y-60128434D02*
X135400000Y-60128434D01*
%TO.N,/C7+*%
X127954090Y-75324344D02*
X125404090Y-75324344D01*
%TO.N,/C14-*%
X143050000Y-69128434D02*
X143050000Y-66578434D01*
%TO.N,/C6-*%
X125050000Y-69128434D02*
X125050000Y-66578434D01*
%TO.N,/C9-*%
X136200000Y-60978434D02*
X135400000Y-60128434D01*
%TO.N,/C15+*%
X145954090Y-75324344D02*
X143404090Y-75324344D01*
%TO.N,/C7+*%
X127954090Y-75324344D02*
X127954090Y-73974344D01*
%TO.N,/C10+*%
X136954090Y-66324344D02*
X136954090Y-64974344D01*
%TO.N,/C9-*%
X134050000Y-60128434D02*
X134050000Y-57578434D01*
X132700000Y-57578434D02*
X134050000Y-57578434D01*
%TO.N,/C8-*%
X123700000Y-84578434D02*
X125050000Y-84578434D01*
%TO.N,/C12+*%
X136954090Y-84324344D02*
X136954090Y-82974344D01*
D11*
X118954090Y-66324344D02*
X116404090Y-66324344D01*
X116050000Y-78128434D02*
X116050000Y-75578434D01*
D10*
%TO.N,/C7+*%
X125404090Y-76674344D02*
X125404090Y-75324344D01*
D11*
X118954090Y-84324344D02*
X118954090Y-82974344D01*
D10*
%TO.N,/C13+*%
X145954090Y-57324344D02*
X143404090Y-57324344D01*
%TO.N,/C5+*%
X128804090Y-55174344D02*
X127954090Y-55974344D01*
%TO.N,/C14-*%
X143050000Y-69128434D02*
X144400000Y-69128434D01*
%TO.N,/C11-*%
X136200000Y-78978434D02*
X135400000Y-78128434D01*
%TO.N,/C6-*%
X123700000Y-66578434D02*
X125050000Y-66578434D01*
%TO.N,/C14-*%
X141700000Y-66578434D02*
X143050000Y-66578434D01*
D11*
X119804090Y-82174344D02*
X118954090Y-82974344D01*
D10*
%TO.N,/C11-*%
X134050000Y-78128434D02*
X134050000Y-75578434D01*
%TO.N,/C13+*%
X145954090Y-57324344D02*
X145954090Y-55974344D01*
D11*
X119804090Y-64174344D02*
X118954090Y-64974344D01*
D10*
%TO.N,/C16-*%
X141700000Y-84578434D02*
X143050000Y-84578434D01*
D11*
X116050000Y-60128434D02*
X116050000Y-57578434D01*
X116404090Y-67674344D02*
X116404090Y-66324344D01*
D10*
%TO.N,/C15+*%
X146804090Y-73174344D02*
X145954090Y-73974344D01*
%TO.N,/C10+*%
X134404090Y-67674344D02*
X134404090Y-66324344D01*
%TO.N,/C13+*%
X146804090Y-55174344D02*
X145954090Y-55974344D01*
%TO.N,/C14-*%
X145200000Y-69978434D02*
X144400000Y-69128434D01*
%TO.N,/C8-*%
X125050000Y-87128434D02*
X126400000Y-87128434D01*
%TO.N,/C16-*%
X143050000Y-87128434D02*
X144400000Y-87128434D01*
D11*
X116050000Y-60128434D02*
X117400000Y-60128434D01*
D10*
%TO.N,/C11-*%
X132700000Y-75578434D02*
X134050000Y-75578434D01*
%TO.N,/C13+*%
X143404090Y-58674344D02*
X143404090Y-57324344D01*
%TO.N,/C8-*%
X127200000Y-87978434D02*
X126400000Y-87128434D01*
D11*
X114700000Y-57578434D02*
X116050000Y-57578434D01*
X118200000Y-78978434D02*
X117400000Y-78128434D01*
D10*
%TO.N,/C6-*%
X127200000Y-69978434D02*
X126400000Y-69128434D01*
%TO.N,/C11-*%
X134050000Y-78128434D02*
X135400000Y-78128434D01*
%TO.N,/C15+*%
X143404090Y-76674344D02*
X143404090Y-75324344D01*
D11*
X116050000Y-78128434D02*
X117400000Y-78128434D01*
D10*
%TO.N,/C10+*%
X137804090Y-64174344D02*
X136954090Y-64974344D01*
X136954090Y-66324344D02*
X134404090Y-66324344D01*
%TO.N,/C5+*%
X127954090Y-57324344D02*
X127954090Y-55974344D01*
D11*
X118954090Y-84324344D02*
X116404090Y-84324344D01*
D10*
X127954090Y-57324344D02*
X125404090Y-57324344D01*
X125404090Y-58674344D02*
X125404090Y-57324344D01*
D11*
X118954090Y-66324344D02*
X118954090Y-64974344D01*
D10*
%TO.N,/C6-*%
X125050000Y-69128434D02*
X126400000Y-69128434D01*
%TO.N,/C16-*%
X145200000Y-87978434D02*
X144400000Y-87128434D01*
%TO.N,/C12+*%
X136954090Y-84324344D02*
X134404090Y-84324344D01*
%TO.N,/C16-*%
X143050000Y-87128434D02*
X143050000Y-84578434D01*
%TO.N,/C12+*%
X134404090Y-85674344D02*
X134404090Y-84324344D01*
X137804090Y-82174344D02*
X136954090Y-82974344D01*
D11*
X114700000Y-75578434D02*
X116050000Y-75578434D01*
X116404090Y-85674344D02*
X116404090Y-84324344D01*
D10*
%TO.N,/C15+*%
X145954090Y-75324344D02*
X145954090Y-73974344D01*
%TO.N,/C7+*%
X128804090Y-73174344D02*
X127954090Y-73974344D01*
%TO.N,/C8-*%
X125050000Y-87128434D02*
X125050000Y-84578434D01*
D11*
X118200000Y-60978434D02*
X117400000Y-60128434D01*
D12*
%TD*%
%TO.C,L17*%
X123600000Y-50050000D02*
X133600000Y-50050000D01*
%TO.C,L17*%
X123600000Y-49050000D02*
X133600000Y-49050000D01*
X123600000Y-48050000D02*
X133600000Y-48050000D01*
X123600000Y-47050000D02*
X133600000Y-47050000D01*
X123600000Y-46050000D02*
X133600000Y-46050000D01*
%TD*%
D13*
%TO.P,J1,34,Pin_34*%
%TO.N,/C1+*%
X109680000Y-123225000D03*
%TO.P,J1,33,Pin_33*%
%TO.N,/C1-*%
X109680000Y-128275000D03*
%TO.P,J1,32,Pin_32*%
%TO.N,/C2+*%
X112220000Y-123225000D03*
%TO.P,J1,31,Pin_31*%
%TO.N,/C2-*%
X112220000Y-128275000D03*
%TO.P,J1,30,Pin_30*%
%TO.N,/C3+*%
X114760000Y-123225000D03*
%TO.P,J1,29,Pin_29*%
%TO.N,/C3-*%
X114760000Y-128275000D03*
%TO.P,J1,28,Pin_28*%
%TO.N,/C4+*%
X117300000Y-123225000D03*
%TO.P,J1,27,Pin_27*%
%TO.N,/C4-*%
X117300000Y-128275000D03*
%TO.P,J1,26,Pin_26*%
%TO.N,/C5+*%
X119840000Y-123225000D03*
%TO.P,J1,25,Pin_25*%
%TO.N,/C5-*%
X119840000Y-128275000D03*
%TO.P,J1,24,Pin_24*%
%TO.N,/C8+*%
X122380000Y-123225000D03*
%TO.P,J1,23,Pin_23*%
%TO.N,/C8-*%
X122380000Y-128275000D03*
%TO.P,J1,22,Pin_22*%
%TO.N,/C6+*%
X124920000Y-123225000D03*
%TO.P,J1,21,Pin_21*%
%TO.N,/C6-*%
X124920000Y-128275000D03*
%TO.P,J1,20,Pin_20*%
%TO.N,/C7+*%
X127460000Y-123225000D03*
%TO.P,J1,19,Pin_19*%
%TO.N,/C7-*%
X127460000Y-128275000D03*
%TO.P,J1,18,Pin_18*%
%TO.N,/C9+*%
X130000000Y-123225000D03*
%TO.P,J1,17,Pin_17*%
%TO.N,/C9-*%
X130000000Y-128275000D03*
%TO.P,J1,16,Pin_16*%
%TO.N,/C11+*%
X132540000Y-123225000D03*
%TO.P,J1,15,Pin_15*%
%TO.N,/C11-*%
X132540000Y-128275000D03*
%TO.P,J1,14,Pin_14*%
%TO.N,/C10+*%
X135080000Y-123225000D03*
%TO.P,J1,13,Pin_13*%
%TO.N,/C10-*%
X135080000Y-128275000D03*
%TO.P,J1,12,Pin_12*%
%TO.N,/C12+*%
X137620000Y-123225000D03*
%TO.P,J1,11,Pin_11*%
%TO.N,/C12-*%
X137620000Y-128275000D03*
%TO.P,J1,10,Pin_10*%
%TO.N,/C16+*%
X140160000Y-123225000D03*
%TO.P,J1,9,Pin_9*%
%TO.N,/C16-*%
X140160000Y-128275000D03*
%TO.P,J1,8,Pin_8*%
%TO.N,/C15+*%
X142700000Y-123225000D03*
%TO.P,J1,7,Pin_7*%
%TO.N,/C15-*%
X142700000Y-128275000D03*
%TO.P,J1,6,Pin_6*%
%TO.N,/C14-*%
X145240000Y-123225000D03*
%TO.P,J1,5,Pin_5*%
%TO.N,/C14+*%
X145240000Y-128275000D03*
%TO.P,J1,4,Pin_4*%
%TO.N,/C13+*%
X147780000Y-123225000D03*
%TO.P,J1,3,Pin_3*%
%TO.N,/C13-*%
X147780000Y-128275000D03*
%TO.P,J1,2,Pin_2*%
%TO.N,/F+*%
X150320000Y-123225000D03*
%TO.P,J1,1,Pin_1*%
%TO.N,/F-*%
X150320000Y-128275000D03*
%TD*%
D14*
%TO.P,L3,2*%
%TO.N,/C3-*%
X117600000Y-76550000D03*
%TO.P,L3,1*%
%TO.N,/C3+*%
X112600000Y-78300000D03*
%TD*%
%TO.P,L10,2*%
%TO.N,/C10+*%
X135375656Y-64774344D03*
%TO.P,L10,1*%
%TO.N,/C10-*%
X137125656Y-69774344D03*
%TD*%
%TO.P,L11,2*%
%TO.N,/C11-*%
X135600000Y-76550000D03*
%TO.P,L11,1*%
%TO.N,/C11+*%
X130600000Y-78300000D03*
%TD*%
%TO.P,L9,2*%
%TO.N,/C9-*%
X135600000Y-58550000D03*
%TO.P,L9,1*%
%TO.N,/C9+*%
X130600000Y-60300000D03*
%TD*%
%TO.P,L8,1*%
%TO.N,/C8+*%
X121600000Y-87300000D03*
%TO.P,L8,2*%
%TO.N,/C8-*%
X126600000Y-85550000D03*
%TD*%
%TO.P,L6,2*%
%TO.N,/C6-*%
X126600000Y-67550000D03*
%TO.P,L6,1*%
%TO.N,/C6+*%
X121600000Y-69300000D03*
%TD*%
%TO.P,L4,2*%
%TO.N,/C4+*%
X117375656Y-82774344D03*
%TO.P,L4,1*%
%TO.N,/C4-*%
X119125656Y-87774344D03*
%TD*%
%TO.P,L2,2*%
%TO.N,/C2+*%
X117375656Y-64774344D03*
%TO.P,L2,1*%
%TO.N,/C2-*%
X119125656Y-69774344D03*
%TD*%
%TO.P,L5,2*%
%TO.N,/C5+*%
X126375656Y-55774344D03*
%TO.P,L5,1*%
%TO.N,/C5-*%
X128125656Y-60774344D03*
%TD*%
%TO.P,L13,2*%
%TO.N,/C13-*%
X144375656Y-55774344D03*
%TO.P,L13,1*%
%TO.N,/C13+*%
X146125656Y-60774344D03*
%TD*%
%TO.P,L16,2*%
%TO.N,/C16-*%
X144600000Y-85550000D03*
%TO.P,L16,1*%
%TO.N,/C16+*%
X139600000Y-87300000D03*
%TD*%
%TO.P,L14,2*%
%TO.N,/C14-*%
X144600000Y-67550000D03*
%TO.P,L14,1*%
%TO.N,/C14+*%
X139600000Y-69300000D03*
%TD*%
%TO.P,L12,2*%
%TO.N,/C12-*%
X135375656Y-82774344D03*
%TO.P,L12,1*%
%TO.N,/C12+*%
X137125656Y-87774344D03*
%TD*%
%TO.P,L15,2*%
%TO.N,/C15-*%
X144375656Y-73774344D03*
%TO.P,L15,1*%
%TO.N,/C15+*%
X146125656Y-78774344D03*
%TD*%
%TO.P,L1,2*%
%TO.N,/C1-*%
X117600000Y-58550000D03*
%TO.P,L1,1*%
%TO.N,/C1+*%
X112600000Y-60300000D03*
%TD*%
%TO.P,L7,2*%
%TO.N,/C7+*%
X126375656Y-73774344D03*
%TO.P,L7,1*%
%TO.N,/C7-*%
X128125656Y-78774344D03*
%TD*%
D15*
%TO.P,L17,~*%
%TO.N,N/C*%
X133600000Y-50050000D03*
X133600000Y-49050000D03*
X133600000Y-48050000D03*
X133600000Y-47050000D03*
X123600000Y-50050000D03*
X123600000Y-49050000D03*
X123600000Y-48050000D03*
X123600000Y-47050000D03*
X123600000Y-46050000D03*
D14*
%TO.P,L17,1*%
%TO.N,/F+*%
X133600000Y-46050000D03*
%TD*%
D16*
%TO.N,/F-*%
X151823603Y-124800000D03*
%TO.N,/F+*%
X152500000Y-126600000D03*
D17*
%TO.N,*%
X118200000Y-58978434D03*
X117375656Y-82774344D03*
X146125656Y-78774344D03*
X117804090Y-82174344D03*
X130600000Y-60300000D03*
X114500000Y-79110995D03*
X118200000Y-76978434D03*
X128125656Y-60774344D03*
X114700000Y-75578434D03*
X136004090Y-85774344D03*
X116404090Y-67674344D03*
X123600000Y-86178434D03*
X132600000Y-77178434D03*
X119936651Y-85874344D03*
X117200000Y-61110995D03*
X141600000Y-86178434D03*
X139600000Y-69300000D03*
X119936651Y-67874344D03*
X117600000Y-76550000D03*
X127004090Y-58774344D03*
X123600000Y-68178434D03*
X121600000Y-69300000D03*
X119936651Y-83174344D03*
X128125656Y-78774344D03*
X141600000Y-68178434D03*
X117200000Y-79110995D03*
X114600000Y-77178434D03*
X136004090Y-67774344D03*
X130600000Y-78300000D03*
X119125656Y-87774344D03*
X117375656Y-64774344D03*
X118004090Y-85774344D03*
X137125656Y-69774344D03*
X117804090Y-64174344D03*
X119125656Y-69774344D03*
X118200000Y-60978434D03*
X118004090Y-67774344D03*
X146125656Y-60774344D03*
X114600000Y-59178434D03*
X114700000Y-57578434D03*
X112600000Y-60300000D03*
X145004090Y-76774344D03*
X121600000Y-87300000D03*
X137125656Y-87774344D03*
X119936651Y-65174344D03*
X119804090Y-64174344D03*
X132600000Y-59178434D03*
X139600000Y-87300000D03*
X114500000Y-61110995D03*
X127004090Y-76774344D03*
X118200000Y-78978434D03*
X116404090Y-85674344D03*
X117600000Y-58550000D03*
X119804090Y-82174344D03*
X145004090Y-58774344D03*
X112600000Y-78300000D03*
%TO.N,/C12+*%
X134404090Y-85674344D03*
X137804090Y-82174344D03*
X137936651Y-83174344D03*
X135804090Y-82174344D03*
X135375656Y-82774344D03*
X137936651Y-85874344D03*
%TO.N,/C13+*%
X146936651Y-58874344D03*
X143404090Y-58674344D03*
X144375656Y-55774344D03*
X146936651Y-56174344D03*
X144804090Y-55174344D03*
X146804090Y-55174344D03*
%TO.N,/C9-*%
X135200000Y-61110995D03*
X136200000Y-60978434D03*
X132700000Y-57578434D03*
X135600000Y-58550000D03*
X136200000Y-58978434D03*
X132500000Y-61110995D03*
%TO.N,/C15+*%
X144375656Y-73774344D03*
X144804090Y-73174344D03*
X146936651Y-76874344D03*
X146804090Y-73174344D03*
X146936651Y-74174344D03*
X143404090Y-76674344D03*
%TO.N,/C5+*%
X125404090Y-58674344D03*
X126804090Y-55174344D03*
X128936651Y-56174344D03*
X126375656Y-55774344D03*
X128804090Y-55174344D03*
X128936651Y-58874344D03*
%TO.N,/C10+*%
X137936651Y-67874344D03*
X137936651Y-65174344D03*
X134404090Y-67674344D03*
X135804090Y-64174344D03*
X137804090Y-64174344D03*
X135375656Y-64774344D03*
%TO.N,/C7+*%
X125404090Y-76674344D03*
X128936651Y-74174344D03*
X128936651Y-76874344D03*
X126804090Y-73174344D03*
X126375656Y-73774344D03*
X128804090Y-73174344D03*
%TO.N,/C14-*%
X141700000Y-66578434D03*
X145200000Y-67978434D03*
X144600000Y-67550000D03*
X144200000Y-70110995D03*
X141500000Y-70110995D03*
X145200000Y-69978434D03*
%TO.N,/C16-*%
X141700000Y-84578434D03*
X145200000Y-87978434D03*
X145200000Y-85978434D03*
X141500000Y-88110995D03*
X144600000Y-85550000D03*
X144200000Y-88110995D03*
%TO.N,/C8-*%
X126600000Y-85550000D03*
X127200000Y-87978434D03*
X127200000Y-85978434D03*
X123700000Y-84578434D03*
X123500000Y-88110995D03*
X126200000Y-88110995D03*
%TO.N,/C11-*%
X136200000Y-76978434D03*
X135600000Y-76550000D03*
X136200000Y-78978434D03*
X135200000Y-79110995D03*
X132700000Y-75578434D03*
X132500000Y-79110995D03*
%TO.N,/C6-*%
X127200000Y-67978434D03*
X127200000Y-69978434D03*
X126200000Y-70110995D03*
X126600000Y-67550000D03*
X123500000Y-70110995D03*
X123700000Y-66578434D03*
D16*
%TO.N,/F+*%
X134600000Y-46050000D03*
%TD*%
D10*
%TO.N,/F-*%
X151750000Y-127250000D02*
X152487500Y-126512500D01*
%TO.N,/F+*%
X150785000Y-123785000D02*
X151715000Y-124715000D01*
X150320000Y-123225000D02*
X150320000Y-124070000D01*
%TO.N,/C11-*%
X132350000Y-74800000D02*
X133850000Y-74800000D01*
X131850000Y-75300000D02*
X132350000Y-74800000D01*
X131850000Y-77300000D02*
X131850000Y-75300000D01*
X133100000Y-78550000D02*
X131850000Y-77300000D01*
X132975000Y-82541115D02*
X133100000Y-82416115D01*
X133600000Y-120150000D02*
X133600000Y-87731800D01*
X133600000Y-87731800D02*
X132975000Y-87106800D01*
X132140000Y-121610000D02*
X133600000Y-120150000D01*
X132140000Y-124800000D02*
X132140000Y-121610000D01*
X132975000Y-87106800D02*
X132975000Y-82541115D01*
X133850000Y-74800000D02*
X135600000Y-76550000D01*
X133100000Y-82416115D02*
X133100000Y-78550000D01*
%TO.N,/C11+*%
X132375000Y-80075000D02*
X130600000Y-78300000D01*
X132375000Y-87143200D02*
X132375000Y-80075000D01*
X133100000Y-87868200D02*
X132375000Y-87143200D01*
X133100000Y-119900000D02*
X133100000Y-87868200D01*
X131690000Y-121310000D02*
X133100000Y-119900000D01*
X131500000Y-123813654D02*
X131690000Y-123623654D01*
X131500000Y-125786346D02*
X131500000Y-123813654D01*
X131690000Y-125976346D02*
X131500000Y-125786346D01*
X131690000Y-126890000D02*
X131690000Y-125976346D01*
X131690000Y-123623654D02*
X131690000Y-121310000D01*
X132140000Y-127340000D02*
X131690000Y-126890000D01*
%TO.N,/C9-*%
X135600000Y-58050000D02*
X135600000Y-58550000D01*
X134600000Y-57050000D02*
X135600000Y-58050000D01*
X132100000Y-57050000D02*
X134600000Y-57050000D01*
X131325000Y-57825000D02*
X132100000Y-57050000D01*
X129962113Y-78593913D02*
X129962113Y-77506087D01*
X131575000Y-80206800D02*
X129962113Y-78593913D01*
X129962113Y-77506087D02*
X131325000Y-76143200D01*
X131575000Y-119425000D02*
X131575000Y-80206800D01*
X129600000Y-121400000D02*
X131575000Y-119425000D01*
X131325000Y-76143200D02*
X131325000Y-57825000D01*
X129600000Y-124800000D02*
X129600000Y-121400000D01*
%TO.N,/C9+*%
X129512113Y-77319687D02*
X130875000Y-75956800D01*
X130875000Y-75956800D02*
X130875000Y-60575000D01*
X129512113Y-78780313D02*
X129512113Y-77319687D01*
X130875000Y-60575000D02*
X130600000Y-60300000D01*
X131125000Y-80393200D02*
X129512113Y-78780313D01*
X131125000Y-119125000D02*
X131125000Y-80393200D01*
X128750000Y-121500000D02*
X131125000Y-119125000D01*
X128750000Y-125576346D02*
X128750000Y-121500000D01*
X129150000Y-125976346D02*
X128750000Y-125576346D01*
X129600000Y-127340000D02*
X129150000Y-126890000D01*
X129150000Y-126890000D02*
X129150000Y-125976346D01*
%TO.N,/C12+*%
X136770000Y-123623654D02*
X136770000Y-121311800D01*
X137220000Y-127340000D02*
X136770000Y-126890000D01*
X138125000Y-88050000D02*
X137401312Y-88050000D01*
X136770000Y-121311800D02*
X138125000Y-119956800D01*
X136070000Y-125276346D02*
X136070000Y-124323654D01*
X136770000Y-126890000D02*
X136770000Y-125976346D01*
X136070000Y-124323654D02*
X136770000Y-123623654D01*
X138125000Y-119956800D02*
X138125000Y-88050000D01*
X137401312Y-88050000D02*
X137125656Y-87774344D01*
X136770000Y-125976346D02*
X136070000Y-125276346D01*
%TO.N,/C8+*%
X120830000Y-124323654D02*
X121530000Y-123623654D01*
X121530000Y-126890000D02*
X121530000Y-125976346D01*
X121980000Y-127340000D02*
X121530000Y-126890000D01*
X121530000Y-123623654D02*
X121530000Y-96551800D01*
X125009100Y-90709100D02*
X121600000Y-87300000D01*
X120830000Y-125276346D02*
X120830000Y-124323654D01*
X125009100Y-93072700D02*
X125009100Y-90709100D01*
X121530000Y-96551800D02*
X125009100Y-93072700D01*
X121530000Y-125976346D02*
X120830000Y-125276346D01*
%TO.N,/C2+*%
X116625656Y-64774344D02*
X117375656Y-64774344D01*
X112375000Y-103393200D02*
X107875000Y-98893200D01*
X107875000Y-78956801D02*
X115190901Y-71640901D01*
X110670000Y-124323654D02*
X111370000Y-123623654D01*
X115190901Y-71640901D02*
X115190901Y-66209099D01*
X111370000Y-123623654D02*
X111370000Y-120461800D01*
X111370000Y-125976346D02*
X110670000Y-125276346D01*
X111370000Y-120461800D02*
X112375000Y-119456800D01*
X112375000Y-119456800D02*
X112375000Y-103393200D01*
X115190901Y-66209099D02*
X116625656Y-64774344D01*
X107875000Y-98893200D02*
X107875000Y-78956801D01*
X111370000Y-126890000D02*
X111370000Y-125976346D01*
X111820000Y-127340000D02*
X111370000Y-126890000D01*
X110670000Y-125276346D02*
X110670000Y-124323654D01*
%TO.N,/C13+*%
X148375656Y-60774344D02*
X146125656Y-60774344D01*
X146230000Y-124323654D02*
X146930000Y-123623654D01*
X146930000Y-123623654D02*
X146930000Y-120448200D01*
X145875000Y-119393200D02*
X145875000Y-100706800D01*
X152875000Y-93706800D02*
X152875000Y-61643200D01*
X146930000Y-125976346D02*
X146230000Y-125276346D01*
X147380000Y-127340000D02*
X146930000Y-126890000D01*
X146930000Y-126890000D02*
X146930000Y-125976346D01*
X152875000Y-61643200D02*
X150190900Y-58959100D01*
X150190900Y-58959100D02*
X148375656Y-60774344D01*
X146930000Y-120448200D02*
X145875000Y-119393200D01*
X152875000Y-61800000D02*
X152875000Y-61643200D01*
X145875000Y-100706800D02*
X152875000Y-93706800D01*
X146230000Y-125276346D02*
X146230000Y-124323654D01*
%TO.N,/C4+*%
X117375656Y-82774344D02*
X116375656Y-82774344D01*
X115750000Y-125276346D02*
X116450000Y-125976346D01*
X116450000Y-98218200D02*
X116450000Y-123623654D01*
X116450000Y-123623654D02*
X115750000Y-124323654D01*
X116450000Y-126890000D02*
X116900000Y-127340000D01*
X113125000Y-94893200D02*
X116450000Y-98218200D01*
X116450000Y-125976346D02*
X116450000Y-126890000D01*
X115350000Y-83800000D02*
X115350000Y-89481801D01*
X115750000Y-124323654D02*
X115750000Y-125276346D01*
X116375656Y-82774344D02*
X115350000Y-83800000D01*
X113125000Y-91706801D02*
X113125000Y-94893200D01*
X115350000Y-89481801D02*
X113125000Y-91706801D01*
%TO.N,/C13-*%
X144070652Y-55469340D02*
X144375656Y-55774344D01*
X153325000Y-93893200D02*
X153325000Y-61456800D01*
X147352773Y-54552773D02*
X144576367Y-54552773D01*
X153325000Y-60525000D02*
X147352773Y-54552773D01*
X144070652Y-55058488D02*
X144070652Y-55469340D01*
X146325000Y-100893200D02*
X153325000Y-93893200D01*
X144576367Y-54552773D02*
X144070652Y-55058488D01*
X147380000Y-120261800D02*
X146325000Y-119206800D01*
X147380000Y-124800000D02*
X147380000Y-120261800D01*
X153325000Y-61800000D02*
X153325000Y-61456800D01*
X153325000Y-61456800D02*
X153325000Y-60525000D01*
X146325000Y-119206800D02*
X146325000Y-100893200D01*
%TO.N,/C3-*%
X111325000Y-82825000D02*
X111325000Y-96206800D01*
X117850000Y-76300000D02*
X118850000Y-76300000D01*
X118850000Y-76300000D02*
X118850000Y-79550000D01*
X118850000Y-79550000D02*
X118100000Y-80300000D01*
X118100000Y-80300000D02*
X113850000Y-80300000D01*
X114360000Y-99241800D02*
X114360000Y-124800000D01*
X117600000Y-76550000D02*
X117850000Y-76300000D01*
X111325000Y-96206800D02*
X114360000Y-99241800D01*
X113850000Y-80300000D02*
X111325000Y-82825000D01*
%TO.N,/C15+*%
X141850000Y-96231800D02*
X150375000Y-87706800D01*
X147600000Y-75550000D02*
X147600000Y-77300000D01*
X147690900Y-75459100D02*
X147600000Y-75550000D01*
X141150000Y-124323654D02*
X141850000Y-123623654D01*
X147600000Y-77300000D02*
X146125656Y-78774344D01*
X141850000Y-125976346D02*
X141150000Y-125276346D01*
X142300000Y-127340000D02*
X141850000Y-126890000D01*
X149440900Y-75459100D02*
X147690900Y-75459100D01*
X150375000Y-76393200D02*
X149440900Y-75459100D01*
X141850000Y-123623654D02*
X141850000Y-96231800D01*
X150375000Y-87706800D02*
X150375000Y-76393200D01*
X141150000Y-125276346D02*
X141150000Y-124323654D01*
X141850000Y-126890000D02*
X141850000Y-125976346D01*
%TO.N,/C5+*%
X120375000Y-82206800D02*
X120875000Y-81706800D01*
X122875000Y-64206800D02*
X122875000Y-59456800D01*
X118290000Y-124323654D02*
X118990000Y-123623654D01*
X118990000Y-90591800D02*
X120375000Y-89206800D01*
X118990000Y-125976346D02*
X118290000Y-125276346D01*
X120375000Y-89206800D02*
X120375000Y-86178458D01*
X119440000Y-127340000D02*
X118990000Y-126890000D01*
X120875000Y-81706800D02*
X120875000Y-70113271D01*
X120875000Y-70113271D02*
X120490076Y-69728347D01*
X118990000Y-123623654D02*
X118990000Y-90591800D01*
X120490076Y-69728347D02*
X120490076Y-66591724D01*
X120375000Y-86178458D02*
X120461651Y-86091807D01*
X120461651Y-86091807D02*
X120461651Y-82956881D01*
X120490076Y-66591724D02*
X122875000Y-64206800D01*
X120375000Y-82870230D02*
X120375000Y-82206800D01*
X123756800Y-56643200D02*
X124625656Y-55774344D01*
X118290000Y-125276346D02*
X118290000Y-124323654D01*
X122875000Y-59456800D02*
X123756800Y-58575000D01*
X124625656Y-55774344D02*
X126375656Y-55774344D01*
X118990000Y-126890000D02*
X118990000Y-125976346D01*
X123756800Y-58575000D02*
X123756800Y-56643200D01*
X120461651Y-82956881D02*
X120375000Y-82870230D01*
%TO.N,/C10+*%
X134230000Y-121351800D02*
X135874999Y-119706801D01*
X133530000Y-124323654D02*
X134230000Y-123623654D01*
X135874999Y-88893199D02*
X133375000Y-86393200D01*
X137875000Y-74893200D02*
X133800000Y-70818200D01*
X133530000Y-125276346D02*
X133530000Y-124323654D01*
X134680000Y-127340000D02*
X134230000Y-126890000D01*
X133800000Y-66350000D02*
X135375656Y-64774344D01*
X133375000Y-86393200D02*
X133375000Y-82706800D01*
X135874999Y-119706801D02*
X135874999Y-88893199D01*
X137875000Y-78206800D02*
X137875000Y-74893200D01*
X134230000Y-125976346D02*
X133530000Y-125276346D01*
X133375000Y-82706800D02*
X137875000Y-78206800D01*
X133800000Y-70818200D02*
X133800000Y-66350000D01*
X134230000Y-126890000D02*
X134230000Y-125976346D01*
X134230000Y-123623654D02*
X134230000Y-121351800D01*
%TO.N,/C7+*%
X124800000Y-80318200D02*
X124800000Y-75350000D01*
X126610000Y-100790000D02*
X129600000Y-97800000D01*
X129600000Y-85118200D02*
X124800000Y-80318200D01*
X125910000Y-125276346D02*
X125910000Y-124323654D01*
X124800000Y-75350000D02*
X126375656Y-73774344D01*
X126610000Y-125976346D02*
X125910000Y-125276346D01*
X126610000Y-123623654D02*
X126610000Y-100790000D01*
X127060000Y-127340000D02*
X126610000Y-126890000D01*
X125910000Y-124323654D02*
X126610000Y-123623654D01*
X129600000Y-97800000D02*
X129600000Y-85118200D01*
X126610000Y-126890000D02*
X126610000Y-125976346D01*
%TO.N,/C3+*%
X114360000Y-127340000D02*
X113910000Y-126890000D01*
X113910000Y-126890000D02*
X113910000Y-125976346D01*
X110875000Y-82638603D02*
X112600000Y-80913603D01*
X113210000Y-124323654D02*
X113910000Y-123623654D01*
X113910000Y-123623654D02*
X113910000Y-99428200D01*
X113910000Y-125976346D02*
X113210000Y-125276346D01*
X112600000Y-80913603D02*
X112600000Y-78300000D01*
X113910000Y-99428200D02*
X110875000Y-96393200D01*
X110875000Y-96393200D02*
X110875000Y-82638603D01*
X113210000Y-125276346D02*
X113210000Y-124323654D01*
%TO.N,/C14-*%
X144390000Y-125976346D02*
X144390000Y-126890000D01*
X149690900Y-66709100D02*
X151625000Y-68643200D01*
X144390000Y-126890000D02*
X144840000Y-127340000D01*
X143690000Y-124323654D02*
X143690000Y-125276346D01*
X151625000Y-68643200D02*
X151625000Y-91456800D01*
X151625000Y-91456800D02*
X144390000Y-98691800D01*
X144390000Y-123623654D02*
X143690000Y-124323654D01*
X143690000Y-125276346D02*
X144390000Y-125976346D01*
X141350000Y-71050000D02*
X145350000Y-71050000D01*
X144390000Y-98691800D02*
X144390000Y-123623654D01*
X145350000Y-71050000D02*
X149690900Y-66709100D01*
X139600000Y-69300000D02*
X141350000Y-71050000D01*
%TO.N,/C4-*%
X116900000Y-124800000D02*
X116900000Y-98031800D01*
X116900000Y-98031800D02*
X113575000Y-94706800D01*
X113575000Y-94706800D02*
X113575000Y-91893199D01*
X113575000Y-91893199D02*
X117693855Y-87774344D01*
X117693855Y-87774344D02*
X119125656Y-87774344D01*
%TO.N,/C6+*%
X124070000Y-99939637D02*
X124070000Y-123623654D01*
X128124999Y-85393199D02*
X128124999Y-95884638D01*
X123370000Y-125276346D02*
X124070000Y-125976346D01*
X122625000Y-71956800D02*
X122625000Y-79893200D01*
X121600000Y-69300000D02*
X123190900Y-70890900D01*
X124070000Y-125976346D02*
X124070000Y-126890000D01*
X123370000Y-124323654D02*
X123370000Y-125276346D01*
X124070000Y-126890000D02*
X124520000Y-127340000D01*
X123190900Y-71390900D02*
X122625000Y-71956800D01*
X122625000Y-79893200D02*
X128124999Y-85393199D01*
X123190900Y-70890900D02*
X123190900Y-71390900D01*
X128124999Y-95884638D02*
X124070000Y-99939637D01*
X124070000Y-123623654D02*
X123370000Y-124323654D01*
%TO.N,/C12-*%
X135375656Y-82774344D02*
X136125656Y-82774344D01*
X137220000Y-121498200D02*
X137220000Y-124800000D01*
X137350000Y-81050000D02*
X137850000Y-81050000D01*
X136125656Y-82774344D02*
X136600000Y-82300000D01*
X137850000Y-81050000D02*
X138575000Y-81775000D01*
X136600000Y-82300000D02*
X136600000Y-81800000D01*
X136600000Y-81800000D02*
X137350000Y-81050000D01*
X138575000Y-120143200D02*
X137220000Y-121498200D01*
X138575000Y-81775000D02*
X138575000Y-120143200D01*
%TO.N,/C1+*%
X108830000Y-125976346D02*
X108130000Y-125276346D01*
X108830000Y-126890000D02*
X108830000Y-125976346D01*
X109280000Y-127340000D02*
X108830000Y-126890000D01*
X105625000Y-120893200D02*
X105625000Y-69888603D01*
X108130000Y-125276346D02*
X108130000Y-124323654D01*
X108130000Y-124323654D02*
X108592727Y-123860927D01*
X108592727Y-123860927D02*
X105625000Y-120893200D01*
X112600000Y-62913603D02*
X112600000Y-60300000D01*
X105625000Y-69888603D02*
X112600000Y-62913603D01*
%TO.N,/C16-*%
X139760000Y-95458200D02*
X144075001Y-91143199D01*
X145850000Y-85550000D02*
X144600000Y-85550000D01*
X144075001Y-89956801D02*
X146350000Y-87681802D01*
X146350000Y-86050000D02*
X145850000Y-85550000D01*
X146350000Y-87681802D02*
X146350000Y-86050000D01*
X139760000Y-124800000D02*
X139760000Y-95458200D01*
X144075001Y-91143199D02*
X144075001Y-89956801D01*
%TO.N,/C15-*%
X144850000Y-72300000D02*
X144100000Y-73050000D01*
X150825000Y-87893200D02*
X150825000Y-76206800D01*
X144400000Y-73600000D02*
X144400000Y-73800000D01*
X142300000Y-124800000D02*
X142300000Y-96418200D01*
X142300000Y-96418200D02*
X150825000Y-87893200D01*
X144100000Y-73300000D02*
X144400000Y-73600000D01*
X147350000Y-72300000D02*
X144850000Y-72300000D01*
X150825000Y-76206800D02*
X148392544Y-73774344D01*
X144100000Y-73050000D02*
X144100000Y-73300000D01*
X148392544Y-73774344D02*
X148392544Y-73342544D01*
X148392544Y-73342544D02*
X147350000Y-72300000D01*
%TO.N,/C10-*%
X133825000Y-82893200D02*
X138325000Y-78393200D01*
X134575000Y-69050000D02*
X136401312Y-69050000D01*
X133825000Y-86206800D02*
X133825000Y-82893200D01*
X136325001Y-88706801D02*
X133825000Y-86206800D01*
X138325000Y-78393200D02*
X138325000Y-74706800D01*
X136325001Y-119893199D02*
X136325001Y-88706801D01*
X136401312Y-69050000D02*
X137125656Y-69774344D01*
X134680000Y-124800000D02*
X134680000Y-121538200D01*
X138325000Y-74706800D02*
X134575000Y-70956800D01*
X134680000Y-121538200D02*
X136325001Y-119893199D01*
X134575000Y-70956800D02*
X134575000Y-69050000D01*
%TO.N,/C8-*%
X121980000Y-124800000D02*
X121980000Y-96738200D01*
X127724999Y-89425001D02*
X127724999Y-87674999D01*
X121980000Y-96738200D02*
X127060000Y-91658200D01*
X127060000Y-90090000D02*
X127724999Y-89425001D01*
X127724999Y-87674999D02*
X126600000Y-86550000D01*
X127060000Y-91658200D02*
X127060000Y-90090000D01*
X126600000Y-86550000D02*
X126600000Y-85550000D01*
%TO.N,/C16+*%
X143624999Y-90143199D02*
X143190900Y-89709100D01*
X139760000Y-127340000D02*
X139310000Y-126890000D01*
X142009100Y-89709100D02*
X139600000Y-87300000D01*
X139310000Y-126890000D02*
X139310000Y-125976346D01*
X138610000Y-124323654D02*
X139310000Y-123623654D01*
X143190900Y-89709100D02*
X142009100Y-89709100D01*
X139310000Y-123623654D02*
X139310000Y-95271800D01*
X138610000Y-125276346D02*
X138610000Y-124323654D01*
X139310000Y-125976346D02*
X138610000Y-125276346D01*
X143624999Y-90956801D02*
X143624999Y-90143199D01*
X139310000Y-95271800D02*
X143624999Y-90956801D01*
%TO.N,/C5-*%
X119440000Y-124800000D02*
X119440000Y-90778200D01*
X120825000Y-82683862D02*
X120825000Y-82393200D01*
X123325000Y-64393200D02*
X123325000Y-60575000D01*
X120825000Y-89393200D02*
X120825000Y-86364826D01*
X126901312Y-59550000D02*
X128125656Y-60774344D01*
X120825000Y-82393200D02*
X121325000Y-81893200D01*
X120940076Y-69541947D02*
X120940076Y-66778124D01*
X120911631Y-86278195D02*
X120911631Y-82770493D01*
X121325000Y-69926871D02*
X120940076Y-69541947D01*
X124350000Y-59550000D02*
X126901312Y-59550000D01*
X123325000Y-60575000D02*
X124350000Y-59550000D01*
X120911631Y-82770493D02*
X120825000Y-82683862D01*
X121325000Y-81893200D02*
X121325000Y-69926871D01*
X119440000Y-90778200D02*
X120825000Y-89393200D01*
X120940076Y-66778124D02*
X123325000Y-64393200D01*
X120825000Y-86364826D02*
X120911631Y-86278195D01*
%TO.N,/C1-*%
X106075000Y-120706800D02*
X109280000Y-123911800D01*
X119350000Y-61300000D02*
X117975000Y-62675000D01*
X113475000Y-62675000D02*
X106075000Y-70075000D01*
X117600000Y-58025000D02*
X118325000Y-58025000D01*
X117975000Y-62675000D02*
X113475000Y-62675000D01*
X109280000Y-123911800D02*
X109280000Y-124800000D01*
X118325000Y-58025000D02*
X119350000Y-59050000D01*
X117600000Y-58550000D02*
X117600000Y-58025000D01*
X119350000Y-59050000D02*
X119350000Y-61300000D01*
X106075000Y-70075000D02*
X106075000Y-120706800D01*
%TO.N,/C14+*%
X152075000Y-91643200D02*
X144840000Y-98878200D01*
X149427300Y-65809100D02*
X152075000Y-68456800D01*
X144840000Y-98878200D02*
X144840000Y-124800000D01*
X146340900Y-65809100D02*
X149427300Y-65809100D01*
X152075000Y-68456800D02*
X152075000Y-91643200D01*
X144600000Y-67550000D02*
X146340900Y-65809100D01*
%TO.N,/C7-*%
X130100000Y-84981800D02*
X125200000Y-80081800D01*
X125200000Y-80081800D02*
X125200000Y-78300000D01*
X127060000Y-101340000D02*
X130100000Y-98300000D01*
X130100000Y-98300000D02*
X130100000Y-84981800D01*
X125200000Y-78300000D02*
X127651312Y-78300000D01*
X127060000Y-124800000D02*
X127060000Y-101340000D01*
X127651312Y-78300000D02*
X128125656Y-78774344D01*
%TO.N,/C2-*%
X111820000Y-120648200D02*
X112825000Y-119643200D01*
X111820000Y-124800000D02*
X111820000Y-120648200D01*
X112825000Y-119643200D02*
X112825000Y-103206800D01*
X108325000Y-79143199D02*
X117693855Y-69774344D01*
X108325000Y-98706800D02*
X108325000Y-79143199D01*
X117693855Y-69774344D02*
X119125656Y-69774344D01*
X112825000Y-103206800D02*
X108325000Y-98706800D01*
%TO.N,/C6-*%
X127200000Y-71000000D02*
X128000000Y-70200000D01*
X124200000Y-71000000D02*
X127200000Y-71000000D01*
X127600000Y-67400000D02*
X126750000Y-67400000D01*
X123075000Y-72125000D02*
X124200000Y-71000000D01*
X123075000Y-79706800D02*
X123075000Y-72125000D01*
X128575001Y-96324999D02*
X128575001Y-85206801D01*
X128000000Y-67800000D02*
X127600000Y-67400000D01*
X126750000Y-67400000D02*
X126600000Y-67550000D01*
X124520000Y-100380000D02*
X128575001Y-96324999D01*
X128575001Y-85206801D02*
X123075000Y-79706800D01*
X128000000Y-70200000D02*
X128000000Y-67800000D01*
X124520000Y-124800000D02*
X124520000Y-100380000D01*
%TO.N,/F+*%
X134600000Y-46050000D02*
X133600000Y-46050000D01*
%TO.N,/F-*%
X150725000Y-128275000D02*
X151750000Y-127250000D01*
%TD*%
M02*
