M48
; DRILL file {KiCad 8.0.5} date 2025-02-19T13:56:43-0500
; FORMAT={-:-/ absolute / inch / decimal}
; #@! TF.CreationDate,2025-02-19T13:56:43-05:00
; #@! TF.GenerationSoftware,Kicad,Pcbnew,8.0.5
; #@! TF.FileFunction,MixedPlating,1,4
FMAT,2
INCH
; #@! TA.AperFunction,Plated,PTH,ViaDrill
T1C0.0118
; #@! TA.AperFunction,Plated,PTH,ComponentDrill
T2C0.0118
%
G90
G05
T1
X4.4331Y-2.374
X4.4331Y-3.0827
X4.5079Y-2.4059
X4.5079Y-3.1146
X4.5118Y-2.3299
X4.5118Y-3.0385
X4.5157Y-2.2669
X4.5157Y-2.9755
X4.5828Y-2.6643
X4.5828Y-3.373
X4.6142Y-2.4059
X4.6142Y-3.1146
X4.6211Y-2.5502
X4.6211Y-3.2588
X4.6299Y-2.3051
X4.6299Y-3.0138
X4.638Y-2.5265
X4.638Y-3.2352
X4.6458Y-2.6683
X4.6458Y-3.3769
X4.6535Y-2.322
X4.6535Y-2.4007
X4.6535Y-3.0306
X4.6535Y-3.1094
X4.69Y-2.747
X4.69Y-3.4557
X4.7167Y-2.5265
X4.7167Y-3.2352
X4.7219Y-2.5659
X4.7219Y-2.6722
X4.7219Y-3.2746
X4.7219Y-3.3809
X4.7874Y-2.7283
X4.7874Y-3.437
X4.8622Y-2.7603
X4.8622Y-3.4689
X4.8661Y-2.6842
X4.8661Y-3.3929
X4.8701Y-2.6212
X4.8701Y-3.3299
X4.9372Y-2.31
X4.9372Y-3.0187
X4.9685Y-2.7603
X4.9685Y-3.4689
X4.9754Y-2.1958
X4.9754Y-2.9045
X4.9843Y-2.6594
X4.9843Y-3.3681
X4.9923Y-2.1722
X4.9923Y-2.8809
X5.0002Y-2.314
X5.0002Y-3.0226
X5.0079Y-2.6763
X5.0079Y-2.7551
X5.0079Y-3.385
X5.0079Y-3.4637
X5.0443Y-2.3927
X5.0443Y-3.1014
X5.071Y-2.1722
X5.071Y-2.8809
X5.0762Y-2.2116
X5.0762Y-2.3179
X5.0762Y-2.9202
X5.0762Y-3.0265
X5.1417Y-2.374
X5.1417Y-3.0827
X5.2165Y-2.4059
X5.2165Y-3.1146
X5.2205Y-2.3299
X5.2205Y-3.0385
X5.2244Y-2.2669
X5.2244Y-2.9755
X5.2915Y-2.6643
X5.2915Y-3.373
X5.2992Y-1.813
X5.3228Y-2.4059
X5.3228Y-3.1146
X5.3298Y-2.5502
X5.3298Y-3.2588
X5.3386Y-2.3051
X5.3386Y-3.0138
X5.3466Y-2.5265
X5.3466Y-3.2352
X5.3545Y-2.6683
X5.3545Y-3.3769
X5.3622Y-2.322
X5.3622Y-2.4007
X5.3622Y-3.0306
X5.3622Y-3.1094
X5.3986Y-2.747
X5.3986Y-3.4557
X5.4254Y-2.5265
X5.4254Y-3.2352
X5.4306Y-2.5659
X5.4306Y-2.6722
X5.4306Y-3.2746
X5.4306Y-3.3809
X5.4961Y-2.7283
X5.4961Y-3.437
X5.5709Y-2.7603
X5.5709Y-3.4689
X5.5748Y-2.6842
X5.5748Y-3.3929
X5.5787Y-2.6212
X5.5787Y-3.3299
X5.6458Y-2.31
X5.6458Y-3.0187
X5.6772Y-2.7603
X5.6772Y-3.4689
X5.6841Y-2.1958
X5.6841Y-2.9045
X5.6929Y-2.6594
X5.6929Y-3.3681
X5.7009Y-2.1722
X5.7009Y-2.8809
X5.7088Y-2.314
X5.7088Y-3.0226
X5.7165Y-2.6763
X5.7165Y-2.7551
X5.7165Y-3.385
X5.7165Y-3.4637
X5.753Y-2.3927
X5.753Y-3.1014
X5.7797Y-2.1722
X5.7797Y-2.8809
X5.7849Y-2.2116
X5.7849Y-2.3179
X5.7849Y-2.9202
X5.7849Y-3.0265
X5.9773Y-4.9134
X6.0039Y-4.9843
T2
X4.8661Y-1.813
X4.8661Y-1.8524
X4.8661Y-1.8917
X4.8661Y-1.9311
X4.8661Y-1.9705
X5.2598Y-1.8524
X5.2598Y-1.8917
X5.2598Y-1.9311
X5.2598Y-1.9705
M30
