%TF.GenerationSoftware,KiCad,Pcbnew,8.0.5*%
%TF.CreationDate,2025-02-19T13:56:41-05:00*%
%TF.ProjectId,96wp_coils_r2,39367770-5f63-46f6-996c-735f72322e6b,rev?*%
%TF.SameCoordinates,Original*%
%TF.FileFunction,Paste,Bot*%
%TF.FilePolarity,Positive*%
%FSLAX46Y46*%
G04 Gerber Fmt 4.6, Leading zero omitted, Abs format (unit mm)*
G04 Created by KiCad (PCBNEW 8.0.5) date 2025-02-19 13:56:41*
%MOMM*%
%LPD*%
G01*
G04 APERTURE LIST*
%ADD10R,1.000000X3.150000*%
%ADD11C,0.500000*%
G04 APERTURE END LIST*
D10*
%TO.C,J1*%
X109680000Y-123225000D03*
X109680000Y-128275000D03*
X112220000Y-123225000D03*
X112220000Y-128275000D03*
X114760000Y-123225000D03*
X114760000Y-128275000D03*
X117300000Y-123225000D03*
X117300000Y-128275000D03*
X119840000Y-123225000D03*
X119840000Y-128275000D03*
X122380000Y-123225000D03*
X122380000Y-128275000D03*
X124920000Y-123225000D03*
X124920000Y-128275000D03*
X127460000Y-123225000D03*
X127460000Y-128275000D03*
X130000000Y-123225000D03*
X130000000Y-128275000D03*
X132540000Y-123225000D03*
X132540000Y-128275000D03*
X135080000Y-123225000D03*
X135080000Y-128275000D03*
X137620000Y-123225000D03*
X137620000Y-128275000D03*
X140160000Y-123225000D03*
X140160000Y-128275000D03*
X142700000Y-123225000D03*
X142700000Y-128275000D03*
X145240000Y-123225000D03*
X145240000Y-128275000D03*
X147780000Y-123225000D03*
X147780000Y-128275000D03*
X150320000Y-123225000D03*
X150320000Y-128275000D03*
%TD*%
D11*
%TO.C,L3*%
X117600000Y-76550000D03*
X112600000Y-78300000D03*
%TD*%
%TO.C,L10*%
X135375656Y-64774344D03*
X137125656Y-69774344D03*
%TD*%
%TO.C,L11*%
X135600000Y-76550000D03*
X130600000Y-78300000D03*
%TD*%
%TO.C,L9*%
X135600000Y-58550000D03*
X130600000Y-60300000D03*
%TD*%
%TO.C,L8*%
X121600000Y-87300000D03*
X126600000Y-85550000D03*
%TD*%
%TO.C,L6*%
X126600000Y-67550000D03*
X121600000Y-69300000D03*
%TD*%
%TO.C,L4*%
X117375656Y-82774344D03*
X119125656Y-87774344D03*
%TD*%
%TO.C,L2*%
X117375656Y-64774344D03*
X119125656Y-69774344D03*
%TD*%
%TO.C,L5*%
X126375656Y-55774344D03*
X128125656Y-60774344D03*
%TD*%
%TO.C,L13*%
X144375656Y-55774344D03*
X146125656Y-60774344D03*
%TD*%
%TO.C,L16*%
X144600000Y-85550000D03*
X139600000Y-87300000D03*
%TD*%
%TO.C,L14*%
X144600000Y-67550000D03*
X139600000Y-69300000D03*
%TD*%
%TO.C,L12*%
X135375656Y-82774344D03*
X137125656Y-87774344D03*
%TD*%
%TO.C,L15*%
X144375656Y-73774344D03*
X146125656Y-78774344D03*
%TD*%
%TO.C,L1*%
X117600000Y-58550000D03*
X112600000Y-60300000D03*
%TD*%
%TO.C,L7*%
X126375656Y-73774344D03*
X128125656Y-78774344D03*
%TD*%
%TO.C,L17*%
X133600000Y-46050000D03*
%TD*%
M02*
